%TF.GenerationSoftware,KiCad,Pcbnew,8.0.1*%
%TF.CreationDate,2025-09-04T11:13:59-04:00*%
%TF.ProjectId,SUN,53554e2e-6b69-4636-9164-5f7063625858,rev?*%
%TF.SameCoordinates,Original*%
%TF.FileFunction,Legend,Top*%
%TF.FilePolarity,Positive*%
%FSLAX46Y46*%
G04 Gerber Fmt 4.6, Leading zero omitted, Abs format (unit mm)*
G04 Created by KiCad (PCBNEW 8.0.1) date 2025-09-04 11:13:59*
%MOMM*%
%LPD*%
G01*
G04 APERTURE LIST*
%ADD10C,0.300000*%
%ADD11C,0.254000*%
%ADD12C,0.150000*%
%ADD13C,0.100000*%
%ADD14C,0.120000*%
%ADD15C,0.200000*%
G04 APERTURE END LIST*
D10*
X86554510Y-109800828D02*
X86554510Y-108300828D01*
X86554510Y-108300828D02*
X87411653Y-109800828D01*
X87411653Y-109800828D02*
X87411653Y-108300828D01*
X87268796Y-105000828D02*
X86554510Y-105000828D01*
X86554510Y-105000828D02*
X86554510Y-103500828D01*
X87068796Y-129400828D02*
X86354510Y-129400828D01*
X86354510Y-129400828D02*
X86354510Y-127900828D01*
X87568796Y-128615114D02*
X88068796Y-128615114D01*
X88283082Y-129400828D02*
X87568796Y-129400828D01*
X87568796Y-129400828D02*
X87568796Y-127900828D01*
X87568796Y-127900828D02*
X88283082Y-127900828D01*
X88925939Y-129400828D02*
X88925939Y-127900828D01*
X88925939Y-127900828D02*
X89283082Y-127900828D01*
X89283082Y-127900828D02*
X89497368Y-127972257D01*
X89497368Y-127972257D02*
X89640225Y-128115114D01*
X89640225Y-128115114D02*
X89711654Y-128257971D01*
X89711654Y-128257971D02*
X89783082Y-128543685D01*
X89783082Y-128543685D02*
X89783082Y-128757971D01*
X89783082Y-128757971D02*
X89711654Y-129043685D01*
X89711654Y-129043685D02*
X89640225Y-129186542D01*
X89640225Y-129186542D02*
X89497368Y-129329400D01*
X89497368Y-129329400D02*
X89283082Y-129400828D01*
X89283082Y-129400828D02*
X88925939Y-129400828D01*
X90425939Y-128829400D02*
X91568797Y-128829400D01*
X87068796Y-124200828D02*
X86354510Y-124200828D01*
X86354510Y-124200828D02*
X86354510Y-122700828D01*
X87568796Y-123415114D02*
X88068796Y-123415114D01*
X88283082Y-124200828D02*
X87568796Y-124200828D01*
X87568796Y-124200828D02*
X87568796Y-122700828D01*
X87568796Y-122700828D02*
X88283082Y-122700828D01*
X88925939Y-124200828D02*
X88925939Y-122700828D01*
X88925939Y-122700828D02*
X89283082Y-122700828D01*
X89283082Y-122700828D02*
X89497368Y-122772257D01*
X89497368Y-122772257D02*
X89640225Y-122915114D01*
X89640225Y-122915114D02*
X89711654Y-123057971D01*
X89711654Y-123057971D02*
X89783082Y-123343685D01*
X89783082Y-123343685D02*
X89783082Y-123557971D01*
X89783082Y-123557971D02*
X89711654Y-123843685D01*
X89711654Y-123843685D02*
X89640225Y-123986542D01*
X89640225Y-123986542D02*
X89497368Y-124129400D01*
X89497368Y-124129400D02*
X89283082Y-124200828D01*
X89283082Y-124200828D02*
X88925939Y-124200828D01*
X90425939Y-123629400D02*
X91568797Y-123629400D01*
X90997368Y-124200828D02*
X90997368Y-123057971D01*
D11*
X83832880Y-92104318D02*
X83832880Y-93132413D01*
X83832880Y-93132413D02*
X83893357Y-93253365D01*
X83893357Y-93253365D02*
X83953833Y-93313842D01*
X83953833Y-93313842D02*
X84074785Y-93374318D01*
X84074785Y-93374318D02*
X84316690Y-93374318D01*
X84316690Y-93374318D02*
X84437642Y-93313842D01*
X84437642Y-93313842D02*
X84498119Y-93253365D01*
X84498119Y-93253365D02*
X84558595Y-93132413D01*
X84558595Y-93132413D02*
X84558595Y-92104318D01*
X85828595Y-93374318D02*
X85102880Y-93374318D01*
X85465737Y-93374318D02*
X85465737Y-92104318D01*
X85465737Y-92104318D02*
X85344785Y-92285746D01*
X85344785Y-92285746D02*
X85223833Y-92406699D01*
X85223833Y-92406699D02*
X85102880Y-92467175D01*
D12*
X144218333Y-106439819D02*
X143885000Y-105963628D01*
X143646905Y-106439819D02*
X143646905Y-105439819D01*
X143646905Y-105439819D02*
X144027857Y-105439819D01*
X144027857Y-105439819D02*
X144123095Y-105487438D01*
X144123095Y-105487438D02*
X144170714Y-105535057D01*
X144170714Y-105535057D02*
X144218333Y-105630295D01*
X144218333Y-105630295D02*
X144218333Y-105773152D01*
X144218333Y-105773152D02*
X144170714Y-105868390D01*
X144170714Y-105868390D02*
X144123095Y-105916009D01*
X144123095Y-105916009D02*
X144027857Y-105963628D01*
X144027857Y-105963628D02*
X143646905Y-105963628D01*
X144551667Y-105439819D02*
X145170714Y-105439819D01*
X145170714Y-105439819D02*
X144837381Y-105820771D01*
X144837381Y-105820771D02*
X144980238Y-105820771D01*
X144980238Y-105820771D02*
X145075476Y-105868390D01*
X145075476Y-105868390D02*
X145123095Y-105916009D01*
X145123095Y-105916009D02*
X145170714Y-106011247D01*
X145170714Y-106011247D02*
X145170714Y-106249342D01*
X145170714Y-106249342D02*
X145123095Y-106344580D01*
X145123095Y-106344580D02*
X145075476Y-106392200D01*
X145075476Y-106392200D02*
X144980238Y-106439819D01*
X144980238Y-106439819D02*
X144694524Y-106439819D01*
X144694524Y-106439819D02*
X144599286Y-106392200D01*
X144599286Y-106392200D02*
X144551667Y-106344580D01*
X130666667Y-119007200D02*
X130809524Y-119054819D01*
X130809524Y-119054819D02*
X131047619Y-119054819D01*
X131047619Y-119054819D02*
X131142857Y-119007200D01*
X131142857Y-119007200D02*
X131190476Y-118959580D01*
X131190476Y-118959580D02*
X131238095Y-118864342D01*
X131238095Y-118864342D02*
X131238095Y-118769104D01*
X131238095Y-118769104D02*
X131190476Y-118673866D01*
X131190476Y-118673866D02*
X131142857Y-118626247D01*
X131142857Y-118626247D02*
X131047619Y-118578628D01*
X131047619Y-118578628D02*
X130857143Y-118531009D01*
X130857143Y-118531009D02*
X130761905Y-118483390D01*
X130761905Y-118483390D02*
X130714286Y-118435771D01*
X130714286Y-118435771D02*
X130666667Y-118340533D01*
X130666667Y-118340533D02*
X130666667Y-118245295D01*
X130666667Y-118245295D02*
X130714286Y-118150057D01*
X130714286Y-118150057D02*
X130761905Y-118102438D01*
X130761905Y-118102438D02*
X130857143Y-118054819D01*
X130857143Y-118054819D02*
X131095238Y-118054819D01*
X131095238Y-118054819D02*
X131238095Y-118102438D01*
X131571429Y-118054819D02*
X131809524Y-119054819D01*
X131809524Y-119054819D02*
X132000000Y-118340533D01*
X132000000Y-118340533D02*
X132190476Y-119054819D01*
X132190476Y-119054819D02*
X132428572Y-118054819D01*
X132761905Y-118150057D02*
X132809524Y-118102438D01*
X132809524Y-118102438D02*
X132904762Y-118054819D01*
X132904762Y-118054819D02*
X133142857Y-118054819D01*
X133142857Y-118054819D02*
X133238095Y-118102438D01*
X133238095Y-118102438D02*
X133285714Y-118150057D01*
X133285714Y-118150057D02*
X133333333Y-118245295D01*
X133333333Y-118245295D02*
X133333333Y-118340533D01*
X133333333Y-118340533D02*
X133285714Y-118483390D01*
X133285714Y-118483390D02*
X132714286Y-119054819D01*
X132714286Y-119054819D02*
X133333333Y-119054819D01*
X138509580Y-102091666D02*
X138557200Y-102139285D01*
X138557200Y-102139285D02*
X138604819Y-102282142D01*
X138604819Y-102282142D02*
X138604819Y-102377380D01*
X138604819Y-102377380D02*
X138557200Y-102520237D01*
X138557200Y-102520237D02*
X138461961Y-102615475D01*
X138461961Y-102615475D02*
X138366723Y-102663094D01*
X138366723Y-102663094D02*
X138176247Y-102710713D01*
X138176247Y-102710713D02*
X138033390Y-102710713D01*
X138033390Y-102710713D02*
X137842914Y-102663094D01*
X137842914Y-102663094D02*
X137747676Y-102615475D01*
X137747676Y-102615475D02*
X137652438Y-102520237D01*
X137652438Y-102520237D02*
X137604819Y-102377380D01*
X137604819Y-102377380D02*
X137604819Y-102282142D01*
X137604819Y-102282142D02*
X137652438Y-102139285D01*
X137652438Y-102139285D02*
X137700057Y-102091666D01*
X137700057Y-101710713D02*
X137652438Y-101663094D01*
X137652438Y-101663094D02*
X137604819Y-101567856D01*
X137604819Y-101567856D02*
X137604819Y-101329761D01*
X137604819Y-101329761D02*
X137652438Y-101234523D01*
X137652438Y-101234523D02*
X137700057Y-101186904D01*
X137700057Y-101186904D02*
X137795295Y-101139285D01*
X137795295Y-101139285D02*
X137890533Y-101139285D01*
X137890533Y-101139285D02*
X138033390Y-101186904D01*
X138033390Y-101186904D02*
X138604819Y-101758332D01*
X138604819Y-101758332D02*
X138604819Y-101139285D01*
D11*
X138760237Y-106174318D02*
X138760237Y-104904318D01*
X140090714Y-106053365D02*
X140030238Y-106113842D01*
X140030238Y-106113842D02*
X139848809Y-106174318D01*
X139848809Y-106174318D02*
X139727857Y-106174318D01*
X139727857Y-106174318D02*
X139546428Y-106113842D01*
X139546428Y-106113842D02*
X139425476Y-105992889D01*
X139425476Y-105992889D02*
X139364999Y-105871937D01*
X139364999Y-105871937D02*
X139304523Y-105630032D01*
X139304523Y-105630032D02*
X139304523Y-105448603D01*
X139304523Y-105448603D02*
X139364999Y-105206699D01*
X139364999Y-105206699D02*
X139425476Y-105085746D01*
X139425476Y-105085746D02*
X139546428Y-104964794D01*
X139546428Y-104964794D02*
X139727857Y-104904318D01*
X139727857Y-104904318D02*
X139848809Y-104904318D01*
X139848809Y-104904318D02*
X140030238Y-104964794D01*
X140030238Y-104964794D02*
X140090714Y-105025270D01*
X140574523Y-105025270D02*
X140634999Y-104964794D01*
X140634999Y-104964794D02*
X140755952Y-104904318D01*
X140755952Y-104904318D02*
X141058333Y-104904318D01*
X141058333Y-104904318D02*
X141179285Y-104964794D01*
X141179285Y-104964794D02*
X141239761Y-105025270D01*
X141239761Y-105025270D02*
X141300238Y-105146222D01*
X141300238Y-105146222D02*
X141300238Y-105267175D01*
X141300238Y-105267175D02*
X141239761Y-105448603D01*
X141239761Y-105448603D02*
X140514047Y-106174318D01*
X140514047Y-106174318D02*
X141300238Y-106174318D01*
D12*
X79266666Y-117454819D02*
X79266666Y-118169104D01*
X79266666Y-118169104D02*
X79219047Y-118311961D01*
X79219047Y-118311961D02*
X79123809Y-118407200D01*
X79123809Y-118407200D02*
X78980952Y-118454819D01*
X78980952Y-118454819D02*
X78885714Y-118454819D01*
X80266666Y-118454819D02*
X79695238Y-118454819D01*
X79980952Y-118454819D02*
X79980952Y-117454819D01*
X79980952Y-117454819D02*
X79885714Y-117597676D01*
X79885714Y-117597676D02*
X79790476Y-117692914D01*
X79790476Y-117692914D02*
X79695238Y-117740533D01*
X137959580Y-117566666D02*
X138007200Y-117614285D01*
X138007200Y-117614285D02*
X138054819Y-117757142D01*
X138054819Y-117757142D02*
X138054819Y-117852380D01*
X138054819Y-117852380D02*
X138007200Y-117995237D01*
X138007200Y-117995237D02*
X137911961Y-118090475D01*
X137911961Y-118090475D02*
X137816723Y-118138094D01*
X137816723Y-118138094D02*
X137626247Y-118185713D01*
X137626247Y-118185713D02*
X137483390Y-118185713D01*
X137483390Y-118185713D02*
X137292914Y-118138094D01*
X137292914Y-118138094D02*
X137197676Y-118090475D01*
X137197676Y-118090475D02*
X137102438Y-117995237D01*
X137102438Y-117995237D02*
X137054819Y-117852380D01*
X137054819Y-117852380D02*
X137054819Y-117757142D01*
X137054819Y-117757142D02*
X137102438Y-117614285D01*
X137102438Y-117614285D02*
X137150057Y-117566666D01*
X137054819Y-116709523D02*
X137054819Y-116899999D01*
X137054819Y-116899999D02*
X137102438Y-116995237D01*
X137102438Y-116995237D02*
X137150057Y-117042856D01*
X137150057Y-117042856D02*
X137292914Y-117138094D01*
X137292914Y-117138094D02*
X137483390Y-117185713D01*
X137483390Y-117185713D02*
X137864342Y-117185713D01*
X137864342Y-117185713D02*
X137959580Y-117138094D01*
X137959580Y-117138094D02*
X138007200Y-117090475D01*
X138007200Y-117090475D02*
X138054819Y-116995237D01*
X138054819Y-116995237D02*
X138054819Y-116804761D01*
X138054819Y-116804761D02*
X138007200Y-116709523D01*
X138007200Y-116709523D02*
X137959580Y-116661904D01*
X137959580Y-116661904D02*
X137864342Y-116614285D01*
X137864342Y-116614285D02*
X137626247Y-116614285D01*
X137626247Y-116614285D02*
X137531009Y-116661904D01*
X137531009Y-116661904D02*
X137483390Y-116709523D01*
X137483390Y-116709523D02*
X137435771Y-116804761D01*
X137435771Y-116804761D02*
X137435771Y-116995237D01*
X137435771Y-116995237D02*
X137483390Y-117090475D01*
X137483390Y-117090475D02*
X137531009Y-117138094D01*
X137531009Y-117138094D02*
X137626247Y-117185713D01*
X141333333Y-98009580D02*
X141285714Y-98057200D01*
X141285714Y-98057200D02*
X141142857Y-98104819D01*
X141142857Y-98104819D02*
X141047619Y-98104819D01*
X141047619Y-98104819D02*
X140904762Y-98057200D01*
X140904762Y-98057200D02*
X140809524Y-97961961D01*
X140809524Y-97961961D02*
X140761905Y-97866723D01*
X140761905Y-97866723D02*
X140714286Y-97676247D01*
X140714286Y-97676247D02*
X140714286Y-97533390D01*
X140714286Y-97533390D02*
X140761905Y-97342914D01*
X140761905Y-97342914D02*
X140809524Y-97247676D01*
X140809524Y-97247676D02*
X140904762Y-97152438D01*
X140904762Y-97152438D02*
X141047619Y-97104819D01*
X141047619Y-97104819D02*
X141142857Y-97104819D01*
X141142857Y-97104819D02*
X141285714Y-97152438D01*
X141285714Y-97152438D02*
X141333333Y-97200057D01*
X141666667Y-97104819D02*
X142285714Y-97104819D01*
X142285714Y-97104819D02*
X141952381Y-97485771D01*
X141952381Y-97485771D02*
X142095238Y-97485771D01*
X142095238Y-97485771D02*
X142190476Y-97533390D01*
X142190476Y-97533390D02*
X142238095Y-97581009D01*
X142238095Y-97581009D02*
X142285714Y-97676247D01*
X142285714Y-97676247D02*
X142285714Y-97914342D01*
X142285714Y-97914342D02*
X142238095Y-98009580D01*
X142238095Y-98009580D02*
X142190476Y-98057200D01*
X142190476Y-98057200D02*
X142095238Y-98104819D01*
X142095238Y-98104819D02*
X141809524Y-98104819D01*
X141809524Y-98104819D02*
X141714286Y-98057200D01*
X141714286Y-98057200D02*
X141666667Y-98009580D01*
D11*
X114384318Y-99442143D02*
X113114318Y-99442143D01*
X113114318Y-99442143D02*
X113114318Y-98958333D01*
X113114318Y-98958333D02*
X113174794Y-98837381D01*
X113174794Y-98837381D02*
X113235270Y-98776904D01*
X113235270Y-98776904D02*
X113356222Y-98716428D01*
X113356222Y-98716428D02*
X113537651Y-98716428D01*
X113537651Y-98716428D02*
X113658603Y-98776904D01*
X113658603Y-98776904D02*
X113719080Y-98837381D01*
X113719080Y-98837381D02*
X113779556Y-98958333D01*
X113779556Y-98958333D02*
X113779556Y-99442143D01*
X114323842Y-98232619D02*
X114384318Y-98051190D01*
X114384318Y-98051190D02*
X114384318Y-97748809D01*
X114384318Y-97748809D02*
X114323842Y-97627857D01*
X114323842Y-97627857D02*
X114263365Y-97567381D01*
X114263365Y-97567381D02*
X114142413Y-97506904D01*
X114142413Y-97506904D02*
X114021461Y-97506904D01*
X114021461Y-97506904D02*
X113900508Y-97567381D01*
X113900508Y-97567381D02*
X113840032Y-97627857D01*
X113840032Y-97627857D02*
X113779556Y-97748809D01*
X113779556Y-97748809D02*
X113719080Y-97990714D01*
X113719080Y-97990714D02*
X113658603Y-98111666D01*
X113658603Y-98111666D02*
X113598127Y-98172143D01*
X113598127Y-98172143D02*
X113477175Y-98232619D01*
X113477175Y-98232619D02*
X113356222Y-98232619D01*
X113356222Y-98232619D02*
X113235270Y-98172143D01*
X113235270Y-98172143D02*
X113174794Y-98111666D01*
X113174794Y-98111666D02*
X113114318Y-97990714D01*
X113114318Y-97990714D02*
X113114318Y-97688333D01*
X113114318Y-97688333D02*
X113174794Y-97506904D01*
X114384318Y-96297380D02*
X114384318Y-97023095D01*
X114384318Y-96660238D02*
X113114318Y-96660238D01*
X113114318Y-96660238D02*
X113295746Y-96781190D01*
X113295746Y-96781190D02*
X113416699Y-96902142D01*
X113416699Y-96902142D02*
X113477175Y-97023095D01*
D12*
X133154819Y-101463094D02*
X132154819Y-101463094D01*
X132154819Y-101463094D02*
X132154819Y-101224999D01*
X132154819Y-101224999D02*
X132202438Y-101082142D01*
X132202438Y-101082142D02*
X132297676Y-100986904D01*
X132297676Y-100986904D02*
X132392914Y-100939285D01*
X132392914Y-100939285D02*
X132583390Y-100891666D01*
X132583390Y-100891666D02*
X132726247Y-100891666D01*
X132726247Y-100891666D02*
X132916723Y-100939285D01*
X132916723Y-100939285D02*
X133011961Y-100986904D01*
X133011961Y-100986904D02*
X133107200Y-101082142D01*
X133107200Y-101082142D02*
X133154819Y-101224999D01*
X133154819Y-101224999D02*
X133154819Y-101463094D01*
X133154819Y-99939285D02*
X133154819Y-100510713D01*
X133154819Y-100224999D02*
X132154819Y-100224999D01*
X132154819Y-100224999D02*
X132297676Y-100320237D01*
X132297676Y-100320237D02*
X132392914Y-100415475D01*
X132392914Y-100415475D02*
X132440533Y-100510713D01*
X146058333Y-120129580D02*
X146010714Y-120177200D01*
X146010714Y-120177200D02*
X145867857Y-120224819D01*
X145867857Y-120224819D02*
X145772619Y-120224819D01*
X145772619Y-120224819D02*
X145629762Y-120177200D01*
X145629762Y-120177200D02*
X145534524Y-120081961D01*
X145534524Y-120081961D02*
X145486905Y-119986723D01*
X145486905Y-119986723D02*
X145439286Y-119796247D01*
X145439286Y-119796247D02*
X145439286Y-119653390D01*
X145439286Y-119653390D02*
X145486905Y-119462914D01*
X145486905Y-119462914D02*
X145534524Y-119367676D01*
X145534524Y-119367676D02*
X145629762Y-119272438D01*
X145629762Y-119272438D02*
X145772619Y-119224819D01*
X145772619Y-119224819D02*
X145867857Y-119224819D01*
X145867857Y-119224819D02*
X146010714Y-119272438D01*
X146010714Y-119272438D02*
X146058333Y-119320057D01*
X146534524Y-120224819D02*
X146725000Y-120224819D01*
X146725000Y-120224819D02*
X146820238Y-120177200D01*
X146820238Y-120177200D02*
X146867857Y-120129580D01*
X146867857Y-120129580D02*
X146963095Y-119986723D01*
X146963095Y-119986723D02*
X147010714Y-119796247D01*
X147010714Y-119796247D02*
X147010714Y-119415295D01*
X147010714Y-119415295D02*
X146963095Y-119320057D01*
X146963095Y-119320057D02*
X146915476Y-119272438D01*
X146915476Y-119272438D02*
X146820238Y-119224819D01*
X146820238Y-119224819D02*
X146629762Y-119224819D01*
X146629762Y-119224819D02*
X146534524Y-119272438D01*
X146534524Y-119272438D02*
X146486905Y-119320057D01*
X146486905Y-119320057D02*
X146439286Y-119415295D01*
X146439286Y-119415295D02*
X146439286Y-119653390D01*
X146439286Y-119653390D02*
X146486905Y-119748628D01*
X146486905Y-119748628D02*
X146534524Y-119796247D01*
X146534524Y-119796247D02*
X146629762Y-119843866D01*
X146629762Y-119843866D02*
X146820238Y-119843866D01*
X146820238Y-119843866D02*
X146915476Y-119796247D01*
X146915476Y-119796247D02*
X146963095Y-119748628D01*
X146963095Y-119748628D02*
X147010714Y-119653390D01*
X146559580Y-110366666D02*
X146607200Y-110414285D01*
X146607200Y-110414285D02*
X146654819Y-110557142D01*
X146654819Y-110557142D02*
X146654819Y-110652380D01*
X146654819Y-110652380D02*
X146607200Y-110795237D01*
X146607200Y-110795237D02*
X146511961Y-110890475D01*
X146511961Y-110890475D02*
X146416723Y-110938094D01*
X146416723Y-110938094D02*
X146226247Y-110985713D01*
X146226247Y-110985713D02*
X146083390Y-110985713D01*
X146083390Y-110985713D02*
X145892914Y-110938094D01*
X145892914Y-110938094D02*
X145797676Y-110890475D01*
X145797676Y-110890475D02*
X145702438Y-110795237D01*
X145702438Y-110795237D02*
X145654819Y-110652380D01*
X145654819Y-110652380D02*
X145654819Y-110557142D01*
X145654819Y-110557142D02*
X145702438Y-110414285D01*
X145702438Y-110414285D02*
X145750057Y-110366666D01*
X145654819Y-110033332D02*
X145654819Y-109366666D01*
X145654819Y-109366666D02*
X146654819Y-109795237D01*
X148054819Y-110366666D02*
X147578628Y-110699999D01*
X148054819Y-110938094D02*
X147054819Y-110938094D01*
X147054819Y-110938094D02*
X147054819Y-110557142D01*
X147054819Y-110557142D02*
X147102438Y-110461904D01*
X147102438Y-110461904D02*
X147150057Y-110414285D01*
X147150057Y-110414285D02*
X147245295Y-110366666D01*
X147245295Y-110366666D02*
X147388152Y-110366666D01*
X147388152Y-110366666D02*
X147483390Y-110414285D01*
X147483390Y-110414285D02*
X147531009Y-110461904D01*
X147531009Y-110461904D02*
X147578628Y-110557142D01*
X147578628Y-110557142D02*
X147578628Y-110938094D01*
X147150057Y-109985713D02*
X147102438Y-109938094D01*
X147102438Y-109938094D02*
X147054819Y-109842856D01*
X147054819Y-109842856D02*
X147054819Y-109604761D01*
X147054819Y-109604761D02*
X147102438Y-109509523D01*
X147102438Y-109509523D02*
X147150057Y-109461904D01*
X147150057Y-109461904D02*
X147245295Y-109414285D01*
X147245295Y-109414285D02*
X147340533Y-109414285D01*
X147340533Y-109414285D02*
X147483390Y-109461904D01*
X147483390Y-109461904D02*
X148054819Y-110033332D01*
X148054819Y-110033332D02*
X148054819Y-109414285D01*
X132159580Y-108766666D02*
X132207200Y-108814285D01*
X132207200Y-108814285D02*
X132254819Y-108957142D01*
X132254819Y-108957142D02*
X132254819Y-109052380D01*
X132254819Y-109052380D02*
X132207200Y-109195237D01*
X132207200Y-109195237D02*
X132111961Y-109290475D01*
X132111961Y-109290475D02*
X132016723Y-109338094D01*
X132016723Y-109338094D02*
X131826247Y-109385713D01*
X131826247Y-109385713D02*
X131683390Y-109385713D01*
X131683390Y-109385713D02*
X131492914Y-109338094D01*
X131492914Y-109338094D02*
X131397676Y-109290475D01*
X131397676Y-109290475D02*
X131302438Y-109195237D01*
X131302438Y-109195237D02*
X131254819Y-109052380D01*
X131254819Y-109052380D02*
X131254819Y-108957142D01*
X131254819Y-108957142D02*
X131302438Y-108814285D01*
X131302438Y-108814285D02*
X131350057Y-108766666D01*
X131588152Y-107909523D02*
X132254819Y-107909523D01*
X131207200Y-108147618D02*
X131921485Y-108385713D01*
X131921485Y-108385713D02*
X131921485Y-107766666D01*
X92233333Y-101159580D02*
X92185714Y-101207200D01*
X92185714Y-101207200D02*
X92042857Y-101254819D01*
X92042857Y-101254819D02*
X91947619Y-101254819D01*
X91947619Y-101254819D02*
X91804762Y-101207200D01*
X91804762Y-101207200D02*
X91709524Y-101111961D01*
X91709524Y-101111961D02*
X91661905Y-101016723D01*
X91661905Y-101016723D02*
X91614286Y-100826247D01*
X91614286Y-100826247D02*
X91614286Y-100683390D01*
X91614286Y-100683390D02*
X91661905Y-100492914D01*
X91661905Y-100492914D02*
X91709524Y-100397676D01*
X91709524Y-100397676D02*
X91804762Y-100302438D01*
X91804762Y-100302438D02*
X91947619Y-100254819D01*
X91947619Y-100254819D02*
X92042857Y-100254819D01*
X92042857Y-100254819D02*
X92185714Y-100302438D01*
X92185714Y-100302438D02*
X92233333Y-100350057D01*
X93185714Y-101254819D02*
X92614286Y-101254819D01*
X92900000Y-101254819D02*
X92900000Y-100254819D01*
X92900000Y-100254819D02*
X92804762Y-100397676D01*
X92804762Y-100397676D02*
X92709524Y-100492914D01*
X92709524Y-100492914D02*
X92614286Y-100540533D01*
X136959580Y-105766666D02*
X137007200Y-105814285D01*
X137007200Y-105814285D02*
X137054819Y-105957142D01*
X137054819Y-105957142D02*
X137054819Y-106052380D01*
X137054819Y-106052380D02*
X137007200Y-106195237D01*
X137007200Y-106195237D02*
X136911961Y-106290475D01*
X136911961Y-106290475D02*
X136816723Y-106338094D01*
X136816723Y-106338094D02*
X136626247Y-106385713D01*
X136626247Y-106385713D02*
X136483390Y-106385713D01*
X136483390Y-106385713D02*
X136292914Y-106338094D01*
X136292914Y-106338094D02*
X136197676Y-106290475D01*
X136197676Y-106290475D02*
X136102438Y-106195237D01*
X136102438Y-106195237D02*
X136054819Y-106052380D01*
X136054819Y-106052380D02*
X136054819Y-105957142D01*
X136054819Y-105957142D02*
X136102438Y-105814285D01*
X136102438Y-105814285D02*
X136150057Y-105766666D01*
X136054819Y-104861904D02*
X136054819Y-105338094D01*
X136054819Y-105338094D02*
X136531009Y-105385713D01*
X136531009Y-105385713D02*
X136483390Y-105338094D01*
X136483390Y-105338094D02*
X136435771Y-105242856D01*
X136435771Y-105242856D02*
X136435771Y-105004761D01*
X136435771Y-105004761D02*
X136483390Y-104909523D01*
X136483390Y-104909523D02*
X136531009Y-104861904D01*
X136531009Y-104861904D02*
X136626247Y-104814285D01*
X136626247Y-104814285D02*
X136864342Y-104814285D01*
X136864342Y-104814285D02*
X136959580Y-104861904D01*
X136959580Y-104861904D02*
X137007200Y-104909523D01*
X137007200Y-104909523D02*
X137054819Y-105004761D01*
X137054819Y-105004761D02*
X137054819Y-105242856D01*
X137054819Y-105242856D02*
X137007200Y-105338094D01*
X137007200Y-105338094D02*
X136959580Y-105385713D01*
D11*
X110027502Y-60169318D02*
X110027502Y-58899318D01*
X110027502Y-58899318D02*
X110511312Y-58899318D01*
X110511312Y-58899318D02*
X110632264Y-58959794D01*
X110632264Y-58959794D02*
X110692741Y-59020270D01*
X110692741Y-59020270D02*
X110753217Y-59141222D01*
X110753217Y-59141222D02*
X110753217Y-59322651D01*
X110753217Y-59322651D02*
X110692741Y-59443603D01*
X110692741Y-59443603D02*
X110632264Y-59504080D01*
X110632264Y-59504080D02*
X110511312Y-59564556D01*
X110511312Y-59564556D02*
X110027502Y-59564556D01*
X111237026Y-60108842D02*
X111418455Y-60169318D01*
X111418455Y-60169318D02*
X111720836Y-60169318D01*
X111720836Y-60169318D02*
X111841788Y-60108842D01*
X111841788Y-60108842D02*
X111902264Y-60048365D01*
X111902264Y-60048365D02*
X111962741Y-59927413D01*
X111962741Y-59927413D02*
X111962741Y-59806461D01*
X111962741Y-59806461D02*
X111902264Y-59685508D01*
X111902264Y-59685508D02*
X111841788Y-59625032D01*
X111841788Y-59625032D02*
X111720836Y-59564556D01*
X111720836Y-59564556D02*
X111478931Y-59504080D01*
X111478931Y-59504080D02*
X111357979Y-59443603D01*
X111357979Y-59443603D02*
X111297502Y-59383127D01*
X111297502Y-59383127D02*
X111237026Y-59262175D01*
X111237026Y-59262175D02*
X111237026Y-59141222D01*
X111237026Y-59141222D02*
X111297502Y-59020270D01*
X111297502Y-59020270D02*
X111357979Y-58959794D01*
X111357979Y-58959794D02*
X111478931Y-58899318D01*
X111478931Y-58899318D02*
X111781312Y-58899318D01*
X111781312Y-58899318D02*
X111962741Y-58959794D01*
X112446550Y-59020270D02*
X112507026Y-58959794D01*
X112507026Y-58959794D02*
X112627979Y-58899318D01*
X112627979Y-58899318D02*
X112930360Y-58899318D01*
X112930360Y-58899318D02*
X113051312Y-58959794D01*
X113051312Y-58959794D02*
X113111788Y-59020270D01*
X113111788Y-59020270D02*
X113172265Y-59141222D01*
X113172265Y-59141222D02*
X113172265Y-59262175D01*
X113172265Y-59262175D02*
X113111788Y-59443603D01*
X113111788Y-59443603D02*
X112386074Y-60169318D01*
X112386074Y-60169318D02*
X113172265Y-60169318D01*
D12*
X79266666Y-112654819D02*
X79266666Y-113369104D01*
X79266666Y-113369104D02*
X79219047Y-113511961D01*
X79219047Y-113511961D02*
X79123809Y-113607200D01*
X79123809Y-113607200D02*
X78980952Y-113654819D01*
X78980952Y-113654819D02*
X78885714Y-113654819D01*
X79695238Y-112750057D02*
X79742857Y-112702438D01*
X79742857Y-112702438D02*
X79838095Y-112654819D01*
X79838095Y-112654819D02*
X80076190Y-112654819D01*
X80076190Y-112654819D02*
X80171428Y-112702438D01*
X80171428Y-112702438D02*
X80219047Y-112750057D01*
X80219047Y-112750057D02*
X80266666Y-112845295D01*
X80266666Y-112845295D02*
X80266666Y-112940533D01*
X80266666Y-112940533D02*
X80219047Y-113083390D01*
X80219047Y-113083390D02*
X79647619Y-113654819D01*
X79647619Y-113654819D02*
X80266666Y-113654819D01*
X145654819Y-114166666D02*
X145654819Y-114642856D01*
X145654819Y-114642856D02*
X144654819Y-114642856D01*
X145654819Y-113309523D02*
X145654819Y-113880951D01*
X145654819Y-113595237D02*
X144654819Y-113595237D01*
X144654819Y-113595237D02*
X144797676Y-113690475D01*
X144797676Y-113690475D02*
X144892914Y-113785713D01*
X144892914Y-113785713D02*
X144940533Y-113880951D01*
D11*
X111574318Y-121039762D02*
X110304318Y-121039762D01*
X111453365Y-119709285D02*
X111513842Y-119769761D01*
X111513842Y-119769761D02*
X111574318Y-119951190D01*
X111574318Y-119951190D02*
X111574318Y-120072142D01*
X111574318Y-120072142D02*
X111513842Y-120253571D01*
X111513842Y-120253571D02*
X111392889Y-120374523D01*
X111392889Y-120374523D02*
X111271937Y-120435000D01*
X111271937Y-120435000D02*
X111030032Y-120495476D01*
X111030032Y-120495476D02*
X110848603Y-120495476D01*
X110848603Y-120495476D02*
X110606699Y-120435000D01*
X110606699Y-120435000D02*
X110485746Y-120374523D01*
X110485746Y-120374523D02*
X110364794Y-120253571D01*
X110364794Y-120253571D02*
X110304318Y-120072142D01*
X110304318Y-120072142D02*
X110304318Y-119951190D01*
X110304318Y-119951190D02*
X110364794Y-119769761D01*
X110364794Y-119769761D02*
X110425270Y-119709285D01*
X111574318Y-118499761D02*
X111574318Y-119225476D01*
X111574318Y-118862619D02*
X110304318Y-118862619D01*
X110304318Y-118862619D02*
X110485746Y-118983571D01*
X110485746Y-118983571D02*
X110606699Y-119104523D01*
X110606699Y-119104523D02*
X110667175Y-119225476D01*
D12*
X142038095Y-122054819D02*
X142038095Y-122864342D01*
X142038095Y-122864342D02*
X142085714Y-122959580D01*
X142085714Y-122959580D02*
X142133333Y-123007200D01*
X142133333Y-123007200D02*
X142228571Y-123054819D01*
X142228571Y-123054819D02*
X142419047Y-123054819D01*
X142419047Y-123054819D02*
X142514285Y-123007200D01*
X142514285Y-123007200D02*
X142561904Y-122959580D01*
X142561904Y-122959580D02*
X142609523Y-122864342D01*
X142609523Y-122864342D02*
X142609523Y-122054819D01*
X143038095Y-122150057D02*
X143085714Y-122102438D01*
X143085714Y-122102438D02*
X143180952Y-122054819D01*
X143180952Y-122054819D02*
X143419047Y-122054819D01*
X143419047Y-122054819D02*
X143514285Y-122102438D01*
X143514285Y-122102438D02*
X143561904Y-122150057D01*
X143561904Y-122150057D02*
X143609523Y-122245295D01*
X143609523Y-122245295D02*
X143609523Y-122340533D01*
X143609523Y-122340533D02*
X143561904Y-122483390D01*
X143561904Y-122483390D02*
X142990476Y-123054819D01*
X142990476Y-123054819D02*
X143609523Y-123054819D01*
X134959580Y-116766666D02*
X135007200Y-116814285D01*
X135007200Y-116814285D02*
X135054819Y-116957142D01*
X135054819Y-116957142D02*
X135054819Y-117052380D01*
X135054819Y-117052380D02*
X135007200Y-117195237D01*
X135007200Y-117195237D02*
X134911961Y-117290475D01*
X134911961Y-117290475D02*
X134816723Y-117338094D01*
X134816723Y-117338094D02*
X134626247Y-117385713D01*
X134626247Y-117385713D02*
X134483390Y-117385713D01*
X134483390Y-117385713D02*
X134292914Y-117338094D01*
X134292914Y-117338094D02*
X134197676Y-117290475D01*
X134197676Y-117290475D02*
X134102438Y-117195237D01*
X134102438Y-117195237D02*
X134054819Y-117052380D01*
X134054819Y-117052380D02*
X134054819Y-116957142D01*
X134054819Y-116957142D02*
X134102438Y-116814285D01*
X134102438Y-116814285D02*
X134150057Y-116766666D01*
X134483390Y-116195237D02*
X134435771Y-116290475D01*
X134435771Y-116290475D02*
X134388152Y-116338094D01*
X134388152Y-116338094D02*
X134292914Y-116385713D01*
X134292914Y-116385713D02*
X134245295Y-116385713D01*
X134245295Y-116385713D02*
X134150057Y-116338094D01*
X134150057Y-116338094D02*
X134102438Y-116290475D01*
X134102438Y-116290475D02*
X134054819Y-116195237D01*
X134054819Y-116195237D02*
X134054819Y-116004761D01*
X134054819Y-116004761D02*
X134102438Y-115909523D01*
X134102438Y-115909523D02*
X134150057Y-115861904D01*
X134150057Y-115861904D02*
X134245295Y-115814285D01*
X134245295Y-115814285D02*
X134292914Y-115814285D01*
X134292914Y-115814285D02*
X134388152Y-115861904D01*
X134388152Y-115861904D02*
X134435771Y-115909523D01*
X134435771Y-115909523D02*
X134483390Y-116004761D01*
X134483390Y-116004761D02*
X134483390Y-116195237D01*
X134483390Y-116195237D02*
X134531009Y-116290475D01*
X134531009Y-116290475D02*
X134578628Y-116338094D01*
X134578628Y-116338094D02*
X134673866Y-116385713D01*
X134673866Y-116385713D02*
X134864342Y-116385713D01*
X134864342Y-116385713D02*
X134959580Y-116338094D01*
X134959580Y-116338094D02*
X135007200Y-116290475D01*
X135007200Y-116290475D02*
X135054819Y-116195237D01*
X135054819Y-116195237D02*
X135054819Y-116004761D01*
X135054819Y-116004761D02*
X135007200Y-115909523D01*
X135007200Y-115909523D02*
X134959580Y-115861904D01*
X134959580Y-115861904D02*
X134864342Y-115814285D01*
X134864342Y-115814285D02*
X134673866Y-115814285D01*
X134673866Y-115814285D02*
X134578628Y-115861904D01*
X134578628Y-115861904D02*
X134531009Y-115909523D01*
X134531009Y-115909523D02*
X134483390Y-116004761D01*
D13*
%TO.C,U1*%
X74500500Y-88350000D02*
X74500500Y-91800000D01*
X74500500Y-97200000D02*
X74500500Y-94000000D01*
X95100500Y-88350000D02*
X74500500Y-88350000D01*
X95100500Y-91600000D02*
X95100500Y-88350000D01*
X95100500Y-93800000D02*
X95100500Y-97250000D01*
X95100500Y-97250000D02*
X74500500Y-97200000D01*
D14*
%TO.C,R3*%
X144147742Y-106892500D02*
X144622258Y-106892500D01*
X144147742Y-107937500D02*
X144622258Y-107937500D01*
%TO.C,SW2*%
X130100000Y-119700000D02*
X131100000Y-119700000D01*
X130100000Y-120700000D02*
X130100000Y-119700000D01*
X132100000Y-121700000D02*
X132100000Y-124300000D01*
X138100000Y-119750000D02*
X132300000Y-119750000D01*
X138200000Y-126250000D02*
X132200000Y-126250000D01*
X138300000Y-121700000D02*
X138300000Y-124300000D01*
%TO.C,C2*%
X139090000Y-102636252D02*
X139090000Y-101213748D01*
X140910000Y-102636252D02*
X140910000Y-101213748D01*
D15*
%TO.C,IC2*%
X138360000Y-108490000D02*
X141260000Y-108490000D01*
X138360000Y-109040000D02*
X138360000Y-108490000D01*
X141260000Y-108490000D02*
X141260000Y-109040000D01*
X141260000Y-109040000D02*
X138360000Y-109040000D01*
X141410000Y-106890000D02*
X141410000Y-108140000D01*
D14*
%TO.C,J1*%
X69540000Y-119090000D02*
X69540000Y-121090000D01*
X69780000Y-119330000D02*
X69780000Y-131070000D01*
X71780000Y-119090000D02*
X69540000Y-119090000D01*
X72800000Y-119330000D02*
X72800000Y-131070000D01*
X74400000Y-121450000D02*
X74400000Y-125450000D01*
X74400000Y-126450000D02*
X74400000Y-130450000D01*
X74620000Y-120950000D02*
X69780000Y-120950000D01*
X74620000Y-121450000D02*
X74400000Y-121450000D01*
X74620000Y-125950000D02*
X69780000Y-125950000D01*
X74620000Y-126450000D02*
X74400000Y-126450000D01*
X76100000Y-123680000D02*
X76100000Y-125450000D01*
X76100000Y-128680000D02*
X76100000Y-130450000D01*
X77100000Y-123680000D02*
X77100000Y-125450000D01*
X77100000Y-125450000D02*
X76100000Y-125450000D01*
X77100000Y-128680000D02*
X77100000Y-130450000D01*
X77100000Y-130450000D02*
X76100000Y-130450000D01*
X78800000Y-121450000D02*
X78580000Y-121450000D01*
X78800000Y-121450000D02*
X78800000Y-125450000D01*
X78800000Y-125450000D02*
X74400000Y-125450000D01*
X78800000Y-126450000D02*
X78580000Y-126450000D01*
X78800000Y-126450000D02*
X78800000Y-130450000D01*
X78800000Y-130450000D02*
X74400000Y-130450000D01*
X79620000Y-125950000D02*
X78580000Y-125950000D01*
X79620000Y-131070000D02*
X69780000Y-131070000D01*
X85020000Y-119330000D02*
X69780000Y-119330000D01*
X85020000Y-119330000D02*
X85020000Y-131070000D01*
X85020000Y-120950000D02*
X78580000Y-120950000D01*
X85020000Y-125950000D02*
X83580000Y-125950000D01*
X85020000Y-131070000D02*
X83580000Y-131070000D01*
X71349576Y-121999135D02*
G75*
G02*
X71349000Y-124901000I-339576J-1450865D01*
G01*
X71349576Y-126999135D02*
G75*
G02*
X71349000Y-129901000I-339576J-1450865D01*
G01*
X71350000Y-124899999D02*
G75*
G02*
X71349867Y-122000032I339000J1449999D01*
G01*
X71350000Y-129899999D02*
G75*
G02*
X71349867Y-127000032I339000J1449999D01*
G01*
X80864067Y-123240798D02*
G75*
G02*
X83579000Y-124311000I1485933J-209202D01*
G01*
X80864067Y-128240798D02*
G75*
G02*
X83579000Y-129311000I1485933J-209202D01*
G01*
%TO.C,C6*%
X136025000Y-114726252D02*
X136025000Y-113303748D01*
X138745000Y-114726252D02*
X138745000Y-113303748D01*
%TO.C,C3*%
X136419000Y-91999000D02*
X136419000Y-90801000D01*
X136459000Y-92262000D02*
X136459000Y-90538000D01*
X136499000Y-92462000D02*
X136499000Y-90338000D01*
X136539000Y-92630000D02*
X136539000Y-90170000D01*
X136579000Y-92778000D02*
X136579000Y-90022000D01*
X136619000Y-92910000D02*
X136619000Y-89890000D01*
X136659000Y-93030000D02*
X136659000Y-89770000D01*
X136699000Y-93142000D02*
X136699000Y-89658000D01*
X136739000Y-93246000D02*
X136739000Y-89554000D01*
X136779000Y-93344000D02*
X136779000Y-89456000D01*
X136819000Y-93437000D02*
X136819000Y-89363000D01*
X136859000Y-93525000D02*
X136859000Y-89275000D01*
X136899000Y-93609000D02*
X136899000Y-89191000D01*
X136939000Y-93689000D02*
X136939000Y-89111000D01*
X136979000Y-93765000D02*
X136979000Y-89035000D01*
X137019000Y-93839000D02*
X137019000Y-88961000D01*
X137059000Y-93910000D02*
X137059000Y-88890000D01*
X137099000Y-93979000D02*
X137099000Y-88821000D01*
X137139000Y-94045000D02*
X137139000Y-88755000D01*
X137179000Y-94109000D02*
X137179000Y-88691000D01*
X137219000Y-94170000D02*
X137219000Y-88630000D01*
X137259000Y-94230000D02*
X137259000Y-88570000D01*
X137299000Y-94289000D02*
X137299000Y-88511000D01*
X137339000Y-94345000D02*
X137339000Y-88455000D01*
X137379000Y-94400000D02*
X137379000Y-88400000D01*
X137419000Y-94454000D02*
X137419000Y-88346000D01*
X137459000Y-94506000D02*
X137459000Y-88294000D01*
X137499000Y-94556000D02*
X137499000Y-88244000D01*
X137539000Y-94606000D02*
X137539000Y-88194000D01*
X137579000Y-94654000D02*
X137579000Y-88146000D01*
X137619000Y-94701000D02*
X137619000Y-88099000D01*
X137659000Y-94747000D02*
X137659000Y-88053000D01*
X137699000Y-94792000D02*
X137699000Y-88008000D01*
X137739000Y-94836000D02*
X137739000Y-87964000D01*
X137779000Y-90159000D02*
X137779000Y-87922000D01*
X137779000Y-94878000D02*
X137779000Y-92641000D01*
X137819000Y-90159000D02*
X137819000Y-87880000D01*
X137819000Y-94920000D02*
X137819000Y-92641000D01*
X137859000Y-90159000D02*
X137859000Y-87839000D01*
X137859000Y-94961000D02*
X137859000Y-92641000D01*
X137899000Y-90159000D02*
X137899000Y-87799000D01*
X137899000Y-95001000D02*
X137899000Y-92641000D01*
X137939000Y-90159000D02*
X137939000Y-87760000D01*
X137939000Y-95040000D02*
X137939000Y-92641000D01*
X137979000Y-90159000D02*
X137979000Y-87721000D01*
X137979000Y-95079000D02*
X137979000Y-92641000D01*
X138019000Y-90159000D02*
X138019000Y-87684000D01*
X138019000Y-95116000D02*
X138019000Y-92641000D01*
X138059000Y-90159000D02*
X138059000Y-87647000D01*
X138059000Y-95153000D02*
X138059000Y-92641000D01*
X138099000Y-90159000D02*
X138099000Y-87611000D01*
X138099000Y-95189000D02*
X138099000Y-92641000D01*
X138139000Y-90159000D02*
X138139000Y-87576000D01*
X138139000Y-95224000D02*
X138139000Y-92641000D01*
X138179000Y-90159000D02*
X138179000Y-87542000D01*
X138179000Y-95258000D02*
X138179000Y-92641000D01*
X138219000Y-90159000D02*
X138219000Y-87508000D01*
X138219000Y-95292000D02*
X138219000Y-92641000D01*
X138259000Y-90159000D02*
X138259000Y-87475000D01*
X138259000Y-95325000D02*
X138259000Y-92641000D01*
X138299000Y-90159000D02*
X138299000Y-87443000D01*
X138299000Y-95357000D02*
X138299000Y-92641000D01*
X138339000Y-90159000D02*
X138339000Y-87411000D01*
X138339000Y-95389000D02*
X138339000Y-92641000D01*
X138379000Y-90159000D02*
X138379000Y-87380000D01*
X138379000Y-95420000D02*
X138379000Y-92641000D01*
X138419000Y-90159000D02*
X138419000Y-87350000D01*
X138419000Y-95450000D02*
X138419000Y-92641000D01*
X138459000Y-90159000D02*
X138459000Y-87320000D01*
X138459000Y-95480000D02*
X138459000Y-92641000D01*
X138499000Y-90159000D02*
X138499000Y-87290000D01*
X138499000Y-95510000D02*
X138499000Y-92641000D01*
X138539000Y-90159000D02*
X138539000Y-87262000D01*
X138539000Y-95538000D02*
X138539000Y-92641000D01*
X138579000Y-90159000D02*
X138579000Y-87234000D01*
X138579000Y-95566000D02*
X138579000Y-92641000D01*
X138619000Y-90159000D02*
X138619000Y-87206000D01*
X138619000Y-95594000D02*
X138619000Y-92641000D01*
X138659000Y-90159000D02*
X138659000Y-87179000D01*
X138659000Y-95621000D02*
X138659000Y-92641000D01*
X138699000Y-90159000D02*
X138699000Y-87153000D01*
X138699000Y-95647000D02*
X138699000Y-92641000D01*
X138739000Y-90159000D02*
X138739000Y-87127000D01*
X138739000Y-95673000D02*
X138739000Y-92641000D01*
X138779000Y-90159000D02*
X138779000Y-87102000D01*
X138779000Y-95698000D02*
X138779000Y-92641000D01*
X138819000Y-90159000D02*
X138819000Y-87077000D01*
X138819000Y-95723000D02*
X138819000Y-92641000D01*
X138859000Y-90159000D02*
X138859000Y-87053000D01*
X138859000Y-95747000D02*
X138859000Y-92641000D01*
X138899000Y-90159000D02*
X138899000Y-87029000D01*
X138899000Y-95771000D02*
X138899000Y-92641000D01*
X138939000Y-90159000D02*
X138939000Y-87005000D01*
X138939000Y-95795000D02*
X138939000Y-92641000D01*
X138979000Y-90159000D02*
X138979000Y-86983000D01*
X138979000Y-95817000D02*
X138979000Y-92641000D01*
X139019000Y-90159000D02*
X139019000Y-86960000D01*
X139019000Y-95840000D02*
X139019000Y-92641000D01*
X139059000Y-90159000D02*
X139059000Y-86938000D01*
X139059000Y-95862000D02*
X139059000Y-92641000D01*
X139099000Y-90159000D02*
X139099000Y-86917000D01*
X139099000Y-95883000D02*
X139099000Y-92641000D01*
X139139000Y-90159000D02*
X139139000Y-86896000D01*
X139139000Y-95904000D02*
X139139000Y-92641000D01*
X139179000Y-90159000D02*
X139179000Y-86875000D01*
X139179000Y-95925000D02*
X139179000Y-92641000D01*
X139219000Y-90159000D02*
X139219000Y-86855000D01*
X139219000Y-95945000D02*
X139219000Y-92641000D01*
X139259000Y-90159000D02*
X139259000Y-86836000D01*
X139259000Y-95964000D02*
X139259000Y-92641000D01*
X139299000Y-90159000D02*
X139299000Y-86816000D01*
X139299000Y-95984000D02*
X139299000Y-92641000D01*
X139339000Y-90159000D02*
X139339000Y-86797000D01*
X139339000Y-96003000D02*
X139339000Y-92641000D01*
X139379000Y-90159000D02*
X139379000Y-86779000D01*
X139379000Y-96021000D02*
X139379000Y-92641000D01*
X139419000Y-90159000D02*
X139419000Y-86761000D01*
X139419000Y-96039000D02*
X139419000Y-92641000D01*
X139459000Y-90159000D02*
X139459000Y-86743000D01*
X139459000Y-96057000D02*
X139459000Y-92641000D01*
X139499000Y-90159000D02*
X139499000Y-86726000D01*
X139499000Y-96074000D02*
X139499000Y-92641000D01*
X139539000Y-90159000D02*
X139539000Y-86710000D01*
X139539000Y-96090000D02*
X139539000Y-92641000D01*
X139579000Y-90159000D02*
X139579000Y-86693000D01*
X139579000Y-96107000D02*
X139579000Y-92641000D01*
X139619000Y-90159000D02*
X139619000Y-86677000D01*
X139619000Y-96123000D02*
X139619000Y-92641000D01*
X139659000Y-90159000D02*
X139659000Y-86662000D01*
X139659000Y-96138000D02*
X139659000Y-92641000D01*
X139699000Y-90159000D02*
X139699000Y-86646000D01*
X139699000Y-96154000D02*
X139699000Y-92641000D01*
X139739000Y-90159000D02*
X139739000Y-86632000D01*
X139739000Y-96168000D02*
X139739000Y-92641000D01*
X139779000Y-90159000D02*
X139779000Y-86617000D01*
X139779000Y-96183000D02*
X139779000Y-92641000D01*
X139819000Y-90159000D02*
X139819000Y-86603000D01*
X139819000Y-96197000D02*
X139819000Y-92641000D01*
X139859000Y-90159000D02*
X139859000Y-86589000D01*
X139859000Y-96211000D02*
X139859000Y-92641000D01*
X139899000Y-90159000D02*
X139899000Y-86576000D01*
X139899000Y-96224000D02*
X139899000Y-92641000D01*
X139939000Y-90159000D02*
X139939000Y-86563000D01*
X139939000Y-96237000D02*
X139939000Y-92641000D01*
X139979000Y-90159000D02*
X139979000Y-86550000D01*
X139979000Y-96250000D02*
X139979000Y-92641000D01*
X140019000Y-90159000D02*
X140019000Y-86538000D01*
X140019000Y-96262000D02*
X140019000Y-92641000D01*
X140059000Y-90159000D02*
X140059000Y-86526000D01*
X140059000Y-96274000D02*
X140059000Y-92641000D01*
X140099000Y-90159000D02*
X140099000Y-86515000D01*
X140099000Y-96285000D02*
X140099000Y-92641000D01*
X140139000Y-90159000D02*
X140139000Y-86503000D01*
X140139000Y-96297000D02*
X140139000Y-92641000D01*
X140179000Y-90159000D02*
X140179000Y-86493000D01*
X140179000Y-96307000D02*
X140179000Y-92641000D01*
X140219000Y-90159000D02*
X140219000Y-86482000D01*
X140219000Y-96318000D02*
X140219000Y-92641000D01*
X140259000Y-96328000D02*
X140259000Y-86472000D01*
X140299000Y-96338000D02*
X140299000Y-86462000D01*
X140339000Y-96347000D02*
X140339000Y-86453000D01*
X140379000Y-96356000D02*
X140379000Y-86444000D01*
X140419000Y-96365000D02*
X140419000Y-86435000D01*
X140459000Y-96374000D02*
X140459000Y-86426000D01*
X140499000Y-96382000D02*
X140499000Y-86418000D01*
X140539000Y-96390000D02*
X140539000Y-86410000D01*
X140579000Y-96397000D02*
X140579000Y-86403000D01*
X140619000Y-96404000D02*
X140619000Y-86396000D01*
X140659000Y-96411000D02*
X140659000Y-86389000D01*
X140699000Y-96418000D02*
X140699000Y-86382000D01*
X140739000Y-96424000D02*
X140739000Y-86376000D01*
X140779000Y-96430000D02*
X140779000Y-86370000D01*
X140820000Y-96435000D02*
X140820000Y-86365000D01*
X140860000Y-96440000D02*
X140860000Y-86360000D01*
X140900000Y-96445000D02*
X140900000Y-86355000D01*
X140940000Y-96450000D02*
X140940000Y-86350000D01*
X140980000Y-96454000D02*
X140980000Y-86346000D01*
X141020000Y-96458000D02*
X141020000Y-86342000D01*
X141060000Y-96462000D02*
X141060000Y-86338000D01*
X141100000Y-96465000D02*
X141100000Y-86335000D01*
X141140000Y-96468000D02*
X141140000Y-86332000D01*
X141180000Y-96470000D02*
X141180000Y-86330000D01*
X141220000Y-96473000D02*
X141220000Y-86327000D01*
X141260000Y-96475000D02*
X141260000Y-86325000D01*
X141300000Y-96477000D02*
X141300000Y-86323000D01*
X141340000Y-96478000D02*
X141340000Y-86322000D01*
X141380000Y-96479000D02*
X141380000Y-86321000D01*
X141420000Y-96480000D02*
X141420000Y-86320000D01*
X141460000Y-96480000D02*
X141460000Y-86320000D01*
X141500000Y-96480000D02*
X141500000Y-86320000D01*
X146479646Y-94775000D02*
X146479646Y-93775000D01*
X146979646Y-94275000D02*
X145979646Y-94275000D01*
X146620000Y-91400000D02*
G75*
G02*
X136380000Y-91400000I-5120000J0D01*
G01*
X136380000Y-91400000D02*
G75*
G02*
X146620000Y-91400000I5120000J0D01*
G01*
D15*
%TO.C,PS1*%
X97760000Y-87650000D02*
X97760000Y-108150000D01*
X97760000Y-108150000D02*
X129860000Y-108150000D01*
D13*
X127800000Y-87080000D02*
X127800000Y-87080000D01*
X127800000Y-87180000D02*
X127800000Y-87180000D01*
D15*
X129860000Y-87680000D02*
X97760000Y-87650000D01*
X129860000Y-91880000D02*
X129860000Y-87680000D01*
X129860000Y-108150000D02*
X129860000Y-91480000D01*
D13*
X127800000Y-87080000D02*
G75*
G02*
X127800000Y-87180000I0J-50000D01*
G01*
X127800000Y-87180000D02*
G75*
G02*
X127800000Y-87080000I0J50000D01*
G01*
D14*
%TO.C,D1*%
X133550000Y-104235000D02*
X133550000Y-98725000D01*
X133550000Y-104235000D02*
X136850000Y-104235000D01*
X136850000Y-104235000D02*
X136850000Y-98725000D01*
%TO.C,C9*%
X146084420Y-120690000D02*
X146365580Y-120690000D01*
X146084420Y-121710000D02*
X146365580Y-121710000D01*
%TO.C,C7*%
X142075000Y-109874420D02*
X142075000Y-110155580D01*
X143095000Y-109874420D02*
X143095000Y-110155580D01*
%TO.C,R2*%
X144062500Y-110252258D02*
X144062500Y-109777742D01*
X145107500Y-110252258D02*
X145107500Y-109777742D01*
%TO.C,C4*%
X132890000Y-108103748D02*
X132890000Y-109526252D01*
X134710000Y-108103748D02*
X134710000Y-109526252D01*
%TO.C,C1*%
X88970000Y-105052380D02*
X95430000Y-105052380D01*
X88970000Y-105092380D02*
X95430000Y-105092380D01*
X88970000Y-105132380D02*
X95430000Y-105132380D01*
X88972000Y-105012380D02*
X95428000Y-105012380D01*
X88973000Y-104972380D02*
X95427000Y-104972380D01*
X88976000Y-104932380D02*
X95424000Y-104932380D01*
X88978000Y-104892380D02*
X91160000Y-104892380D01*
X88982000Y-104852380D02*
X91160000Y-104852380D01*
X88985000Y-104812380D02*
X91160000Y-104812380D01*
X88989000Y-104772380D02*
X91160000Y-104772380D01*
X88994000Y-104732380D02*
X91160000Y-104732380D01*
X88999000Y-104692380D02*
X91160000Y-104692380D01*
X89005000Y-104652380D02*
X91160000Y-104652380D01*
X89011000Y-104612380D02*
X91160000Y-104612380D01*
X89018000Y-104572380D02*
X91160000Y-104572380D01*
X89025000Y-104532380D02*
X91160000Y-104532380D01*
X89033000Y-104492380D02*
X91160000Y-104492380D01*
X89041000Y-104452380D02*
X91160000Y-104452380D01*
X89050000Y-104411380D02*
X91160000Y-104411380D01*
X89059000Y-104371380D02*
X91160000Y-104371380D01*
X89069000Y-104331380D02*
X91160000Y-104331380D01*
X89079000Y-104291380D02*
X91160000Y-104291380D01*
X89090000Y-104251380D02*
X91160000Y-104251380D01*
X89102000Y-104211380D02*
X91160000Y-104211380D01*
X89114000Y-104171380D02*
X91160000Y-104171380D01*
X89126000Y-104131380D02*
X91160000Y-104131380D01*
X89139000Y-104091380D02*
X91160000Y-104091380D01*
X89153000Y-104051380D02*
X91160000Y-104051380D01*
X89167000Y-104011380D02*
X91160000Y-104011380D01*
X89182000Y-103971380D02*
X91160000Y-103971380D01*
X89198000Y-103931380D02*
X91160000Y-103931380D01*
X89214000Y-103891380D02*
X91160000Y-103891380D01*
X89230000Y-103851380D02*
X91160000Y-103851380D01*
X89248000Y-103811380D02*
X91160000Y-103811380D01*
X89266000Y-103771380D02*
X91160000Y-103771380D01*
X89284000Y-103731380D02*
X91160000Y-103731380D01*
X89304000Y-103691380D02*
X91160000Y-103691380D01*
X89324000Y-103651380D02*
X91160000Y-103651380D01*
X89344000Y-103611380D02*
X91160000Y-103611380D01*
X89366000Y-103571380D02*
X91160000Y-103571380D01*
X89388000Y-103531380D02*
X91160000Y-103531380D01*
X89410000Y-103491380D02*
X91160000Y-103491380D01*
X89434000Y-103451380D02*
X91160000Y-103451380D01*
X89458000Y-103411380D02*
X91160000Y-103411380D01*
X89484000Y-103371380D02*
X91160000Y-103371380D01*
X89510000Y-103331380D02*
X91160000Y-103331380D01*
X89536000Y-103291380D02*
X91160000Y-103291380D01*
X89564000Y-103251380D02*
X91160000Y-103251380D01*
X89593000Y-103211380D02*
X91160000Y-103211380D01*
X89622000Y-103171380D02*
X91160000Y-103171380D01*
X89652000Y-103131380D02*
X91160000Y-103131380D01*
X89684000Y-103091380D02*
X91160000Y-103091380D01*
X89716000Y-103051380D02*
X91160000Y-103051380D01*
X89750000Y-103011380D02*
X91160000Y-103011380D01*
X89784000Y-102971380D02*
X91160000Y-102971380D01*
X89820000Y-102931380D02*
X91160000Y-102931380D01*
X89857000Y-102891380D02*
X91160000Y-102891380D01*
X89895000Y-102851380D02*
X91160000Y-102851380D01*
X89935000Y-102811380D02*
X94465000Y-102811380D01*
X89976000Y-102771380D02*
X94424000Y-102771380D01*
X90018000Y-102731380D02*
X94382000Y-102731380D01*
X90046000Y-108317621D02*
X90676000Y-108317621D01*
X90063000Y-102691380D02*
X94337000Y-102691380D01*
X90108000Y-102651380D02*
X94292000Y-102651380D01*
X90156000Y-102611380D02*
X94244000Y-102611380D01*
X90205000Y-102571380D02*
X94195000Y-102571380D01*
X90256000Y-102531380D02*
X94144000Y-102531380D01*
X90310000Y-102491380D02*
X94090000Y-102491380D01*
X90361000Y-108632621D02*
X90361000Y-108002621D01*
X90366000Y-102451380D02*
X94034000Y-102451380D01*
X90424000Y-102411380D02*
X93976000Y-102411380D01*
X90486000Y-102371380D02*
X93914000Y-102371380D01*
X90550000Y-102331380D02*
X93850000Y-102331380D01*
X90619000Y-102291380D02*
X93781000Y-102291380D01*
X90691000Y-102251380D02*
X93709000Y-102251380D01*
X90768000Y-102211380D02*
X93632000Y-102211380D01*
X90850000Y-102171380D02*
X93550000Y-102171380D01*
X90938000Y-102131380D02*
X93462000Y-102131380D01*
X91035000Y-102091380D02*
X93365000Y-102091380D01*
X91141000Y-102051380D02*
X93259000Y-102051380D01*
X91260000Y-102011380D02*
X93140000Y-102011380D01*
X91398000Y-101971380D02*
X93002000Y-101971380D01*
X91567000Y-101931380D02*
X92833000Y-101931380D01*
X91798000Y-101891380D02*
X92602000Y-101891380D01*
X93240000Y-102851380D02*
X94505000Y-102851380D01*
X93240000Y-102891380D02*
X94543000Y-102891380D01*
X93240000Y-102931380D02*
X94580000Y-102931380D01*
X93240000Y-102971380D02*
X94616000Y-102971380D01*
X93240000Y-103011380D02*
X94650000Y-103011380D01*
X93240000Y-103051380D02*
X94684000Y-103051380D01*
X93240000Y-103091380D02*
X94716000Y-103091380D01*
X93240000Y-103131380D02*
X94748000Y-103131380D01*
X93240000Y-103171380D02*
X94778000Y-103171380D01*
X93240000Y-103211380D02*
X94807000Y-103211380D01*
X93240000Y-103251380D02*
X94836000Y-103251380D01*
X93240000Y-103291380D02*
X94864000Y-103291380D01*
X93240000Y-103331380D02*
X94890000Y-103331380D01*
X93240000Y-103371380D02*
X94916000Y-103371380D01*
X93240000Y-103411380D02*
X94942000Y-103411380D01*
X93240000Y-103451380D02*
X94966000Y-103451380D01*
X93240000Y-103491380D02*
X94990000Y-103491380D01*
X93240000Y-103531380D02*
X95012000Y-103531380D01*
X93240000Y-103571380D02*
X95034000Y-103571380D01*
X93240000Y-103611380D02*
X95056000Y-103611380D01*
X93240000Y-103651380D02*
X95076000Y-103651380D01*
X93240000Y-103691380D02*
X95096000Y-103691380D01*
X93240000Y-103731380D02*
X95116000Y-103731380D01*
X93240000Y-103771380D02*
X95134000Y-103771380D01*
X93240000Y-103811380D02*
X95152000Y-103811380D01*
X93240000Y-103851380D02*
X95170000Y-103851380D01*
X93240000Y-103891380D02*
X95186000Y-103891380D01*
X93240000Y-103931380D02*
X95202000Y-103931380D01*
X93240000Y-103971380D02*
X95218000Y-103971380D01*
X93240000Y-104011380D02*
X95233000Y-104011380D01*
X93240000Y-104051380D02*
X95247000Y-104051380D01*
X93240000Y-104091380D02*
X95261000Y-104091380D01*
X93240000Y-104131380D02*
X95274000Y-104131380D01*
X93240000Y-104171380D02*
X95286000Y-104171380D01*
X93240000Y-104211380D02*
X95298000Y-104211380D01*
X93240000Y-104251380D02*
X95310000Y-104251380D01*
X93240000Y-104291380D02*
X95321000Y-104291380D01*
X93240000Y-104331380D02*
X95331000Y-104331380D01*
X93240000Y-104371380D02*
X95341000Y-104371380D01*
X93240000Y-104411380D02*
X95350000Y-104411380D01*
X93240000Y-104452380D02*
X95359000Y-104452380D01*
X93240000Y-104492380D02*
X95367000Y-104492380D01*
X93240000Y-104532380D02*
X95375000Y-104532380D01*
X93240000Y-104572380D02*
X95382000Y-104572380D01*
X93240000Y-104612380D02*
X95389000Y-104612380D01*
X93240000Y-104652380D02*
X95395000Y-104652380D01*
X93240000Y-104692380D02*
X95401000Y-104692380D01*
X93240000Y-104732380D02*
X95406000Y-104732380D01*
X93240000Y-104772380D02*
X95411000Y-104772380D01*
X93240000Y-104812380D02*
X95415000Y-104812380D01*
X93240000Y-104852380D02*
X95418000Y-104852380D01*
X93240000Y-104892380D02*
X95422000Y-104892380D01*
X95470000Y-105132380D02*
G75*
G02*
X88930000Y-105132380I-3270000J0D01*
G01*
X88930000Y-105132380D02*
G75*
G02*
X95470000Y-105132380I3270000J0D01*
G01*
%TO.C,C5*%
X136090000Y-108074420D02*
X136090000Y-108355580D01*
X137110000Y-108074420D02*
X137110000Y-108355580D01*
D13*
%TO.C,PS2*%
X76019646Y-71845000D02*
X76019646Y-71845000D01*
X76119646Y-71845000D02*
X76119646Y-71845000D01*
D15*
X76569646Y-35595000D02*
X76569646Y-83595000D01*
X76569646Y-83595000D02*
X146569646Y-83595000D01*
X146569646Y-35595000D02*
X76569646Y-35595000D01*
X146569646Y-83595000D02*
X146569646Y-35595000D01*
D13*
X76019646Y-71845000D02*
G75*
G02*
X76119646Y-71845000I50000J0D01*
G01*
X76119646Y-71845000D02*
G75*
G02*
X76019646Y-71845000I-50000J0D01*
G01*
D14*
%TO.C,J2*%
X69540000Y-99790000D02*
X69540000Y-101790000D01*
X69780000Y-100030000D02*
X69780000Y-111770000D01*
X71780000Y-99790000D02*
X69540000Y-99790000D01*
X72800000Y-100030000D02*
X72800000Y-111770000D01*
X74400000Y-102150000D02*
X74400000Y-106150000D01*
X74400000Y-107150000D02*
X74400000Y-111150000D01*
X74620000Y-101650000D02*
X69780000Y-101650000D01*
X74620000Y-102150000D02*
X74400000Y-102150000D01*
X74620000Y-106650000D02*
X69780000Y-106650000D01*
X74620000Y-107150000D02*
X74400000Y-107150000D01*
X76100000Y-104380000D02*
X76100000Y-106150000D01*
X76100000Y-109380000D02*
X76100000Y-111150000D01*
X77100000Y-104380000D02*
X77100000Y-106150000D01*
X77100000Y-106150000D02*
X76100000Y-106150000D01*
X77100000Y-109380000D02*
X77100000Y-111150000D01*
X77100000Y-111150000D02*
X76100000Y-111150000D01*
X78800000Y-102150000D02*
X78580000Y-102150000D01*
X78800000Y-102150000D02*
X78800000Y-106150000D01*
X78800000Y-106150000D02*
X74400000Y-106150000D01*
X78800000Y-107150000D02*
X78580000Y-107150000D01*
X78800000Y-107150000D02*
X78800000Y-111150000D01*
X78800000Y-111150000D02*
X74400000Y-111150000D01*
X79620000Y-106650000D02*
X78580000Y-106650000D01*
X79620000Y-111770000D02*
X69780000Y-111770000D01*
X85020000Y-100030000D02*
X69780000Y-100030000D01*
X85020000Y-100030000D02*
X85020000Y-111770000D01*
X85020000Y-101650000D02*
X78580000Y-101650000D01*
X85020000Y-106650000D02*
X83580000Y-106650000D01*
X85020000Y-111770000D02*
X83580000Y-111770000D01*
X71349576Y-102699135D02*
G75*
G02*
X71349000Y-105601000I-339576J-1450865D01*
G01*
X71349576Y-107699135D02*
G75*
G02*
X71349000Y-110601000I-339576J-1450865D01*
G01*
X71350000Y-105599999D02*
G75*
G02*
X71349867Y-102700032I339000J1449999D01*
G01*
X71350000Y-110599999D02*
G75*
G02*
X71349867Y-107700032I339000J1449999D01*
G01*
X80864067Y-103940798D02*
G75*
G02*
X83579000Y-105011000I1485933J-209202D01*
G01*
X80864067Y-108940798D02*
G75*
G02*
X83579000Y-110011000I1485933J-209202D01*
G01*
%TO.C,L1*%
X139375000Y-111805000D02*
X139825000Y-111805000D01*
X139375000Y-116625000D02*
X139375000Y-111805000D01*
X139375000Y-116625000D02*
X139825000Y-116625000D01*
X144195000Y-111805000D02*
X143745000Y-111805000D01*
X144195000Y-116625000D02*
X143745000Y-116625000D01*
X144195000Y-116625000D02*
X144195000Y-111805000D01*
D13*
%TO.C,IC1*%
X94490000Y-110910000D02*
X127510000Y-110910000D01*
X94490000Y-128690000D02*
X94490000Y-110910000D01*
D15*
X116080000Y-110180000D02*
X116080000Y-110180000D01*
X116080000Y-110180000D02*
X116080000Y-110180000D01*
X116080000Y-110280000D02*
X116080000Y-110280000D01*
D13*
X127510000Y-110910000D02*
X127510000Y-128690000D01*
X127510000Y-128690000D02*
X94490000Y-128690000D01*
D15*
X116080000Y-110180000D02*
G75*
G02*
X116080000Y-110280000I0J-50000D01*
G01*
X116080000Y-110280000D02*
G75*
G02*
X116080000Y-110180000I0J50000D01*
G01*
X116080000Y-110280000D02*
G75*
G02*
X116080000Y-110180000I0J50000D01*
G01*
D14*
%TO.C,U2*%
X142900000Y-127185000D02*
X142680000Y-127185000D01*
X148480000Y-123525000D02*
X145400000Y-123525000D01*
X148560000Y-127185000D02*
X148100000Y-127185000D01*
X148560000Y-127185000D02*
X148560000Y-125985000D01*
X148099999Y-127185000D02*
G75*
G02*
X142900001Y-127185000I-2599999J1100000D01*
G01*
%TO.C,C8*%
X134075000Y-114155580D02*
X134075000Y-113874420D01*
X135095000Y-114155580D02*
X135095000Y-113874420D01*
%TD*%
M02*
