%TF.GenerationSoftware,KiCad,Pcbnew,8.0.1*%
%TF.CreationDate,2025-09-04T11:13:59-04:00*%
%TF.ProjectId,SUN,53554e2e-6b69-4636-9164-5f7063625858,rev?*%
%TF.SameCoordinates,Original*%
%TF.FileFunction,Copper,L1,Top*%
%TF.FilePolarity,Positive*%
%FSLAX46Y46*%
G04 Gerber Fmt 4.6, Leading zero omitted, Abs format (unit mm)*
G04 Created by KiCad (PCBNEW 8.0.1) date 2025-09-04 11:13:59*
%MOMM*%
%LPD*%
G01*
G04 APERTURE LIST*
G04 Aperture macros list*
%AMRoundRect*
0 Rectangle with rounded corners*
0 $1 Rounding radius*
0 $2 $3 $4 $5 $6 $7 $8 $9 X,Y pos of 4 corners*
0 Add a 4 corners polygon primitive as box body*
4,1,4,$2,$3,$4,$5,$6,$7,$8,$9,$2,$3,0*
0 Add four circle primitives for the rounded corners*
1,1,$1+$1,$2,$3*
1,1,$1+$1,$4,$5*
1,1,$1+$1,$6,$7*
1,1,$1+$1,$8,$9*
0 Add four rect primitives between the rounded corners*
20,1,$1+$1,$2,$3,$4,$5,0*
20,1,$1+$1,$4,$5,$6,$7,0*
20,1,$1+$1,$6,$7,$8,$9,0*
20,1,$1+$1,$8,$9,$2,$3,0*%
G04 Aperture macros list end*
%TA.AperFunction,ComponentPad*%
%ADD10C,2.100000*%
%TD*%
%TA.AperFunction,SMDPad,CuDef*%
%ADD11RoundRect,0.200000X-0.200000X-0.275000X0.200000X-0.275000X0.200000X0.275000X-0.200000X0.275000X0*%
%TD*%
%TA.AperFunction,SMDPad,CuDef*%
%ADD12R,1.600000X1.400000*%
%TD*%
%TA.AperFunction,SMDPad,CuDef*%
%ADD13RoundRect,0.250000X0.650000X-0.325000X0.650000X0.325000X-0.650000X0.325000X-0.650000X-0.325000X0*%
%TD*%
%TA.AperFunction,SMDPad,CuDef*%
%ADD14R,0.600000X1.250000*%
%TD*%
%TA.AperFunction,ComponentPad*%
%ADD15R,3.000000X2.000000*%
%TD*%
%TA.AperFunction,ComponentPad*%
%ADD16O,3.000000X2.000000*%
%TD*%
%TA.AperFunction,SMDPad,CuDef*%
%ADD17RoundRect,0.250000X1.100000X-0.325000X1.100000X0.325000X-1.100000X0.325000X-1.100000X-0.325000X0*%
%TD*%
%TA.AperFunction,ComponentPad*%
%ADD18R,2.000000X2.000000*%
%TD*%
%TA.AperFunction,ComponentPad*%
%ADD19C,2.000000*%
%TD*%
%TA.AperFunction,ComponentPad*%
%ADD20R,1.300000X1.300000*%
%TD*%
%TA.AperFunction,ComponentPad*%
%ADD21C,1.300000*%
%TD*%
%TA.AperFunction,SMDPad,CuDef*%
%ADD22RoundRect,0.250000X0.650000X-1.000000X0.650000X1.000000X-0.650000X1.000000X-0.650000X-1.000000X0*%
%TD*%
%TA.AperFunction,SMDPad,CuDef*%
%ADD23RoundRect,0.225000X-0.225000X-0.250000X0.225000X-0.250000X0.225000X0.250000X-0.225000X0.250000X0*%
%TD*%
%TA.AperFunction,SMDPad,CuDef*%
%ADD24RoundRect,0.225000X-0.250000X0.225000X-0.250000X-0.225000X0.250000X-0.225000X0.250000X0.225000X0*%
%TD*%
%TA.AperFunction,SMDPad,CuDef*%
%ADD25RoundRect,0.200000X0.275000X-0.200000X0.275000X0.200000X-0.275000X0.200000X-0.275000X-0.200000X0*%
%TD*%
%TA.AperFunction,SMDPad,CuDef*%
%ADD26RoundRect,0.250000X-0.650000X0.325000X-0.650000X-0.325000X0.650000X-0.325000X0.650000X0.325000X0*%
%TD*%
%TA.AperFunction,ComponentPad*%
%ADD27R,1.600000X1.600000*%
%TD*%
%TA.AperFunction,ComponentPad*%
%ADD28C,1.600000*%
%TD*%
%TA.AperFunction,ComponentPad*%
%ADD29R,2.550000X2.550000*%
%TD*%
%TA.AperFunction,ComponentPad*%
%ADD30C,2.550000*%
%TD*%
%TA.AperFunction,SMDPad,CuDef*%
%ADD31R,3.400000X0.980000*%
%TD*%
%TA.AperFunction,ComponentPad*%
%ADD32C,1.665000*%
%TD*%
%TA.AperFunction,ComponentPad*%
%ADD33RoundRect,0.248400X-0.651600X-0.651600X0.651600X-0.651600X0.651600X0.651600X-0.651600X0.651600X0*%
%TD*%
%TA.AperFunction,ComponentPad*%
%ADD34C,1.800000*%
%TD*%
%TA.AperFunction,SMDPad,CuDef*%
%ADD35RoundRect,0.225000X0.250000X-0.225000X0.250000X0.225000X-0.250000X0.225000X-0.250000X-0.225000X0*%
%TD*%
%TA.AperFunction,ViaPad*%
%ADD36C,0.600000*%
%TD*%
%TA.AperFunction,Conductor*%
%ADD37C,0.350000*%
%TD*%
%TA.AperFunction,Conductor*%
%ADD38C,2.000000*%
%TD*%
%TA.AperFunction,Conductor*%
%ADD39C,0.500000*%
%TD*%
%TA.AperFunction,Conductor*%
%ADD40C,0.200000*%
%TD*%
G04 APERTURE END LIST*
D10*
%TO.P,U1,1,1*%
%TO.N,Net-(J2-Pin_1)*%
X94072500Y-92800000D03*
%TO.P,U1,2,2*%
%TO.N,/line*%
X75527500Y-92800000D03*
%TD*%
D11*
%TO.P,R3,1*%
%TO.N,/fb*%
X143560000Y-107415000D03*
%TO.P,R3,2*%
%TO.N,GND*%
X145210000Y-107415000D03*
%TD*%
D12*
%TO.P,SW2,1,1*%
%TO.N,GND*%
X131200000Y-120750000D03*
X139200000Y-120750000D03*
%TO.P,SW2,2,2*%
%TO.N,/rst{slash}*%
X131200000Y-125250000D03*
X139200000Y-125250000D03*
%TD*%
D13*
%TO.P,C2,1*%
%TO.N,/P48V*%
X140000000Y-103400000D03*
%TO.P,C2,2*%
%TO.N,GND*%
X140000000Y-100450000D03*
%TD*%
D14*
%TO.P,IC2,1,FB*%
%TO.N,/fb*%
X140760000Y-107515000D03*
%TO.P,IC2,2,EN*%
%TO.N,/P48V*%
X139810000Y-107515000D03*
%TO.P,IC2,3,VIN*%
X138860000Y-107515000D03*
%TO.P,IC2,4,GND*%
%TO.N,GND*%
X138860000Y-110015000D03*
%TO.P,IC2,5,SW*%
%TO.N,/sw*%
X139810000Y-110015000D03*
%TO.P,IC2,6,CB*%
%TO.N,/boot*%
X140760000Y-110015000D03*
%TD*%
D15*
%TO.P,J1,1,Pin_1*%
%TO.N,/LED+*%
X76600000Y-122200000D03*
X81600000Y-124700000D03*
D16*
%TO.P,J1,2,Pin_2*%
%TO.N,/LED-*%
X76600000Y-127200000D03*
X81600000Y-129700000D03*
%TD*%
D17*
%TO.P,C6,1*%
%TO.N,/P7V*%
X137385000Y-115490000D03*
%TO.P,C6,2*%
%TO.N,GND*%
X137385000Y-112540000D03*
%TD*%
D18*
%TO.P,C3,1*%
%TO.N,/P48V*%
X144000000Y-91400000D03*
D19*
%TO.P,C3,2*%
%TO.N,GND*%
X139000000Y-91400000D03*
%TD*%
D20*
%TO.P,PS1,1,-VIN_1*%
%TO.N,GND*%
X127800000Y-90280000D03*
D21*
%TO.P,PS1,2,-VIN_2*%
X125260000Y-90280000D03*
%TO.P,PS1,11,-VOUT_1*%
%TO.N,/LED-*%
X102400000Y-90280000D03*
%TO.P,PS1,12,-VOUT_2*%
X99860000Y-90280000D03*
%TO.P,PS1,13,+VOUT_1*%
%TO.N,/LED+*%
X99860000Y-105520000D03*
%TO.P,PS1,14,+VOUT_2*%
X102400000Y-105520000D03*
%TO.P,PS1,22,PWM_DIM*%
%TO.N,/dim*%
X122720000Y-105520000D03*
%TO.P,PS1,23,+VIN_1*%
%TO.N,/P48V*%
X125260000Y-105520000D03*
%TO.P,PS1,24,+VIN_2*%
X127800000Y-105520000D03*
%TD*%
D22*
%TO.P,D1,1,A1*%
%TO.N,/P48V*%
X135200000Y-102725000D03*
%TO.P,D1,2,A2*%
%TO.N,GND*%
X135200000Y-98725000D03*
%TD*%
D23*
%TO.P,C9,1*%
%TO.N,/VCC*%
X145450000Y-121200000D03*
%TO.P,C9,2*%
%TO.N,GND*%
X147000000Y-121200000D03*
%TD*%
D24*
%TO.P,C7,1*%
%TO.N,/boot*%
X142585000Y-109240000D03*
%TO.P,C7,2*%
%TO.N,/sw*%
X142585000Y-110790000D03*
%TD*%
D25*
%TO.P,R2,1*%
%TO.N,/P7V*%
X144585000Y-110840000D03*
%TO.P,R2,2*%
%TO.N,/fb*%
X144585000Y-109190000D03*
%TD*%
D26*
%TO.P,C4,1*%
%TO.N,/P48V*%
X133800000Y-107340000D03*
%TO.P,C4,2*%
%TO.N,GND*%
X133800000Y-110290000D03*
%TD*%
D27*
%TO.P,C1,1*%
%TO.N,/LED+*%
X92200000Y-106382380D03*
D28*
%TO.P,C1,2*%
%TO.N,/LED-*%
X92200000Y-103882380D03*
%TD*%
D24*
%TO.P,C5,1*%
%TO.N,/P48V*%
X136600000Y-107440000D03*
%TO.P,C5,2*%
%TO.N,GND*%
X136600000Y-108990000D03*
%TD*%
D29*
%TO.P,PS2,1,AC(N)*%
%TO.N,/neutral*%
X80819646Y-71845000D03*
D30*
%TO.P,PS2,2,AC(L)*%
%TO.N,/line*%
X80819646Y-79595000D03*
%TO.P,PS2,3,-VO*%
%TO.N,GND*%
X142319646Y-48095000D03*
%TO.P,PS2,4,+VO*%
%TO.N,/P48V*%
X142319646Y-42345000D03*
%TD*%
D15*
%TO.P,J2,1,Pin_1*%
%TO.N,Net-(J2-Pin_1)*%
X76600000Y-102900000D03*
X81600000Y-105400000D03*
D16*
%TO.P,J2,2,Pin_2*%
%TO.N,/neutral*%
X76600000Y-107900000D03*
X81600000Y-110400000D03*
%TD*%
D31*
%TO.P,L1,1*%
%TO.N,/P7V*%
X141785000Y-115400000D03*
%TO.P,L1,2*%
%TO.N,/sw*%
X141785000Y-113030000D03*
%TD*%
D32*
%TO.P,IC1,1,GND_1*%
%TO.N,GND*%
X116080000Y-112180000D03*
%TO.P,IC1,2,2*%
%TO.N,unconnected-(IC1-Pad2)*%
X113540000Y-112180000D03*
%TO.P,IC1,3,3*%
%TO.N,/dim*%
X111000000Y-112180000D03*
%TO.P,IC1,4,4*%
%TO.N,unconnected-(IC1-Pad4)*%
X108460000Y-112180000D03*
%TO.P,IC1,5,5*%
%TO.N,/IR_dout*%
X105920000Y-112180000D03*
%TO.P,IC1,6,6*%
%TO.N,unconnected-(IC1-Pad6)*%
X103380000Y-112180000D03*
%TO.P,IC1,7,7*%
%TO.N,unconnected-(IC1-Pad7)*%
X100840000Y-112180000D03*
%TO.P,IC1,8,8*%
%TO.N,unconnected-(IC1-Pad8)*%
X98300000Y-112180000D03*
%TO.P,IC1,9,9*%
%TO.N,unconnected-(IC1-Pad9)*%
X95760000Y-112180000D03*
%TO.P,IC1,10,10*%
%TO.N,unconnected-(IC1-Pad10)*%
X95760000Y-127420000D03*
%TO.P,IC1,14,14*%
%TO.N,unconnected-(IC1-Pad14)*%
X100840000Y-127420000D03*
%TO.P,IC1,15,15*%
%TO.N,unconnected-(IC1-Pad15)*%
X103380000Y-127420000D03*
%TO.P,IC1,16,16*%
%TO.N,unconnected-(IC1-Pad16)*%
X98300000Y-127420000D03*
%TO.P,IC1,18,VCC*%
%TO.N,/VCC*%
X116080000Y-127420000D03*
%TO.P,IC1,19,RST*%
%TO.N,/rst{slash}*%
X118620000Y-127420000D03*
%TO.P,IC1,20,GND_2*%
%TO.N,GND*%
X121160000Y-127420000D03*
%TO.P,IC1,21,RAW*%
%TO.N,/P7V*%
X123700000Y-127420000D03*
%TO.P,IC1,22,TXO*%
%TO.N,unconnected-(IC1-TXO-Pad22)*%
X123700000Y-112180000D03*
%TO.P,IC1,23,RXI*%
%TO.N,unconnected-(IC1-RXI-Pad23)*%
X121160000Y-112180000D03*
%TO.P,IC1,24,GND_3*%
%TO.N,GND*%
X118620000Y-112180000D03*
%TO.P,IC1,A1,A0*%
%TO.N,unconnected-(IC1-A0-PadA1)*%
X105920000Y-127420000D03*
%TO.P,IC1,A2,A1*%
%TO.N,unconnected-(IC1-A1-PadA2)*%
X108460000Y-127420000D03*
%TO.P,IC1,A3,A2*%
%TO.N,unconnected-(IC1-A2-PadA3)*%
X111000000Y-127420000D03*
%TO.P,IC1,A4,A3*%
%TO.N,unconnected-(IC1-A3-PadA4)*%
X113540000Y-127420000D03*
%TD*%
D33*
%TO.P,U2,1,OUT*%
%TO.N,/IR_dout*%
X142860000Y-124885000D03*
D34*
%TO.P,U2,2,Vs*%
%TO.N,/VCC*%
X145400000Y-124885000D03*
%TO.P,U2,3,GND*%
%TO.N,GND*%
X147940000Y-124885000D03*
%TD*%
D35*
%TO.P,C8,1*%
%TO.N,/P7V*%
X134585000Y-114790000D03*
%TO.P,C8,2*%
%TO.N,GND*%
X134585000Y-113240000D03*
%TD*%
D36*
%TO.N,GND*%
X140800000Y-124400000D03*
X121200000Y-129200000D03*
X119600000Y-129000000D03*
X142200000Y-52800000D03*
X137600000Y-48000000D03*
X118400000Y-114800000D03*
X116000000Y-114600000D03*
X139000000Y-119000000D03*
X134200000Y-111800000D03*
X136800000Y-110600000D03*
X134800000Y-96200000D03*
X139600000Y-98600000D03*
X135400000Y-91200000D03*
X148200000Y-108000000D03*
X119600000Y-107000000D03*
X119800000Y-103600000D03*
X104800000Y-114400000D03*
X105000000Y-124800000D03*
X119800000Y-125600000D03*
X127000000Y-125600000D03*
X135000000Y-129000000D03*
X148200000Y-121000000D03*
X129200000Y-114400000D03*
X123000000Y-120400000D03*
%TD*%
D37*
%TO.N,/VCC*%
X145450000Y-121200000D02*
X145450000Y-124835000D01*
X145450000Y-124835000D02*
X145400000Y-124885000D01*
D38*
%TO.N,Net-(J2-Pin_1)*%
X76600000Y-102900000D02*
X79100000Y-102900000D01*
X79100000Y-102900000D02*
X81600000Y-105400000D01*
X94072500Y-92800000D02*
X94072500Y-92927500D01*
X94072500Y-92927500D02*
X81600000Y-105400000D01*
%TO.N,/LED-*%
X99860000Y-90280000D02*
X99860000Y-96222380D01*
X99860000Y-96222380D02*
X92200000Y-103882380D01*
X102400000Y-90280000D02*
X99860000Y-90280000D01*
%TO.N,/LED+*%
X99860000Y-105520000D02*
X98997620Y-106382380D01*
X98997620Y-106382380D02*
X92200000Y-106382380D01*
X102400000Y-105520000D02*
X99860000Y-105520000D01*
X76600000Y-122200000D02*
X79100000Y-122200000D01*
X79100000Y-122200000D02*
X81600000Y-124700000D01*
X92200000Y-106382380D02*
X92200000Y-114100000D01*
X92200000Y-114100000D02*
X81600000Y-124700000D01*
D37*
%TO.N,/P7V*%
X144585000Y-115030000D02*
X144215000Y-115400000D01*
X144215000Y-115400000D02*
X141785000Y-115400000D01*
X144585000Y-110840000D02*
X144585000Y-115030000D01*
D39*
%TO.N,/boot*%
X142575000Y-109230000D02*
X142585000Y-109240000D01*
X141545000Y-109230000D02*
X142575000Y-109230000D01*
X140760000Y-110015000D02*
X141545000Y-109230000D01*
D37*
%TO.N,/dim*%
X111000000Y-110400000D02*
X111000000Y-112180000D01*
X115880000Y-105520000D02*
X111000000Y-110400000D01*
X122720000Y-105520000D02*
X115880000Y-105520000D01*
D40*
%TO.N,/fb*%
X140860000Y-107415000D02*
X140760000Y-107515000D01*
D37*
X144585000Y-108440000D02*
X143560000Y-107415000D01*
X143560000Y-107415000D02*
X140860000Y-107415000D01*
X144585000Y-109190000D02*
X144585000Y-108440000D01*
%TO.N,/rst{slash}*%
X129800000Y-130200000D02*
X131200000Y-128800000D01*
X118620000Y-127420000D02*
X118620000Y-129420000D01*
X131200000Y-128800000D02*
X131200000Y-125250000D01*
X119400000Y-130200000D02*
X129800000Y-130200000D01*
X131200000Y-125250000D02*
X139200000Y-125250000D01*
X118620000Y-129420000D02*
X119400000Y-130200000D01*
%TD*%
%TA.AperFunction,Conductor*%
%TO.N,/P7V*%
G36*
X143743039Y-114419685D02*
G01*
X143788794Y-114472489D01*
X143800000Y-114524000D01*
X143800000Y-116676000D01*
X143780315Y-116743039D01*
X143727511Y-116788794D01*
X143676000Y-116800000D01*
X131400000Y-116800000D01*
X125800000Y-123200000D01*
X125800000Y-123200001D01*
X125800000Y-129076000D01*
X125780315Y-129143039D01*
X125727511Y-129188794D01*
X125676000Y-129200000D01*
X122724000Y-129200000D01*
X122656961Y-129180315D01*
X122611206Y-129127511D01*
X122600000Y-129076000D01*
X122600000Y-128246186D01*
X122600000Y-128193071D01*
X122626576Y-128139982D01*
X122629648Y-128136798D01*
X123172129Y-127594315D01*
X123182822Y-127634222D01*
X123255890Y-127760778D01*
X123359222Y-127864110D01*
X123485778Y-127937178D01*
X123525682Y-127947870D01*
X122951190Y-128522360D01*
X123031209Y-128578388D01*
X123242515Y-128676921D01*
X123242521Y-128676924D01*
X123467727Y-128737268D01*
X123467735Y-128737269D01*
X123699998Y-128757590D01*
X123700002Y-128757590D01*
X123932264Y-128737269D01*
X123932272Y-128737268D01*
X124157478Y-128676924D01*
X124157484Y-128676921D01*
X124368794Y-128578386D01*
X124448808Y-128522360D01*
X123874317Y-127947870D01*
X123914222Y-127937178D01*
X124040778Y-127864110D01*
X124144110Y-127760778D01*
X124217178Y-127634222D01*
X124227870Y-127594318D01*
X124802360Y-128168808D01*
X124858386Y-128088794D01*
X124956921Y-127877484D01*
X124956924Y-127877478D01*
X125017268Y-127652272D01*
X125017269Y-127652264D01*
X125037590Y-127420001D01*
X125037590Y-127419998D01*
X125017269Y-127187735D01*
X125017268Y-127187727D01*
X124956924Y-126962521D01*
X124956921Y-126962515D01*
X124858388Y-126751209D01*
X124802359Y-126671190D01*
X124227869Y-127245681D01*
X124217178Y-127205778D01*
X124144110Y-127079222D01*
X124040778Y-126975890D01*
X123914222Y-126902822D01*
X123874317Y-126892129D01*
X124448808Y-126317639D01*
X124448807Y-126317638D01*
X124368795Y-126261613D01*
X124368793Y-126261612D01*
X124157484Y-126163078D01*
X124157478Y-126163075D01*
X123932272Y-126102731D01*
X123932264Y-126102730D01*
X123700002Y-126082410D01*
X123699998Y-126082410D01*
X123467735Y-126102730D01*
X123467727Y-126102731D01*
X123242521Y-126163075D01*
X123242515Y-126163078D01*
X123031202Y-126261614D01*
X122951190Y-126317637D01*
X123525682Y-126892129D01*
X123485778Y-126902822D01*
X123359222Y-126975890D01*
X123255890Y-127079222D01*
X123182822Y-127205778D01*
X123172129Y-127245682D01*
X122629647Y-126703200D01*
X122600000Y-126648905D01*
X122600000Y-123250529D01*
X122619685Y-123183490D01*
X122635314Y-123163864D01*
X131163517Y-114437331D01*
X131224450Y-114403145D01*
X131252199Y-114400000D01*
X143676000Y-114400000D01*
X143743039Y-114419685D01*
G37*
%TD.AperFunction*%
%TD*%
%TA.AperFunction,Conductor*%
%TO.N,/sw*%
G36*
X140128039Y-109449685D02*
G01*
X140173794Y-109502489D01*
X140185000Y-109554000D01*
X140185000Y-110830000D01*
X140385000Y-111030000D01*
X141385000Y-111030000D01*
X141948681Y-110466319D01*
X142010004Y-110432834D01*
X142036362Y-110430000D01*
X143461000Y-110430000D01*
X143528039Y-110449685D01*
X143573794Y-110502489D01*
X143585000Y-110554000D01*
X143585000Y-113506000D01*
X143565315Y-113573039D01*
X143512511Y-113618794D01*
X143461000Y-113630000D01*
X139509000Y-113630000D01*
X139441961Y-113610315D01*
X139396206Y-113557511D01*
X139385000Y-113506000D01*
X139385000Y-109554000D01*
X139404685Y-109486961D01*
X139457489Y-109441206D01*
X139509000Y-109430000D01*
X140061000Y-109430000D01*
X140128039Y-109449685D01*
G37*
%TD.AperFunction*%
%TD*%
%TA.AperFunction,Conductor*%
%TO.N,GND*%
G36*
X120642822Y-127634222D02*
G01*
X120715890Y-127760778D01*
X120819222Y-127864110D01*
X120945778Y-127937178D01*
X120985680Y-127947869D01*
X120411190Y-128522360D01*
X120491204Y-128578386D01*
X120491206Y-128578387D01*
X120702515Y-128676921D01*
X120702521Y-128676924D01*
X120927727Y-128737268D01*
X120927735Y-128737269D01*
X121159998Y-128757590D01*
X121160002Y-128757590D01*
X121392264Y-128737269D01*
X121392272Y-128737268D01*
X121617478Y-128676924D01*
X121617484Y-128676921D01*
X121828795Y-128578386D01*
X121899375Y-128528965D01*
X121965581Y-128506637D01*
X122033349Y-128523646D01*
X122081162Y-128574594D01*
X122094500Y-128630539D01*
X122094500Y-129076000D01*
X122094501Y-129076009D01*
X122106052Y-129183450D01*
X122106054Y-129183462D01*
X122117260Y-129234972D01*
X122151383Y-129337497D01*
X122151386Y-129337503D01*
X122229171Y-129458537D01*
X122229179Y-129458548D01*
X122274923Y-129511340D01*
X122274926Y-129511343D01*
X122274930Y-129511347D01*
X122343574Y-129570828D01*
X122385073Y-129606788D01*
X122422847Y-129665566D01*
X122422846Y-129735436D01*
X122385071Y-129794214D01*
X122321515Y-129823238D01*
X122303869Y-129824500D01*
X119606899Y-129824500D01*
X119539860Y-129804815D01*
X119519218Y-129788181D01*
X119031819Y-129300782D01*
X118998334Y-129239459D01*
X118995500Y-129213101D01*
X118995500Y-128464920D01*
X119015185Y-128397881D01*
X119061047Y-128355562D01*
X119196675Y-128283067D01*
X119196681Y-128283064D01*
X119353975Y-128153975D01*
X119483064Y-127996681D01*
X119578985Y-127817225D01*
X119616449Y-127693720D01*
X119654746Y-127635284D01*
X119718558Y-127606828D01*
X119787625Y-127617388D01*
X119840018Y-127663612D01*
X119854884Y-127697625D01*
X119903074Y-127877475D01*
X119903078Y-127877484D01*
X120001612Y-128088793D01*
X120001613Y-128088795D01*
X120057638Y-128168807D01*
X120057639Y-128168808D01*
X120632129Y-127594317D01*
X120642822Y-127634222D01*
G37*
%TD.AperFunction*%
%TA.AperFunction,Conductor*%
G36*
X139437539Y-40019685D02*
G01*
X139483294Y-40072489D01*
X139494500Y-40124000D01*
X139494500Y-41089374D01*
X139494500Y-42345003D01*
X139494500Y-43600624D01*
X139494500Y-44876000D01*
X139494501Y-44876009D01*
X139506052Y-44983450D01*
X139506054Y-44983462D01*
X139517260Y-45034972D01*
X139551383Y-45137497D01*
X139551386Y-45137503D01*
X139629171Y-45258537D01*
X139629179Y-45258548D01*
X139674923Y-45311340D01*
X139674926Y-45311343D01*
X139674930Y-45311347D01*
X139783664Y-45405567D01*
X139914541Y-45465338D01*
X139981580Y-45485023D01*
X139981584Y-45485024D01*
X140124000Y-45505500D01*
X145370500Y-45505500D01*
X145437539Y-45525185D01*
X145483294Y-45577989D01*
X145494500Y-45629500D01*
X145494500Y-49964228D01*
X145493702Y-49978272D01*
X141098551Y-88535738D01*
X141096112Y-88564312D01*
X141095313Y-88578382D01*
X141094500Y-88607040D01*
X141094500Y-101170500D01*
X141074815Y-101237539D01*
X141022011Y-101283294D01*
X140970500Y-101294500D01*
X136723999Y-101294500D01*
X136723990Y-101294500D01*
X136723989Y-101294501D01*
X136616548Y-101306052D01*
X136616536Y-101306054D01*
X136565026Y-101317260D01*
X136462501Y-101351383D01*
X136462495Y-101351386D01*
X136337730Y-101431569D01*
X136336582Y-101429783D01*
X136279085Y-101451065D01*
X136210849Y-101436042D01*
X136179511Y-101408630D01*
X136178721Y-101409421D01*
X136172151Y-101402851D01*
X136062882Y-101322207D01*
X136062880Y-101322206D01*
X135934700Y-101277353D01*
X135904270Y-101274500D01*
X135904266Y-101274500D01*
X134495734Y-101274500D01*
X134495730Y-101274500D01*
X134465300Y-101277353D01*
X134465298Y-101277353D01*
X134337119Y-101322206D01*
X134337117Y-101322207D01*
X134227848Y-101402851D01*
X134221279Y-101409421D01*
X134220071Y-101408213D01*
X134173106Y-101443865D01*
X134103449Y-101449317D01*
X134047791Y-101421689D01*
X134016336Y-101394433D01*
X134016333Y-101394431D01*
X134016331Y-101394430D01*
X133885465Y-101334664D01*
X133885460Y-101334662D01*
X133885459Y-101334662D01*
X133818420Y-101314977D01*
X133818422Y-101314977D01*
X133818417Y-101314976D01*
X133756347Y-101306052D01*
X133676000Y-101294500D01*
X124124000Y-101294500D01*
X124123991Y-101294500D01*
X124123990Y-101294501D01*
X124016549Y-101306052D01*
X124016537Y-101306054D01*
X123965027Y-101317260D01*
X123862502Y-101351383D01*
X123862496Y-101351386D01*
X123741462Y-101429171D01*
X123741451Y-101429179D01*
X123688659Y-101474923D01*
X123594433Y-101583664D01*
X123594430Y-101583668D01*
X123534664Y-101714534D01*
X123514976Y-101781582D01*
X123494500Y-101924001D01*
X123494500Y-104788090D01*
X123474815Y-104855129D01*
X123422011Y-104900884D01*
X123352853Y-104910828D01*
X123298987Y-104886228D01*
X123297487Y-104888294D01*
X123292231Y-104884475D01*
X123292230Y-104884474D01*
X123147593Y-104779388D01*
X122984267Y-104706671D01*
X122984265Y-104706670D01*
X122856594Y-104679533D01*
X122809391Y-104669500D01*
X122630609Y-104669500D01*
X122599954Y-104676015D01*
X122455733Y-104706670D01*
X122455728Y-104706672D01*
X122292408Y-104779387D01*
X122147768Y-104884475D01*
X122028140Y-105017336D01*
X121990518Y-105082500D01*
X121939952Y-105130715D01*
X121883131Y-105144500D01*
X115830564Y-105144500D01*
X115782812Y-105157295D01*
X115782811Y-105157294D01*
X115735063Y-105170089D01*
X115735062Y-105170089D01*
X115649435Y-105219527D01*
X110699527Y-110169435D01*
X110650089Y-110255063D01*
X110647543Y-110264567D01*
X110632420Y-110321009D01*
X110624500Y-110350565D01*
X110624500Y-111135079D01*
X110604815Y-111202118D01*
X110558953Y-111244437D01*
X110423324Y-111316931D01*
X110423317Y-111316936D01*
X110266024Y-111446024D01*
X110136936Y-111603317D01*
X110136932Y-111603324D01*
X110041016Y-111782770D01*
X109981946Y-111977498D01*
X109962002Y-112180000D01*
X109981946Y-112382501D01*
X110041016Y-112577229D01*
X110136932Y-112756675D01*
X110136936Y-112756682D01*
X110266024Y-112913975D01*
X110423317Y-113043063D01*
X110423324Y-113043067D01*
X110602770Y-113138983D01*
X110602772Y-113138983D01*
X110602775Y-113138985D01*
X110797497Y-113198053D01*
X110797496Y-113198053D01*
X110815652Y-113199841D01*
X111000000Y-113217998D01*
X111202503Y-113198053D01*
X111397225Y-113138985D01*
X111576681Y-113043064D01*
X111733975Y-112913975D01*
X111863064Y-112756681D01*
X111958985Y-112577225D01*
X112018053Y-112382503D01*
X112037998Y-112180000D01*
X112502002Y-112180000D01*
X112521946Y-112382501D01*
X112581016Y-112577229D01*
X112676932Y-112756675D01*
X112676936Y-112756682D01*
X112806024Y-112913975D01*
X112963317Y-113043063D01*
X112963324Y-113043067D01*
X113142770Y-113138983D01*
X113142772Y-113138983D01*
X113142775Y-113138985D01*
X113337497Y-113198053D01*
X113337496Y-113198053D01*
X113355652Y-113199841D01*
X113540000Y-113217998D01*
X113742503Y-113198053D01*
X113937225Y-113138985D01*
X114116681Y-113043064D01*
X114273975Y-112913975D01*
X114403064Y-112756681D01*
X114498985Y-112577225D01*
X114536449Y-112453720D01*
X114574746Y-112395284D01*
X114638558Y-112366828D01*
X114707625Y-112377388D01*
X114760018Y-112423612D01*
X114774884Y-112457625D01*
X114823074Y-112637475D01*
X114823078Y-112637484D01*
X114921612Y-112848793D01*
X114921613Y-112848795D01*
X114977638Y-112928807D01*
X114977639Y-112928808D01*
X115552129Y-112354317D01*
X115562822Y-112394222D01*
X115635890Y-112520778D01*
X115739222Y-112624110D01*
X115865778Y-112697178D01*
X115905682Y-112707870D01*
X115331190Y-113282360D01*
X115411209Y-113338388D01*
X115622515Y-113436921D01*
X115622521Y-113436924D01*
X115847727Y-113497268D01*
X115847735Y-113497269D01*
X116079998Y-113517590D01*
X116080002Y-113517590D01*
X116312264Y-113497269D01*
X116312272Y-113497268D01*
X116537478Y-113436924D01*
X116537484Y-113436921D01*
X116748794Y-113338386D01*
X116828808Y-113282360D01*
X116254317Y-112707870D01*
X116294222Y-112697178D01*
X116420778Y-112624110D01*
X116524110Y-112520778D01*
X116597178Y-112394222D01*
X116607870Y-112354318D01*
X117182360Y-112928808D01*
X117238387Y-112848793D01*
X117241092Y-112844109D01*
X117242487Y-112844914D01*
X117283784Y-112798008D01*
X117350977Y-112778852D01*
X117417859Y-112799064D01*
X117457559Y-112844880D01*
X117458905Y-112844104D01*
X117461613Y-112848795D01*
X117517638Y-112928807D01*
X117517639Y-112928808D01*
X118092129Y-112354317D01*
X118102822Y-112394222D01*
X118175890Y-112520778D01*
X118279222Y-112624110D01*
X118405778Y-112697178D01*
X118445682Y-112707870D01*
X117871190Y-113282360D01*
X117951209Y-113338388D01*
X118162515Y-113436921D01*
X118162521Y-113436924D01*
X118387727Y-113497268D01*
X118387735Y-113497269D01*
X118619998Y-113517590D01*
X118620002Y-113517590D01*
X118852264Y-113497269D01*
X118852272Y-113497268D01*
X119077478Y-113436924D01*
X119077484Y-113436921D01*
X119288794Y-113338386D01*
X119368808Y-113282360D01*
X118794317Y-112707870D01*
X118834222Y-112697178D01*
X118960778Y-112624110D01*
X119064110Y-112520778D01*
X119137178Y-112394222D01*
X119147870Y-112354317D01*
X119722360Y-112928808D01*
X119778386Y-112848794D01*
X119876921Y-112637484D01*
X119876925Y-112637475D01*
X119925115Y-112457625D01*
X119961480Y-112397965D01*
X120024326Y-112367435D01*
X120093702Y-112375729D01*
X120147580Y-112420214D01*
X120163550Y-112453722D01*
X120201015Y-112577226D01*
X120296932Y-112756675D01*
X120296936Y-112756682D01*
X120426024Y-112913975D01*
X120583317Y-113043063D01*
X120583324Y-113043067D01*
X120762770Y-113138983D01*
X120762772Y-113138983D01*
X120762775Y-113138985D01*
X120957497Y-113198053D01*
X120957496Y-113198053D01*
X120975652Y-113199841D01*
X121160000Y-113217998D01*
X121362503Y-113198053D01*
X121557225Y-113138985D01*
X121736681Y-113043064D01*
X121893975Y-112913975D01*
X122023064Y-112756681D01*
X122118985Y-112577225D01*
X122178053Y-112382503D01*
X122197998Y-112180000D01*
X122662002Y-112180000D01*
X122681946Y-112382501D01*
X122741016Y-112577229D01*
X122836932Y-112756675D01*
X122836936Y-112756682D01*
X122966024Y-112913975D01*
X123123317Y-113043063D01*
X123123324Y-113043067D01*
X123302770Y-113138983D01*
X123302772Y-113138983D01*
X123302775Y-113138985D01*
X123497497Y-113198053D01*
X123497496Y-113198053D01*
X123515652Y-113199841D01*
X123700000Y-113217998D01*
X123902503Y-113198053D01*
X124097225Y-113138985D01*
X124276681Y-113043064D01*
X124433975Y-112913975D01*
X124563064Y-112756681D01*
X124658985Y-112577225D01*
X124718053Y-112382503D01*
X124737998Y-112180000D01*
X124718053Y-111977497D01*
X124658985Y-111782775D01*
X124658983Y-111782772D01*
X124658983Y-111782770D01*
X124563067Y-111603324D01*
X124563063Y-111603317D01*
X124433975Y-111446024D01*
X124276682Y-111316936D01*
X124276675Y-111316932D01*
X124097229Y-111221016D01*
X123999864Y-111191481D01*
X123902503Y-111161947D01*
X123902501Y-111161946D01*
X123902503Y-111161946D01*
X123700000Y-111142002D01*
X123497498Y-111161946D01*
X123302770Y-111221016D01*
X123123324Y-111316932D01*
X123123317Y-111316936D01*
X122966024Y-111446024D01*
X122836936Y-111603317D01*
X122836932Y-111603324D01*
X122741016Y-111782770D01*
X122681946Y-111977498D01*
X122662002Y-112180000D01*
X122197998Y-112180000D01*
X122178053Y-111977497D01*
X122118985Y-111782775D01*
X122118983Y-111782772D01*
X122118983Y-111782770D01*
X122023067Y-111603324D01*
X122023063Y-111603317D01*
X121893975Y-111446024D01*
X121736682Y-111316936D01*
X121736675Y-111316932D01*
X121557229Y-111221016D01*
X121459864Y-111191481D01*
X121362503Y-111161947D01*
X121362501Y-111161946D01*
X121362503Y-111161946D01*
X121160000Y-111142002D01*
X120957498Y-111161946D01*
X120762770Y-111221016D01*
X120583324Y-111316932D01*
X120583317Y-111316936D01*
X120426024Y-111446024D01*
X120296936Y-111603317D01*
X120296932Y-111603324D01*
X120201015Y-111782773D01*
X120163550Y-111906277D01*
X120125253Y-111964715D01*
X120061440Y-111993172D01*
X119992373Y-111982611D01*
X119939980Y-111936386D01*
X119925115Y-111902374D01*
X119876925Y-111722524D01*
X119876921Y-111722515D01*
X119778388Y-111511209D01*
X119722359Y-111431190D01*
X119147869Y-112005681D01*
X119137178Y-111965778D01*
X119064110Y-111839222D01*
X118960778Y-111735890D01*
X118834222Y-111662822D01*
X118794317Y-111652129D01*
X119368808Y-111077639D01*
X119368807Y-111077638D01*
X119288795Y-111021613D01*
X119288793Y-111021612D01*
X119077484Y-110923078D01*
X119077478Y-110923075D01*
X118852272Y-110862731D01*
X118852264Y-110862730D01*
X118620002Y-110842410D01*
X118619998Y-110842410D01*
X118387735Y-110862730D01*
X118387727Y-110862731D01*
X118162521Y-110923075D01*
X118162515Y-110923078D01*
X117951202Y-111021614D01*
X117871190Y-111077637D01*
X118445682Y-111652129D01*
X118405778Y-111662822D01*
X118279222Y-111735890D01*
X118175890Y-111839222D01*
X118102822Y-111965778D01*
X118092129Y-112005682D01*
X117517637Y-111431190D01*
X117461613Y-111511204D01*
X117458910Y-111515887D01*
X117457517Y-111515083D01*
X117416204Y-111561999D01*
X117349009Y-111581147D01*
X117282129Y-111560927D01*
X117242437Y-111515120D01*
X117241095Y-111515896D01*
X117238390Y-111511212D01*
X117182359Y-111431190D01*
X116607869Y-112005681D01*
X116597178Y-111965778D01*
X116524110Y-111839222D01*
X116420778Y-111735890D01*
X116294222Y-111662822D01*
X116254317Y-111652129D01*
X116828808Y-111077639D01*
X116828807Y-111077638D01*
X116748795Y-111021613D01*
X116748793Y-111021612D01*
X116537484Y-110923078D01*
X116537478Y-110923075D01*
X116312272Y-110862731D01*
X116312264Y-110862730D01*
X116080002Y-110842410D01*
X116079998Y-110842410D01*
X115847735Y-110862730D01*
X115847727Y-110862731D01*
X115622521Y-110923075D01*
X115622515Y-110923078D01*
X115411202Y-111021614D01*
X115331190Y-111077637D01*
X115905682Y-111652129D01*
X115865778Y-111662822D01*
X115739222Y-111735890D01*
X115635890Y-111839222D01*
X115562822Y-111965778D01*
X115552129Y-112005682D01*
X114977637Y-111431190D01*
X114921614Y-111511202D01*
X114823078Y-111722515D01*
X114823075Y-111722521D01*
X114774884Y-111902375D01*
X114738519Y-111962035D01*
X114675672Y-111992564D01*
X114606296Y-111984269D01*
X114552418Y-111939784D01*
X114536449Y-111906278D01*
X114498985Y-111782775D01*
X114498983Y-111782772D01*
X114498983Y-111782770D01*
X114403067Y-111603324D01*
X114403063Y-111603317D01*
X114273975Y-111446024D01*
X114116682Y-111316936D01*
X114116675Y-111316932D01*
X113937229Y-111221016D01*
X113839864Y-111191481D01*
X113742503Y-111161947D01*
X113742501Y-111161946D01*
X113742503Y-111161946D01*
X113540000Y-111142002D01*
X113337498Y-111161946D01*
X113142770Y-111221016D01*
X112963324Y-111316932D01*
X112963317Y-111316936D01*
X112806024Y-111446024D01*
X112676936Y-111603317D01*
X112676932Y-111603324D01*
X112581016Y-111782770D01*
X112521946Y-111977498D01*
X112502002Y-112180000D01*
X112037998Y-112180000D01*
X112018053Y-111977497D01*
X111958985Y-111782775D01*
X111958983Y-111782772D01*
X111958983Y-111782770D01*
X111863067Y-111603324D01*
X111863063Y-111603317D01*
X111733975Y-111446024D01*
X111576682Y-111316936D01*
X111576675Y-111316931D01*
X111441047Y-111244437D01*
X111391202Y-111195475D01*
X111375500Y-111135079D01*
X111375500Y-110606899D01*
X111395185Y-110539860D01*
X111411819Y-110519218D01*
X115999218Y-105931819D01*
X116060541Y-105898334D01*
X116086899Y-105895500D01*
X121883131Y-105895500D01*
X121950170Y-105915185D01*
X121990517Y-105957499D01*
X122028141Y-106022665D01*
X122069812Y-106068946D01*
X122147764Y-106155521D01*
X122147767Y-106155523D01*
X122147770Y-106155526D01*
X122292407Y-106260612D01*
X122455733Y-106333329D01*
X122630609Y-106370500D01*
X122630610Y-106370500D01*
X122809389Y-106370500D01*
X122809391Y-106370500D01*
X122984267Y-106333329D01*
X123147593Y-106260612D01*
X123292230Y-106155526D01*
X123292233Y-106155523D01*
X123297487Y-106151706D01*
X123299287Y-106154183D01*
X123350175Y-106129586D01*
X123419534Y-106138016D01*
X123473326Y-106182606D01*
X123494470Y-106249199D01*
X123494500Y-106251909D01*
X123494500Y-108076000D01*
X123494501Y-108076009D01*
X123506052Y-108183450D01*
X123506054Y-108183462D01*
X123517260Y-108234972D01*
X123551383Y-108337497D01*
X123551386Y-108337503D01*
X123629171Y-108458537D01*
X123629179Y-108458548D01*
X123674923Y-108511340D01*
X123674926Y-108511343D01*
X123674930Y-108511347D01*
X123783664Y-108605567D01*
X123783667Y-108605568D01*
X123783668Y-108605569D01*
X123905773Y-108661334D01*
X123914541Y-108665338D01*
X123981580Y-108685023D01*
X123981584Y-108685024D01*
X124124000Y-108705500D01*
X124124003Y-108705500D01*
X132376620Y-108705500D01*
X132376622Y-108705500D01*
X132479494Y-108694922D01*
X132479499Y-108694921D01*
X132479501Y-108694921D01*
X132528895Y-108684654D01*
X132528899Y-108684653D01*
X132528900Y-108684652D01*
X132528908Y-108684651D01*
X132627477Y-108653358D01*
X132749937Y-108577825D01*
X132803579Y-108533056D01*
X132899797Y-108426083D01*
X132961981Y-108296334D01*
X132982597Y-108230647D01*
X132982872Y-108229796D01*
X132982899Y-108229684D01*
X132982904Y-108229670D01*
X132982905Y-108229667D01*
X132984546Y-108219583D01*
X133014743Y-108156576D01*
X133074210Y-108119896D01*
X133106936Y-108115500D01*
X134492753Y-108115500D01*
X134559792Y-108135185D01*
X134605547Y-108187989D01*
X134611730Y-108204565D01*
X134648229Y-108328867D01*
X134650765Y-108337504D01*
X134665341Y-108360185D01*
X134728549Y-108458537D01*
X134728557Y-108458548D01*
X134774301Y-108511340D01*
X134774304Y-108511343D01*
X134774308Y-108511347D01*
X134883042Y-108605567D01*
X134883045Y-108605568D01*
X134883046Y-108605569D01*
X135005151Y-108661334D01*
X135013919Y-108665338D01*
X135080958Y-108685023D01*
X135080962Y-108685024D01*
X135223378Y-108705500D01*
X135223381Y-108705500D01*
X135605994Y-108705500D01*
X135605995Y-108705500D01*
X135605996Y-108705499D01*
X135606011Y-108705499D01*
X135645671Y-108701419D01*
X135708875Y-108694920D01*
X135758290Y-108684648D01*
X135856851Y-108653357D01*
X135979311Y-108577824D01*
X136032953Y-108533055D01*
X136032957Y-108533051D01*
X136129175Y-108426076D01*
X136191357Y-108296327D01*
X136193543Y-108289361D01*
X136195739Y-108282367D01*
X136234595Y-108224299D01*
X136298678Y-108196456D01*
X136314048Y-108195500D01*
X136886871Y-108195500D01*
X136953910Y-108215185D01*
X136999665Y-108267989D01*
X137005846Y-108284560D01*
X137021392Y-108337504D01*
X137035968Y-108360185D01*
X137099176Y-108458537D01*
X137099184Y-108458548D01*
X137144928Y-108511340D01*
X137144931Y-108511343D01*
X137144935Y-108511347D01*
X137253669Y-108605567D01*
X137253672Y-108605568D01*
X137253673Y-108605569D01*
X137375778Y-108661334D01*
X137384546Y-108665338D01*
X137451585Y-108685023D01*
X137451589Y-108685024D01*
X137594005Y-108705500D01*
X137594008Y-108705500D01*
X137935990Y-108705500D01*
X137936000Y-108705500D01*
X138043456Y-108693947D01*
X138094967Y-108682741D01*
X138143847Y-108666472D01*
X138197497Y-108648616D01*
X138197501Y-108648613D01*
X138197504Y-108648613D01*
X138318543Y-108570825D01*
X138371347Y-108525070D01*
X138465567Y-108416336D01*
X138467096Y-108412987D01*
X138469504Y-108410208D01*
X138470362Y-108408874D01*
X138470553Y-108408997D01*
X138512850Y-108360185D01*
X138579889Y-108340500D01*
X139179750Y-108340500D01*
X139179751Y-108340499D01*
X139194845Y-108337497D01*
X139238229Y-108328868D01*
X139238231Y-108328867D01*
X139266108Y-108310240D01*
X139332785Y-108289361D01*
X139400165Y-108307845D01*
X139403892Y-108310240D01*
X139431768Y-108328867D01*
X139431770Y-108328868D01*
X139490247Y-108340499D01*
X139490250Y-108340500D01*
X139490252Y-108340500D01*
X140129750Y-108340500D01*
X140129751Y-108340499D01*
X140144845Y-108337497D01*
X140188229Y-108328868D01*
X140188231Y-108328867D01*
X140216108Y-108310240D01*
X140282785Y-108289361D01*
X140350165Y-108307845D01*
X140353892Y-108310240D01*
X140381768Y-108328867D01*
X140381770Y-108328868D01*
X140440247Y-108340499D01*
X140440250Y-108340500D01*
X140440252Y-108340500D01*
X141079750Y-108340500D01*
X141079751Y-108340499D01*
X141094845Y-108337497D01*
X141138229Y-108328868D01*
X141138229Y-108328867D01*
X141138231Y-108328867D01*
X141204552Y-108284552D01*
X141248867Y-108218231D01*
X141248867Y-108218229D01*
X141248868Y-108218229D01*
X141260499Y-108159752D01*
X141260500Y-108159750D01*
X141260500Y-107914500D01*
X141280185Y-107847461D01*
X141332989Y-107801706D01*
X141384500Y-107790500D01*
X142885728Y-107790500D01*
X142952767Y-107810185D01*
X142996212Y-107858204D01*
X143031949Y-107928340D01*
X143031954Y-107928347D01*
X143121652Y-108018045D01*
X143121654Y-108018046D01*
X143121658Y-108018050D01*
X143234696Y-108075646D01*
X143234698Y-108075647D01*
X143328475Y-108090499D01*
X143328481Y-108090500D01*
X143653100Y-108090499D01*
X143720139Y-108110183D01*
X143740781Y-108126818D01*
X144087299Y-108473336D01*
X144120784Y-108534659D01*
X144115800Y-108604351D01*
X144078151Y-108654642D01*
X144078558Y-108655049D01*
X144075729Y-108657877D01*
X144073928Y-108660284D01*
X144072506Y-108661334D01*
X144071653Y-108661953D01*
X143981954Y-108751652D01*
X143981951Y-108751657D01*
X143924352Y-108864698D01*
X143909500Y-108958475D01*
X143909500Y-109421517D01*
X143920292Y-109489657D01*
X143924354Y-109515304D01*
X143981950Y-109628342D01*
X143981952Y-109628344D01*
X143981954Y-109628347D01*
X144071652Y-109718045D01*
X144071654Y-109718046D01*
X144071658Y-109718050D01*
X144184694Y-109775645D01*
X144184698Y-109775647D01*
X144278475Y-109790499D01*
X144278481Y-109790500D01*
X144891518Y-109790499D01*
X144985304Y-109775646D01*
X145098342Y-109718050D01*
X145188050Y-109628342D01*
X145245646Y-109515304D01*
X145245646Y-109515302D01*
X145245647Y-109515301D01*
X145260499Y-109421524D01*
X145260500Y-109421519D01*
X145260499Y-108958482D01*
X145245646Y-108864696D01*
X145188050Y-108751658D01*
X145188046Y-108751654D01*
X145188045Y-108751652D01*
X145098347Y-108661954D01*
X145098343Y-108661951D01*
X145098342Y-108661950D01*
X145084798Y-108655049D01*
X145028204Y-108626212D01*
X144977408Y-108578237D01*
X144960500Y-108515728D01*
X144960500Y-108390567D01*
X144960500Y-108390565D01*
X144934910Y-108295062D01*
X144885475Y-108209438D01*
X144815562Y-108139525D01*
X144196818Y-107520781D01*
X144163333Y-107459458D01*
X144160499Y-107433100D01*
X144160499Y-107108476D01*
X144151063Y-107048897D01*
X144160018Y-106979604D01*
X144205015Y-106926152D01*
X144271766Y-106905513D01*
X144273536Y-106905500D01*
X147548640Y-106905500D01*
X147558786Y-106904955D01*
X147602678Y-106902603D01*
X147602686Y-106902602D01*
X147602688Y-106902602D01*
X147602689Y-106902602D01*
X147609682Y-106901849D01*
X147629036Y-106899769D01*
X147629046Y-106899767D01*
X147629049Y-106899767D01*
X147638648Y-106898211D01*
X147682448Y-106891114D01*
X147817257Y-106840832D01*
X147878580Y-106807347D01*
X147993761Y-106721123D01*
X149788319Y-104926565D01*
X149849642Y-104893080D01*
X149919334Y-104898064D01*
X149975267Y-104939936D01*
X149999684Y-105005400D01*
X150000000Y-105014246D01*
X150000000Y-130876000D01*
X149980315Y-130943039D01*
X149927511Y-130988794D01*
X149876000Y-131000000D01*
X93124000Y-131000000D01*
X93056961Y-130980315D01*
X93011206Y-130927511D01*
X93000000Y-130876000D01*
X93000000Y-127420000D01*
X94722002Y-127420000D01*
X94741946Y-127622501D01*
X94801016Y-127817229D01*
X94896932Y-127996675D01*
X94896936Y-127996682D01*
X95026024Y-128153975D01*
X95183317Y-128283063D01*
X95183324Y-128283067D01*
X95362770Y-128378983D01*
X95362772Y-128378983D01*
X95362775Y-128378985D01*
X95557497Y-128438053D01*
X95557496Y-128438053D01*
X95575652Y-128439841D01*
X95760000Y-128457998D01*
X95962503Y-128438053D01*
X96157225Y-128378985D01*
X96201047Y-128355562D01*
X96336675Y-128283067D01*
X96336681Y-128283064D01*
X96493975Y-128153975D01*
X96623064Y-127996681D01*
X96718985Y-127817225D01*
X96778053Y-127622503D01*
X96797998Y-127420000D01*
X97262002Y-127420000D01*
X97281946Y-127622501D01*
X97341016Y-127817229D01*
X97436932Y-127996675D01*
X97436936Y-127996682D01*
X97566024Y-128153975D01*
X97723317Y-128283063D01*
X97723324Y-128283067D01*
X97902770Y-128378983D01*
X97902772Y-128378983D01*
X97902775Y-128378985D01*
X98097497Y-128438053D01*
X98097496Y-128438053D01*
X98115652Y-128439841D01*
X98300000Y-128457998D01*
X98502503Y-128438053D01*
X98697225Y-128378985D01*
X98741047Y-128355562D01*
X98876675Y-128283067D01*
X98876681Y-128283064D01*
X99033975Y-128153975D01*
X99163064Y-127996681D01*
X99258985Y-127817225D01*
X99318053Y-127622503D01*
X99337998Y-127420000D01*
X99802002Y-127420000D01*
X99821946Y-127622501D01*
X99881016Y-127817229D01*
X99976932Y-127996675D01*
X99976936Y-127996682D01*
X100106024Y-128153975D01*
X100263317Y-128283063D01*
X100263324Y-128283067D01*
X100442770Y-128378983D01*
X100442772Y-128378983D01*
X100442775Y-128378985D01*
X100637497Y-128438053D01*
X100637496Y-128438053D01*
X100655652Y-128439841D01*
X100840000Y-128457998D01*
X101042503Y-128438053D01*
X101237225Y-128378985D01*
X101281047Y-128355562D01*
X101416675Y-128283067D01*
X101416681Y-128283064D01*
X101573975Y-128153975D01*
X101703064Y-127996681D01*
X101798985Y-127817225D01*
X101858053Y-127622503D01*
X101877998Y-127420000D01*
X102342002Y-127420000D01*
X102361946Y-127622501D01*
X102421016Y-127817229D01*
X102516932Y-127996675D01*
X102516936Y-127996682D01*
X102646024Y-128153975D01*
X102803317Y-128283063D01*
X102803324Y-128283067D01*
X102982770Y-128378983D01*
X102982772Y-128378983D01*
X102982775Y-128378985D01*
X103177497Y-128438053D01*
X103177496Y-128438053D01*
X103195652Y-128439841D01*
X103380000Y-128457998D01*
X103582503Y-128438053D01*
X103777225Y-128378985D01*
X103821047Y-128355562D01*
X103956675Y-128283067D01*
X103956681Y-128283064D01*
X104113975Y-128153975D01*
X104243064Y-127996681D01*
X104338985Y-127817225D01*
X104398053Y-127622503D01*
X104417998Y-127420000D01*
X104882002Y-127420000D01*
X104901946Y-127622501D01*
X104961016Y-127817229D01*
X105056932Y-127996675D01*
X105056936Y-127996682D01*
X105186024Y-128153975D01*
X105343317Y-128283063D01*
X105343324Y-128283067D01*
X105522770Y-128378983D01*
X105522772Y-128378983D01*
X105522775Y-128378985D01*
X105717497Y-128438053D01*
X105717496Y-128438053D01*
X105735652Y-128439841D01*
X105920000Y-128457998D01*
X106122503Y-128438053D01*
X106317225Y-128378985D01*
X106361047Y-128355562D01*
X106496675Y-128283067D01*
X106496681Y-128283064D01*
X106653975Y-128153975D01*
X106783064Y-127996681D01*
X106878985Y-127817225D01*
X106938053Y-127622503D01*
X106957998Y-127420000D01*
X107422002Y-127420000D01*
X107441946Y-127622501D01*
X107501016Y-127817229D01*
X107596932Y-127996675D01*
X107596936Y-127996682D01*
X107726024Y-128153975D01*
X107883317Y-128283063D01*
X107883324Y-128283067D01*
X108062770Y-128378983D01*
X108062772Y-128378983D01*
X108062775Y-128378985D01*
X108257497Y-128438053D01*
X108257496Y-128438053D01*
X108275652Y-128439841D01*
X108460000Y-128457998D01*
X108662503Y-128438053D01*
X108857225Y-128378985D01*
X108901047Y-128355562D01*
X109036675Y-128283067D01*
X109036681Y-128283064D01*
X109193975Y-128153975D01*
X109323064Y-127996681D01*
X109418985Y-127817225D01*
X109478053Y-127622503D01*
X109497998Y-127420000D01*
X109962002Y-127420000D01*
X109981946Y-127622501D01*
X110041016Y-127817229D01*
X110136932Y-127996675D01*
X110136936Y-127996682D01*
X110266024Y-128153975D01*
X110423317Y-128283063D01*
X110423324Y-128283067D01*
X110602770Y-128378983D01*
X110602772Y-128378983D01*
X110602775Y-128378985D01*
X110797497Y-128438053D01*
X110797496Y-128438053D01*
X110815652Y-128439841D01*
X111000000Y-128457998D01*
X111202503Y-128438053D01*
X111397225Y-128378985D01*
X111441047Y-128355562D01*
X111576675Y-128283067D01*
X111576681Y-128283064D01*
X111733975Y-128153975D01*
X111863064Y-127996681D01*
X111958985Y-127817225D01*
X112018053Y-127622503D01*
X112037998Y-127420000D01*
X112502002Y-127420000D01*
X112521946Y-127622501D01*
X112581016Y-127817229D01*
X112676932Y-127996675D01*
X112676936Y-127996682D01*
X112806024Y-128153975D01*
X112963317Y-128283063D01*
X112963324Y-128283067D01*
X113142770Y-128378983D01*
X113142772Y-128378983D01*
X113142775Y-128378985D01*
X113337497Y-128438053D01*
X113337496Y-128438053D01*
X113355652Y-128439841D01*
X113540000Y-128457998D01*
X113742503Y-128438053D01*
X113937225Y-128378985D01*
X113981047Y-128355562D01*
X114116675Y-128283067D01*
X114116681Y-128283064D01*
X114273975Y-128153975D01*
X114403064Y-127996681D01*
X114498985Y-127817225D01*
X114558053Y-127622503D01*
X114577998Y-127420000D01*
X115042002Y-127420000D01*
X115061946Y-127622501D01*
X115121016Y-127817229D01*
X115216932Y-127996675D01*
X115216936Y-127996682D01*
X115346024Y-128153975D01*
X115503317Y-128283063D01*
X115503324Y-128283067D01*
X115682770Y-128378983D01*
X115682772Y-128378983D01*
X115682775Y-128378985D01*
X115877497Y-128438053D01*
X115877496Y-128438053D01*
X115895652Y-128439841D01*
X116080000Y-128457998D01*
X116282503Y-128438053D01*
X116477225Y-128378985D01*
X116521047Y-128355562D01*
X116656675Y-128283067D01*
X116656681Y-128283064D01*
X116813975Y-128153975D01*
X116943064Y-127996681D01*
X117038985Y-127817225D01*
X117098053Y-127622503D01*
X117117998Y-127420000D01*
X117582002Y-127420000D01*
X117601946Y-127622501D01*
X117661016Y-127817229D01*
X117756932Y-127996675D01*
X117756936Y-127996682D01*
X117886024Y-128153975D01*
X118043317Y-128283063D01*
X118043324Y-128283067D01*
X118178953Y-128355562D01*
X118228797Y-128404524D01*
X118244500Y-128464920D01*
X118244500Y-129469435D01*
X118259409Y-129525076D01*
X118270091Y-129564941D01*
X118318396Y-129648606D01*
X118319527Y-129650564D01*
X118319528Y-129650566D01*
X119099525Y-130430562D01*
X119169438Y-130500475D01*
X119243589Y-130543286D01*
X119255059Y-130549909D01*
X119255063Y-130549911D01*
X119350564Y-130575500D01*
X119350565Y-130575500D01*
X119350566Y-130575500D01*
X129849435Y-130575500D01*
X129849436Y-130575500D01*
X129897186Y-130562705D01*
X129944938Y-130549910D01*
X130030562Y-130500475D01*
X130100475Y-130430562D01*
X131500474Y-129030563D01*
X131500475Y-129030562D01*
X131549910Y-128944938D01*
X131575500Y-128849435D01*
X131575500Y-126274500D01*
X131595185Y-126207461D01*
X131647989Y-126161706D01*
X131699500Y-126150500D01*
X132019750Y-126150500D01*
X132019751Y-126150499D01*
X132034568Y-126147552D01*
X132078229Y-126138868D01*
X132078229Y-126138867D01*
X132078231Y-126138867D01*
X132144552Y-126094552D01*
X132188867Y-126028231D01*
X132188867Y-126028229D01*
X132188868Y-126028229D01*
X132200499Y-125969752D01*
X132200500Y-125969750D01*
X132200500Y-125749500D01*
X132220185Y-125682461D01*
X132272989Y-125636706D01*
X132324500Y-125625500D01*
X138075500Y-125625500D01*
X138142539Y-125645185D01*
X138188294Y-125697989D01*
X138199500Y-125749500D01*
X138199500Y-125969752D01*
X138211131Y-126028229D01*
X138211132Y-126028230D01*
X138255447Y-126094552D01*
X138321769Y-126138867D01*
X138321770Y-126138868D01*
X138380247Y-126150499D01*
X138380250Y-126150500D01*
X138380252Y-126150500D01*
X140019750Y-126150500D01*
X140019751Y-126150499D01*
X140034568Y-126147552D01*
X140078229Y-126138868D01*
X140078229Y-126138867D01*
X140078231Y-126138867D01*
X140144552Y-126094552D01*
X140188867Y-126028231D01*
X140188867Y-126028229D01*
X140188868Y-126028229D01*
X140200499Y-125969752D01*
X140200500Y-125969750D01*
X140200500Y-125590672D01*
X141759500Y-125590672D01*
X141762343Y-125620993D01*
X141762345Y-125621005D01*
X141807037Y-125748724D01*
X141807038Y-125748726D01*
X141820510Y-125766980D01*
X141887394Y-125857605D01*
X141941834Y-125897783D01*
X141996274Y-125937962D01*
X142025024Y-125948022D01*
X142123994Y-125982654D01*
X142123998Y-125982654D01*
X142124002Y-125982656D01*
X142139167Y-125984078D01*
X142154328Y-125985500D01*
X142154332Y-125985500D01*
X143565672Y-125985500D01*
X143579148Y-125984236D01*
X143595998Y-125982656D01*
X143596002Y-125982654D01*
X143596005Y-125982654D01*
X143645949Y-125965177D01*
X143723726Y-125937962D01*
X143832605Y-125857605D01*
X143912962Y-125748726D01*
X143954653Y-125629581D01*
X143957654Y-125621005D01*
X143957654Y-125621002D01*
X143957656Y-125620998D01*
X143960500Y-125590668D01*
X143960500Y-124885000D01*
X144294785Y-124885000D01*
X144313602Y-125088082D01*
X144369417Y-125284247D01*
X144369422Y-125284260D01*
X144460327Y-125466821D01*
X144583237Y-125629581D01*
X144733958Y-125766980D01*
X144733960Y-125766982D01*
X144807551Y-125812547D01*
X144907363Y-125874348D01*
X145097544Y-125948024D01*
X145298024Y-125985500D01*
X145298026Y-125985500D01*
X145501974Y-125985500D01*
X145501976Y-125985500D01*
X145702456Y-125948024D01*
X145892637Y-125874348D01*
X146066041Y-125766981D01*
X146216764Y-125629579D01*
X146339673Y-125466821D01*
X146380984Y-125383854D01*
X146395292Y-125355123D01*
X146442794Y-125303886D01*
X146510457Y-125286464D01*
X146576798Y-125308389D01*
X146619848Y-125360584D01*
X146704515Y-125553606D01*
X146788812Y-125682633D01*
X147497861Y-124973584D01*
X147520667Y-125058694D01*
X147579910Y-125161306D01*
X147663694Y-125245090D01*
X147766306Y-125304333D01*
X147851414Y-125327138D01*
X147141201Y-126037351D01*
X147171649Y-126061050D01*
X147375697Y-126171476D01*
X147375706Y-126171479D01*
X147595139Y-126246811D01*
X147823993Y-126285000D01*
X148056007Y-126285000D01*
X148284860Y-126246811D01*
X148504293Y-126171479D01*
X148504301Y-126171476D01*
X148708355Y-126061047D01*
X148738797Y-126037351D01*
X148738798Y-126037350D01*
X148028585Y-125327137D01*
X148113694Y-125304333D01*
X148216306Y-125245090D01*
X148300090Y-125161306D01*
X148359333Y-125058694D01*
X148382138Y-124973585D01*
X149091186Y-125682633D01*
X149175482Y-125553611D01*
X149268682Y-125341135D01*
X149325638Y-125116218D01*
X149344798Y-124885005D01*
X149344798Y-124884994D01*
X149325638Y-124653781D01*
X149268682Y-124428864D01*
X149175484Y-124216393D01*
X149091186Y-124087365D01*
X148382137Y-124796414D01*
X148359333Y-124711306D01*
X148300090Y-124608694D01*
X148216306Y-124524910D01*
X148113694Y-124465667D01*
X148028584Y-124442861D01*
X148738797Y-123732647D01*
X148738797Y-123732645D01*
X148708360Y-123708955D01*
X148708354Y-123708951D01*
X148504302Y-123598523D01*
X148504293Y-123598520D01*
X148284860Y-123523188D01*
X148056007Y-123485000D01*
X147823993Y-123485000D01*
X147595139Y-123523188D01*
X147375706Y-123598520D01*
X147375697Y-123598523D01*
X147171650Y-123708949D01*
X147141200Y-123732647D01*
X147851415Y-124442861D01*
X147766306Y-124465667D01*
X147663694Y-124524910D01*
X147579910Y-124608694D01*
X147520667Y-124711306D01*
X147497861Y-124796415D01*
X146788811Y-124087365D01*
X146704516Y-124216390D01*
X146619848Y-124409415D01*
X146574892Y-124462901D01*
X146508156Y-124483591D01*
X146440828Y-124464916D01*
X146395292Y-124414877D01*
X146362738Y-124349500D01*
X146339673Y-124303179D01*
X146246148Y-124179332D01*
X146216762Y-124140418D01*
X146066041Y-124003019D01*
X146066039Y-124003017D01*
X145887763Y-123892634D01*
X145888620Y-123891248D01*
X145842987Y-123848934D01*
X145825500Y-123785444D01*
X145825500Y-121926853D01*
X145845185Y-121859814D01*
X145893205Y-121816368D01*
X145928220Y-121798528D01*
X146023528Y-121703220D01*
X146084719Y-121583126D01*
X146084720Y-121583121D01*
X146100500Y-121483493D01*
X146100500Y-120916506D01*
X146084720Y-120816878D01*
X146084719Y-120816876D01*
X146084719Y-120816874D01*
X146023528Y-120696780D01*
X146023526Y-120696778D01*
X146023523Y-120696774D01*
X145928225Y-120601476D01*
X145928221Y-120601473D01*
X145928220Y-120601472D01*
X145808126Y-120540281D01*
X145808124Y-120540280D01*
X145808121Y-120540279D01*
X145708493Y-120524500D01*
X145708488Y-120524500D01*
X145191512Y-120524500D01*
X145191507Y-120524500D01*
X145091878Y-120540279D01*
X144971778Y-120601473D01*
X144971774Y-120601476D01*
X144876476Y-120696774D01*
X144876473Y-120696778D01*
X144815279Y-120816878D01*
X144799500Y-120916506D01*
X144799500Y-121483493D01*
X144815279Y-121583121D01*
X144815280Y-121583124D01*
X144815281Y-121583126D01*
X144876472Y-121703220D01*
X144876473Y-121703221D01*
X144876476Y-121703225D01*
X144971774Y-121798523D01*
X144971777Y-121798525D01*
X144971780Y-121798528D01*
X145006794Y-121816368D01*
X145057590Y-121864342D01*
X145074500Y-121926853D01*
X145074500Y-123745960D01*
X145054815Y-123812999D01*
X145002011Y-123858754D01*
X144995294Y-123861586D01*
X144907374Y-123895646D01*
X144907359Y-123895653D01*
X144733960Y-124003017D01*
X144733958Y-124003019D01*
X144583237Y-124140418D01*
X144460327Y-124303178D01*
X144369422Y-124485739D01*
X144369417Y-124485752D01*
X144313602Y-124681917D01*
X144294785Y-124884999D01*
X144294785Y-124885000D01*
X143960500Y-124885000D01*
X143960500Y-124179332D01*
X143957656Y-124149002D01*
X143957654Y-124148998D01*
X143957654Y-124148994D01*
X143912962Y-124021275D01*
X143912962Y-124021274D01*
X143872783Y-123966834D01*
X143832605Y-123912394D01*
X143746619Y-123848934D01*
X143723726Y-123832038D01*
X143723724Y-123832037D01*
X143596005Y-123787345D01*
X143595993Y-123787343D01*
X143565672Y-123784500D01*
X143565668Y-123784500D01*
X142154332Y-123784500D01*
X142154328Y-123784500D01*
X142124006Y-123787343D01*
X142123994Y-123787345D01*
X141996275Y-123832037D01*
X141887394Y-123912394D01*
X141807037Y-124021275D01*
X141762345Y-124148994D01*
X141762343Y-124149006D01*
X141759500Y-124179327D01*
X141759500Y-125590672D01*
X140200500Y-125590672D01*
X140200500Y-124530249D01*
X140200499Y-124530247D01*
X140188868Y-124471770D01*
X140188867Y-124471769D01*
X140144552Y-124405447D01*
X140078230Y-124361132D01*
X140078229Y-124361131D01*
X140019752Y-124349500D01*
X140019748Y-124349500D01*
X138380252Y-124349500D01*
X138380247Y-124349500D01*
X138321770Y-124361131D01*
X138321769Y-124361132D01*
X138255447Y-124405447D01*
X138211132Y-124471769D01*
X138211131Y-124471770D01*
X138199500Y-124530247D01*
X138199500Y-124750500D01*
X138179815Y-124817539D01*
X138127011Y-124863294D01*
X138075500Y-124874500D01*
X132324500Y-124874500D01*
X132257461Y-124854815D01*
X132211706Y-124802011D01*
X132200500Y-124750500D01*
X132200500Y-124530249D01*
X132200499Y-124530247D01*
X132188868Y-124471770D01*
X132188867Y-124471769D01*
X132144552Y-124405447D01*
X132078230Y-124361132D01*
X132078229Y-124361131D01*
X132019752Y-124349500D01*
X132019748Y-124349500D01*
X130380252Y-124349500D01*
X130380247Y-124349500D01*
X130321770Y-124361131D01*
X130321769Y-124361132D01*
X130255447Y-124405447D01*
X130211132Y-124471769D01*
X130211131Y-124471770D01*
X130199500Y-124530247D01*
X130199500Y-125969752D01*
X130211131Y-126028229D01*
X130211132Y-126028230D01*
X130255447Y-126094552D01*
X130321769Y-126138867D01*
X130321770Y-126138868D01*
X130380247Y-126150499D01*
X130380250Y-126150500D01*
X130380252Y-126150500D01*
X130700500Y-126150500D01*
X130767539Y-126170185D01*
X130813294Y-126222989D01*
X130824500Y-126274500D01*
X130824500Y-128593101D01*
X130804815Y-128660140D01*
X130788181Y-128680782D01*
X129680782Y-129788181D01*
X129619459Y-129821666D01*
X129593101Y-129824500D01*
X126086123Y-129824500D01*
X126019084Y-129804815D01*
X125973329Y-129752011D01*
X125963385Y-129682853D01*
X125992410Y-129619297D01*
X126019083Y-129596185D01*
X126028951Y-129589842D01*
X126058543Y-129570825D01*
X126111347Y-129525070D01*
X126205567Y-129416336D01*
X126265338Y-129285459D01*
X126285023Y-129218420D01*
X126285024Y-129218416D01*
X126305500Y-129076000D01*
X126305500Y-123436527D01*
X126325185Y-123369488D01*
X126336180Y-123354872D01*
X126761677Y-122868590D01*
X131592328Y-117347844D01*
X131651288Y-117310355D01*
X131685648Y-117305500D01*
X143675990Y-117305500D01*
X143676000Y-117305500D01*
X143783456Y-117293947D01*
X143834967Y-117282741D01*
X143869197Y-117271347D01*
X143937497Y-117248616D01*
X143937501Y-117248613D01*
X143937504Y-117248613D01*
X144058543Y-117170825D01*
X144111347Y-117125070D01*
X144205567Y-117016336D01*
X144265338Y-116885459D01*
X144285023Y-116818420D01*
X144285024Y-116818416D01*
X144305500Y-116676000D01*
X144305500Y-115852931D01*
X144325185Y-115785892D01*
X144367500Y-115745544D01*
X144445562Y-115700475D01*
X144515475Y-115630562D01*
X144885474Y-115260563D01*
X144885475Y-115260562D01*
X144934910Y-115174938D01*
X144947819Y-115126760D01*
X144960500Y-115079436D01*
X144960500Y-114980564D01*
X144960500Y-111514271D01*
X144980185Y-111447232D01*
X145028203Y-111403787D01*
X145098342Y-111368050D01*
X145188050Y-111278342D01*
X145245646Y-111165304D01*
X145245646Y-111165302D01*
X145245647Y-111165301D01*
X145260499Y-111071524D01*
X145260500Y-111071519D01*
X145260499Y-110608482D01*
X145245646Y-110514696D01*
X145188050Y-110401658D01*
X145188046Y-110401654D01*
X145188045Y-110401652D01*
X145098347Y-110311954D01*
X145098344Y-110311952D01*
X145098342Y-110311950D01*
X145005348Y-110264567D01*
X144985301Y-110254352D01*
X144891524Y-110239500D01*
X144278482Y-110239500D01*
X144197519Y-110252323D01*
X144184696Y-110254354D01*
X144071658Y-110311950D01*
X144071657Y-110311951D01*
X144071652Y-110311954D01*
X143981954Y-110401652D01*
X143981947Y-110401661D01*
X143975164Y-110414974D01*
X143927187Y-110465768D01*
X143859365Y-110482560D01*
X143793231Y-110460019D01*
X143755250Y-110416988D01*
X143747080Y-110401657D01*
X143729100Y-110367915D01*
X143683345Y-110315111D01*
X143683339Y-110315104D01*
X143665757Y-110297160D01*
X143665756Y-110297159D01*
X143665754Y-110297157D01*
X143665752Y-110297156D01*
X143665750Y-110297154D01*
X143585940Y-110252511D01*
X143585935Y-110252509D01*
X143518903Y-110232826D01*
X143518899Y-110232825D01*
X143518898Y-110232825D01*
X143461000Y-110224500D01*
X143460996Y-110224500D01*
X143133745Y-110224500D01*
X143077452Y-110210985D01*
X142968126Y-110155281D01*
X142968124Y-110155280D01*
X142968121Y-110155279D01*
X142868493Y-110139500D01*
X142868488Y-110139500D01*
X142301512Y-110139500D01*
X142301507Y-110139500D01*
X142201878Y-110155279D01*
X142201874Y-110155280D01*
X142201874Y-110155281D01*
X142092547Y-110210985D01*
X142038013Y-110224077D01*
X142038024Y-110224455D01*
X142036377Y-110224499D01*
X142014381Y-110225678D01*
X141988034Y-110228511D01*
X141988032Y-110228512D01*
X141911521Y-110252470D01*
X141911516Y-110252471D01*
X141850188Y-110285960D01*
X141803384Y-110320998D01*
X141803363Y-110321016D01*
X141472181Y-110652199D01*
X141410858Y-110685684D01*
X141341166Y-110680700D01*
X141285233Y-110638828D01*
X141260816Y-110573364D01*
X141260500Y-110564518D01*
X141260500Y-110202965D01*
X141280185Y-110135926D01*
X141296819Y-110115284D01*
X141695285Y-109716819D01*
X141756608Y-109683334D01*
X141782966Y-109680500D01*
X141897390Y-109680500D01*
X141964429Y-109700185D01*
X141985072Y-109716819D01*
X141986470Y-109718217D01*
X141986472Y-109718220D01*
X142081780Y-109813528D01*
X142201874Y-109874719D01*
X142201876Y-109874719D01*
X142201878Y-109874720D01*
X142301507Y-109890500D01*
X142301512Y-109890500D01*
X142868493Y-109890500D01*
X142968121Y-109874720D01*
X142968121Y-109874719D01*
X142968126Y-109874719D01*
X143088220Y-109813528D01*
X143183528Y-109718220D01*
X143244719Y-109598126D01*
X143244720Y-109598121D01*
X143260500Y-109498493D01*
X143260500Y-108981506D01*
X143244720Y-108881878D01*
X143244719Y-108881876D01*
X143244719Y-108881874D01*
X143183528Y-108761780D01*
X143183526Y-108761778D01*
X143183523Y-108761774D01*
X143088225Y-108666476D01*
X143088221Y-108666473D01*
X143088220Y-108666472D01*
X142968126Y-108605281D01*
X142968124Y-108605280D01*
X142968121Y-108605279D01*
X142868493Y-108589500D01*
X142868488Y-108589500D01*
X142301512Y-108589500D01*
X142301507Y-108589500D01*
X142201878Y-108605279D01*
X142081778Y-108666473D01*
X142081774Y-108666476D01*
X142005070Y-108743181D01*
X141943747Y-108776666D01*
X141917389Y-108779500D01*
X141485691Y-108779500D01*
X141399758Y-108802525D01*
X141371113Y-108810201D01*
X141268386Y-108869509D01*
X141268384Y-108869511D01*
X140984715Y-109153181D01*
X140923392Y-109186666D01*
X140897034Y-109189500D01*
X140440247Y-109189500D01*
X140381770Y-109201131D01*
X140381766Y-109201133D01*
X140353890Y-109219760D01*
X140287213Y-109240638D01*
X140219833Y-109222153D01*
X140216110Y-109219760D01*
X140188233Y-109201133D01*
X140188229Y-109201131D01*
X140129752Y-109189500D01*
X140129748Y-109189500D01*
X139490252Y-109189500D01*
X139490247Y-109189500D01*
X139431770Y-109201131D01*
X139431769Y-109201132D01*
X139365450Y-109245445D01*
X139365446Y-109245450D01*
X139364289Y-109247182D01*
X139358222Y-109252674D01*
X139356816Y-109254081D01*
X139356746Y-109254011D01*
X139327591Y-109280406D01*
X139328656Y-109281957D01*
X139322917Y-109285898D01*
X139270104Y-109331660D01*
X139252160Y-109349242D01*
X139252154Y-109349249D01*
X139207511Y-109429059D01*
X139207509Y-109429064D01*
X139187826Y-109496096D01*
X139187825Y-109496101D01*
X139187825Y-109496102D01*
X139185065Y-109515302D01*
X139179500Y-109554003D01*
X139179500Y-113506007D01*
X139184197Y-113549686D01*
X139195397Y-113601174D01*
X139197890Y-113611372D01*
X139197891Y-113611375D01*
X139240899Y-113692083D01*
X139244844Y-113697827D01*
X139242966Y-113699116D01*
X139267508Y-113752842D01*
X139257571Y-113822001D01*
X139211821Y-113874809D01*
X139144783Y-113894500D01*
X131252199Y-113894500D01*
X131210451Y-113896858D01*
X131195267Y-113897716D01*
X131167532Y-113900859D01*
X131167522Y-113900861D01*
X131159131Y-113902295D01*
X131111335Y-113910463D01*
X130977115Y-113962287D01*
X130916174Y-113996477D01*
X130801989Y-114084020D01*
X122273785Y-122810554D01*
X122239867Y-122848979D01*
X122224255Y-122868584D01*
X122224252Y-122868588D01*
X122194431Y-122910194D01*
X122194431Y-122910195D01*
X122134664Y-123041063D01*
X122114976Y-123108111D01*
X122094500Y-123250530D01*
X122094500Y-126209460D01*
X122074815Y-126276499D01*
X122022011Y-126322254D01*
X121952853Y-126332198D01*
X121899376Y-126311035D01*
X121828794Y-126261613D01*
X121617484Y-126163078D01*
X121617478Y-126163075D01*
X121392272Y-126102731D01*
X121392264Y-126102730D01*
X121160002Y-126082410D01*
X121159998Y-126082410D01*
X120927735Y-126102730D01*
X120927727Y-126102731D01*
X120702521Y-126163075D01*
X120702515Y-126163078D01*
X120491202Y-126261614D01*
X120411190Y-126317637D01*
X120985682Y-126892129D01*
X120945778Y-126902822D01*
X120819222Y-126975890D01*
X120715890Y-127079222D01*
X120642822Y-127205778D01*
X120632129Y-127245681D01*
X120057638Y-126671190D01*
X120057637Y-126671190D01*
X120001614Y-126751202D01*
X119903078Y-126962515D01*
X119903075Y-126962521D01*
X119854884Y-127142375D01*
X119818519Y-127202035D01*
X119755672Y-127232564D01*
X119686296Y-127224269D01*
X119632418Y-127179784D01*
X119616448Y-127146276D01*
X119615265Y-127142375D01*
X119578985Y-127022775D01*
X119578983Y-127022772D01*
X119578983Y-127022770D01*
X119483067Y-126843324D01*
X119483063Y-126843317D01*
X119353975Y-126686024D01*
X119196682Y-126556936D01*
X119196675Y-126556932D01*
X119017229Y-126461016D01*
X118919864Y-126431481D01*
X118822503Y-126401947D01*
X118822501Y-126401946D01*
X118822503Y-126401946D01*
X118620000Y-126382002D01*
X118417498Y-126401946D01*
X118222770Y-126461016D01*
X118043324Y-126556932D01*
X118043317Y-126556936D01*
X117886024Y-126686024D01*
X117756936Y-126843317D01*
X117756932Y-126843324D01*
X117661016Y-127022770D01*
X117601946Y-127217498D01*
X117582002Y-127420000D01*
X117117998Y-127420000D01*
X117098053Y-127217497D01*
X117038985Y-127022775D01*
X117038983Y-127022772D01*
X117038983Y-127022770D01*
X116943067Y-126843324D01*
X116943063Y-126843317D01*
X116813975Y-126686024D01*
X116656682Y-126556936D01*
X116656675Y-126556932D01*
X116477229Y-126461016D01*
X116379864Y-126431481D01*
X116282503Y-126401947D01*
X116282501Y-126401946D01*
X116282503Y-126401946D01*
X116080000Y-126382002D01*
X115877498Y-126401946D01*
X115682770Y-126461016D01*
X115503324Y-126556932D01*
X115503317Y-126556936D01*
X115346024Y-126686024D01*
X115216936Y-126843317D01*
X115216932Y-126843324D01*
X115121016Y-127022770D01*
X115061946Y-127217498D01*
X115042002Y-127420000D01*
X114577998Y-127420000D01*
X114558053Y-127217497D01*
X114498985Y-127022775D01*
X114498983Y-127022772D01*
X114498983Y-127022770D01*
X114403067Y-126843324D01*
X114403063Y-126843317D01*
X114273975Y-126686024D01*
X114116682Y-126556936D01*
X114116675Y-126556932D01*
X113937229Y-126461016D01*
X113839864Y-126431481D01*
X113742503Y-126401947D01*
X113742501Y-126401946D01*
X113742503Y-126401946D01*
X113540000Y-126382002D01*
X113337498Y-126401946D01*
X113142770Y-126461016D01*
X112963324Y-126556932D01*
X112963317Y-126556936D01*
X112806024Y-126686024D01*
X112676936Y-126843317D01*
X112676932Y-126843324D01*
X112581016Y-127022770D01*
X112521946Y-127217498D01*
X112502002Y-127420000D01*
X112037998Y-127420000D01*
X112018053Y-127217497D01*
X111958985Y-127022775D01*
X111958983Y-127022772D01*
X111958983Y-127022770D01*
X111863067Y-126843324D01*
X111863063Y-126843317D01*
X111733975Y-126686024D01*
X111576682Y-126556936D01*
X111576675Y-126556932D01*
X111397229Y-126461016D01*
X111299864Y-126431481D01*
X111202503Y-126401947D01*
X111202501Y-126401946D01*
X111202503Y-126401946D01*
X111000000Y-126382002D01*
X110797498Y-126401946D01*
X110602770Y-126461016D01*
X110423324Y-126556932D01*
X110423317Y-126556936D01*
X110266024Y-126686024D01*
X110136936Y-126843317D01*
X110136932Y-126843324D01*
X110041016Y-127022770D01*
X109981946Y-127217498D01*
X109962002Y-127420000D01*
X109497998Y-127420000D01*
X109478053Y-127217497D01*
X109418985Y-127022775D01*
X109418983Y-127022772D01*
X109418983Y-127022770D01*
X109323067Y-126843324D01*
X109323063Y-126843317D01*
X109193975Y-126686024D01*
X109036682Y-126556936D01*
X109036675Y-126556932D01*
X108857229Y-126461016D01*
X108759864Y-126431481D01*
X108662503Y-126401947D01*
X108662501Y-126401946D01*
X108662503Y-126401946D01*
X108460000Y-126382002D01*
X108257498Y-126401946D01*
X108062770Y-126461016D01*
X107883324Y-126556932D01*
X107883317Y-126556936D01*
X107726024Y-126686024D01*
X107596936Y-126843317D01*
X107596932Y-126843324D01*
X107501016Y-127022770D01*
X107441946Y-127217498D01*
X107422002Y-127420000D01*
X106957998Y-127420000D01*
X106938053Y-127217497D01*
X106878985Y-127022775D01*
X106878983Y-127022772D01*
X106878983Y-127022770D01*
X106783067Y-126843324D01*
X106783063Y-126843317D01*
X106653975Y-126686024D01*
X106496682Y-126556936D01*
X106496675Y-126556932D01*
X106317229Y-126461016D01*
X106219864Y-126431481D01*
X106122503Y-126401947D01*
X106122501Y-126401946D01*
X106122503Y-126401946D01*
X105920000Y-126382002D01*
X105717498Y-126401946D01*
X105522770Y-126461016D01*
X105343324Y-126556932D01*
X105343317Y-126556936D01*
X105186024Y-126686024D01*
X105056936Y-126843317D01*
X105056932Y-126843324D01*
X104961016Y-127022770D01*
X104901946Y-127217498D01*
X104882002Y-127420000D01*
X104417998Y-127420000D01*
X104398053Y-127217497D01*
X104338985Y-127022775D01*
X104338983Y-127022772D01*
X104338983Y-127022770D01*
X104243067Y-126843324D01*
X104243063Y-126843317D01*
X104113975Y-126686024D01*
X103956682Y-126556936D01*
X103956675Y-126556932D01*
X103777229Y-126461016D01*
X103679864Y-126431481D01*
X103582503Y-126401947D01*
X103582501Y-126401946D01*
X103582503Y-126401946D01*
X103380000Y-126382002D01*
X103177498Y-126401946D01*
X102982770Y-126461016D01*
X102803324Y-126556932D01*
X102803317Y-126556936D01*
X102646024Y-126686024D01*
X102516936Y-126843317D01*
X102516932Y-126843324D01*
X102421016Y-127022770D01*
X102361946Y-127217498D01*
X102342002Y-127420000D01*
X101877998Y-127420000D01*
X101858053Y-127217497D01*
X101798985Y-127022775D01*
X101798983Y-127022772D01*
X101798983Y-127022770D01*
X101703067Y-126843324D01*
X101703063Y-126843317D01*
X101573975Y-126686024D01*
X101416682Y-126556936D01*
X101416675Y-126556932D01*
X101237229Y-126461016D01*
X101139864Y-126431481D01*
X101042503Y-126401947D01*
X101042501Y-126401946D01*
X101042503Y-126401946D01*
X100840000Y-126382002D01*
X100637498Y-126401946D01*
X100442770Y-126461016D01*
X100263324Y-126556932D01*
X100263317Y-126556936D01*
X100106024Y-126686024D01*
X99976936Y-126843317D01*
X99976932Y-126843324D01*
X99881016Y-127022770D01*
X99821946Y-127217498D01*
X99802002Y-127420000D01*
X99337998Y-127420000D01*
X99318053Y-127217497D01*
X99258985Y-127022775D01*
X99258983Y-127022772D01*
X99258983Y-127022770D01*
X99163067Y-126843324D01*
X99163063Y-126843317D01*
X99033975Y-126686024D01*
X98876682Y-126556936D01*
X98876675Y-126556932D01*
X98697229Y-126461016D01*
X98599864Y-126431481D01*
X98502503Y-126401947D01*
X98502501Y-126401946D01*
X98502503Y-126401946D01*
X98300000Y-126382002D01*
X98097498Y-126401946D01*
X97902770Y-126461016D01*
X97723324Y-126556932D01*
X97723317Y-126556936D01*
X97566024Y-126686024D01*
X97436936Y-126843317D01*
X97436932Y-126843324D01*
X97341016Y-127022770D01*
X97281946Y-127217498D01*
X97262002Y-127420000D01*
X96797998Y-127420000D01*
X96778053Y-127217497D01*
X96718985Y-127022775D01*
X96718983Y-127022772D01*
X96718983Y-127022770D01*
X96623067Y-126843324D01*
X96623063Y-126843317D01*
X96493975Y-126686024D01*
X96336682Y-126556936D01*
X96336675Y-126556932D01*
X96157229Y-126461016D01*
X96059864Y-126431481D01*
X95962503Y-126401947D01*
X95962501Y-126401946D01*
X95962503Y-126401946D01*
X95760000Y-126382002D01*
X95557498Y-126401946D01*
X95362770Y-126461016D01*
X95183324Y-126556932D01*
X95183317Y-126556936D01*
X95026024Y-126686024D01*
X94896936Y-126843317D01*
X94896932Y-126843324D01*
X94801016Y-127022770D01*
X94741946Y-127217498D01*
X94722002Y-127420000D01*
X93000000Y-127420000D01*
X93000000Y-115049125D01*
X93019685Y-114982086D01*
X93036319Y-114961444D01*
X93115690Y-114882073D01*
X93226760Y-114729199D01*
X93312547Y-114560832D01*
X93370940Y-114381118D01*
X93400500Y-114194486D01*
X93400500Y-112180000D01*
X94722002Y-112180000D01*
X94741946Y-112382501D01*
X94801016Y-112577229D01*
X94896932Y-112756675D01*
X94896936Y-112756682D01*
X95026024Y-112913975D01*
X95183317Y-113043063D01*
X95183324Y-113043067D01*
X95362770Y-113138983D01*
X95362772Y-113138983D01*
X95362775Y-113138985D01*
X95557497Y-113198053D01*
X95557496Y-113198053D01*
X95575652Y-113199841D01*
X95760000Y-113217998D01*
X95962503Y-113198053D01*
X96157225Y-113138985D01*
X96336681Y-113043064D01*
X96493975Y-112913975D01*
X96623064Y-112756681D01*
X96718985Y-112577225D01*
X96778053Y-112382503D01*
X96797998Y-112180000D01*
X97262002Y-112180000D01*
X97281946Y-112382501D01*
X97341016Y-112577229D01*
X97436932Y-112756675D01*
X97436936Y-112756682D01*
X97566024Y-112913975D01*
X97723317Y-113043063D01*
X97723324Y-113043067D01*
X97902770Y-113138983D01*
X97902772Y-113138983D01*
X97902775Y-113138985D01*
X98097497Y-113198053D01*
X98097496Y-113198053D01*
X98115652Y-113199841D01*
X98300000Y-113217998D01*
X98502503Y-113198053D01*
X98697225Y-113138985D01*
X98876681Y-113043064D01*
X99033975Y-112913975D01*
X99163064Y-112756681D01*
X99258985Y-112577225D01*
X99318053Y-112382503D01*
X99337998Y-112180000D01*
X99802002Y-112180000D01*
X99821946Y-112382501D01*
X99881016Y-112577229D01*
X99976932Y-112756675D01*
X99976936Y-112756682D01*
X100106024Y-112913975D01*
X100263317Y-113043063D01*
X100263324Y-113043067D01*
X100442770Y-113138983D01*
X100442772Y-113138983D01*
X100442775Y-113138985D01*
X100637497Y-113198053D01*
X100637496Y-113198053D01*
X100655652Y-113199841D01*
X100840000Y-113217998D01*
X101042503Y-113198053D01*
X101237225Y-113138985D01*
X101416681Y-113043064D01*
X101573975Y-112913975D01*
X101703064Y-112756681D01*
X101798985Y-112577225D01*
X101858053Y-112382503D01*
X101877998Y-112180000D01*
X102342002Y-112180000D01*
X102361946Y-112382501D01*
X102421016Y-112577229D01*
X102516932Y-112756675D01*
X102516936Y-112756682D01*
X102646024Y-112913975D01*
X102803317Y-113043063D01*
X102803324Y-113043067D01*
X102982770Y-113138983D01*
X102982772Y-113138983D01*
X102982775Y-113138985D01*
X103177497Y-113198053D01*
X103177496Y-113198053D01*
X103195652Y-113199841D01*
X103380000Y-113217998D01*
X103582503Y-113198053D01*
X103777225Y-113138985D01*
X103956681Y-113043064D01*
X104113975Y-112913975D01*
X104243064Y-112756681D01*
X104338985Y-112577225D01*
X104398053Y-112382503D01*
X104417998Y-112180000D01*
X104882002Y-112180000D01*
X104901946Y-112382501D01*
X104961016Y-112577229D01*
X105056932Y-112756675D01*
X105056936Y-112756682D01*
X105186024Y-112913975D01*
X105343317Y-113043063D01*
X105343324Y-113043067D01*
X105522770Y-113138983D01*
X105522772Y-113138983D01*
X105522775Y-113138985D01*
X105717497Y-113198053D01*
X105717496Y-113198053D01*
X105735652Y-113199841D01*
X105920000Y-113217998D01*
X106122503Y-113198053D01*
X106317225Y-113138985D01*
X106496681Y-113043064D01*
X106653975Y-112913975D01*
X106783064Y-112756681D01*
X106878985Y-112577225D01*
X106938053Y-112382503D01*
X106957998Y-112180000D01*
X107422002Y-112180000D01*
X107441946Y-112382501D01*
X107501016Y-112577229D01*
X107596932Y-112756675D01*
X107596936Y-112756682D01*
X107726024Y-112913975D01*
X107883317Y-113043063D01*
X107883324Y-113043067D01*
X108062770Y-113138983D01*
X108062772Y-113138983D01*
X108062775Y-113138985D01*
X108257497Y-113198053D01*
X108257496Y-113198053D01*
X108275652Y-113199841D01*
X108460000Y-113217998D01*
X108662503Y-113198053D01*
X108857225Y-113138985D01*
X109036681Y-113043064D01*
X109193975Y-112913975D01*
X109323064Y-112756681D01*
X109418985Y-112577225D01*
X109478053Y-112382503D01*
X109497998Y-112180000D01*
X109478053Y-111977497D01*
X109418985Y-111782775D01*
X109418983Y-111782772D01*
X109418983Y-111782770D01*
X109323067Y-111603324D01*
X109323063Y-111603317D01*
X109193975Y-111446024D01*
X109036682Y-111316936D01*
X109036675Y-111316932D01*
X108857229Y-111221016D01*
X108759864Y-111191481D01*
X108662503Y-111161947D01*
X108662501Y-111161946D01*
X108662503Y-111161946D01*
X108460000Y-111142002D01*
X108257498Y-111161946D01*
X108062770Y-111221016D01*
X107883324Y-111316932D01*
X107883317Y-111316936D01*
X107726024Y-111446024D01*
X107596936Y-111603317D01*
X107596932Y-111603324D01*
X107501016Y-111782770D01*
X107441946Y-111977498D01*
X107422002Y-112180000D01*
X106957998Y-112180000D01*
X106938053Y-111977497D01*
X106878985Y-111782775D01*
X106878983Y-111782772D01*
X106878983Y-111782770D01*
X106783067Y-111603324D01*
X106783063Y-111603317D01*
X106653975Y-111446024D01*
X106496682Y-111316936D01*
X106496675Y-111316932D01*
X106317229Y-111221016D01*
X106219864Y-111191481D01*
X106122503Y-111161947D01*
X106122501Y-111161946D01*
X106122503Y-111161946D01*
X105920000Y-111142002D01*
X105717498Y-111161946D01*
X105522770Y-111221016D01*
X105343324Y-111316932D01*
X105343317Y-111316936D01*
X105186024Y-111446024D01*
X105056936Y-111603317D01*
X105056932Y-111603324D01*
X104961016Y-111782770D01*
X104901946Y-111977498D01*
X104882002Y-112180000D01*
X104417998Y-112180000D01*
X104398053Y-111977497D01*
X104338985Y-111782775D01*
X104338983Y-111782772D01*
X104338983Y-111782770D01*
X104243067Y-111603324D01*
X104243063Y-111603317D01*
X104113975Y-111446024D01*
X103956682Y-111316936D01*
X103956675Y-111316932D01*
X103777229Y-111221016D01*
X103679864Y-111191481D01*
X103582503Y-111161947D01*
X103582501Y-111161946D01*
X103582503Y-111161946D01*
X103380000Y-111142002D01*
X103177498Y-111161946D01*
X102982770Y-111221016D01*
X102803324Y-111316932D01*
X102803317Y-111316936D01*
X102646024Y-111446024D01*
X102516936Y-111603317D01*
X102516932Y-111603324D01*
X102421016Y-111782770D01*
X102361946Y-111977498D01*
X102342002Y-112180000D01*
X101877998Y-112180000D01*
X101858053Y-111977497D01*
X101798985Y-111782775D01*
X101798983Y-111782772D01*
X101798983Y-111782770D01*
X101703067Y-111603324D01*
X101703063Y-111603317D01*
X101573975Y-111446024D01*
X101416682Y-111316936D01*
X101416675Y-111316932D01*
X101237229Y-111221016D01*
X101139864Y-111191481D01*
X101042503Y-111161947D01*
X101042501Y-111161946D01*
X101042503Y-111161946D01*
X100840000Y-111142002D01*
X100637498Y-111161946D01*
X100442770Y-111221016D01*
X100263324Y-111316932D01*
X100263317Y-111316936D01*
X100106024Y-111446024D01*
X99976936Y-111603317D01*
X99976932Y-111603324D01*
X99881016Y-111782770D01*
X99821946Y-111977498D01*
X99802002Y-112180000D01*
X99337998Y-112180000D01*
X99318053Y-111977497D01*
X99258985Y-111782775D01*
X99258983Y-111782772D01*
X99258983Y-111782770D01*
X99163067Y-111603324D01*
X99163063Y-111603317D01*
X99033975Y-111446024D01*
X98876682Y-111316936D01*
X98876675Y-111316932D01*
X98697229Y-111221016D01*
X98599864Y-111191481D01*
X98502503Y-111161947D01*
X98502501Y-111161946D01*
X98502503Y-111161946D01*
X98300000Y-111142002D01*
X98097498Y-111161946D01*
X97902770Y-111221016D01*
X97723324Y-111316932D01*
X97723317Y-111316936D01*
X97566024Y-111446024D01*
X97436936Y-111603317D01*
X97436932Y-111603324D01*
X97341016Y-111782770D01*
X97281946Y-111977498D01*
X97262002Y-112180000D01*
X96797998Y-112180000D01*
X96778053Y-111977497D01*
X96718985Y-111782775D01*
X96718983Y-111782772D01*
X96718983Y-111782770D01*
X96623067Y-111603324D01*
X96623063Y-111603317D01*
X96493975Y-111446024D01*
X96336682Y-111316936D01*
X96336675Y-111316932D01*
X96157229Y-111221016D01*
X96059864Y-111191481D01*
X95962503Y-111161947D01*
X95962501Y-111161946D01*
X95962503Y-111161946D01*
X95760000Y-111142002D01*
X95557498Y-111161946D01*
X95362770Y-111221016D01*
X95183324Y-111316932D01*
X95183317Y-111316936D01*
X95026024Y-111446024D01*
X94896936Y-111603317D01*
X94896932Y-111603324D01*
X94801016Y-111782770D01*
X94741946Y-111977498D01*
X94722002Y-112180000D01*
X93400500Y-112180000D01*
X93400500Y-110724000D01*
X93420185Y-110656961D01*
X93472989Y-110611206D01*
X93524500Y-110600000D01*
X108799999Y-110600000D01*
X108800000Y-110600000D01*
X108742436Y-90280000D01*
X124105073Y-90280000D01*
X124124737Y-90492216D01*
X124124738Y-90492219D01*
X124183058Y-90697196D01*
X124183064Y-90697211D01*
X124278061Y-90887991D01*
X124278064Y-90887996D01*
X124286836Y-90899610D01*
X124860000Y-90326446D01*
X124860000Y-90332661D01*
X124887259Y-90434394D01*
X124939920Y-90525606D01*
X125014394Y-90600080D01*
X125105606Y-90652741D01*
X125207339Y-90680000D01*
X125213553Y-90680000D01*
X124642991Y-91250559D01*
X124745204Y-91313847D01*
X124745208Y-91313849D01*
X124943936Y-91390836D01*
X124943941Y-91390837D01*
X125153439Y-91430000D01*
X125366561Y-91430000D01*
X125576058Y-91390837D01*
X125576063Y-91390836D01*
X125774791Y-91313849D01*
X125774798Y-91313846D01*
X125877006Y-91250560D01*
X125877006Y-91250559D01*
X125306448Y-90680000D01*
X125312661Y-90680000D01*
X125414394Y-90652741D01*
X125505606Y-90600080D01*
X125580080Y-90525606D01*
X125632741Y-90434394D01*
X125660000Y-90332661D01*
X125660000Y-90326447D01*
X126233162Y-90899609D01*
X126233163Y-90899609D01*
X126241940Y-90887988D01*
X126241942Y-90887985D01*
X126336933Y-90697216D01*
X126336941Y-90697196D01*
X126395261Y-90492219D01*
X126395262Y-90492216D01*
X126402529Y-90413794D01*
X126428315Y-90348856D01*
X126485116Y-90308169D01*
X126554897Y-90304649D01*
X126615503Y-90339414D01*
X126647693Y-90401427D01*
X126650000Y-90425235D01*
X126650000Y-90977844D01*
X126656401Y-91037372D01*
X126656403Y-91037379D01*
X126706645Y-91172086D01*
X126706649Y-91172093D01*
X126792809Y-91287187D01*
X126792812Y-91287190D01*
X126907906Y-91373350D01*
X126907913Y-91373354D01*
X127042620Y-91423596D01*
X127042627Y-91423598D01*
X127102155Y-91429999D01*
X127102172Y-91430000D01*
X127550000Y-91430000D01*
X127550000Y-90595686D01*
X127554394Y-90600080D01*
X127645606Y-90652741D01*
X127747339Y-90680000D01*
X127852661Y-90680000D01*
X127954394Y-90652741D01*
X128045606Y-90600080D01*
X128050000Y-90595686D01*
X128050000Y-91430000D01*
X128497828Y-91430000D01*
X128497844Y-91429999D01*
X128557372Y-91423598D01*
X128557379Y-91423596D01*
X128620630Y-91400005D01*
X137494859Y-91400005D01*
X137515385Y-91647729D01*
X137515387Y-91647738D01*
X137576412Y-91888717D01*
X137676266Y-92116364D01*
X137776564Y-92269882D01*
X138517037Y-91529409D01*
X138534075Y-91592993D01*
X138599901Y-91707007D01*
X138692993Y-91800099D01*
X138807007Y-91865925D01*
X138870590Y-91882962D01*
X138129942Y-92623609D01*
X138176768Y-92660055D01*
X138176770Y-92660056D01*
X138395385Y-92778364D01*
X138395396Y-92778369D01*
X138630506Y-92859083D01*
X138875707Y-92900000D01*
X139124293Y-92900000D01*
X139369493Y-92859083D01*
X139604603Y-92778369D01*
X139604614Y-92778364D01*
X139823228Y-92660057D01*
X139823231Y-92660055D01*
X139870056Y-92623609D01*
X139129409Y-91882962D01*
X139192993Y-91865925D01*
X139307007Y-91800099D01*
X139400099Y-91707007D01*
X139465925Y-91592993D01*
X139482962Y-91529410D01*
X140223434Y-92269882D01*
X140323731Y-92116369D01*
X140423587Y-91888717D01*
X140484612Y-91647738D01*
X140484614Y-91647729D01*
X140505141Y-91400005D01*
X140505141Y-91399994D01*
X140484614Y-91152270D01*
X140484612Y-91152261D01*
X140423587Y-90911282D01*
X140323731Y-90683630D01*
X140223434Y-90530116D01*
X139482962Y-91270589D01*
X139465925Y-91207007D01*
X139400099Y-91092993D01*
X139307007Y-90999901D01*
X139192993Y-90934075D01*
X139129410Y-90917037D01*
X139870057Y-90176390D01*
X139870056Y-90176389D01*
X139823229Y-90139943D01*
X139604614Y-90021635D01*
X139604603Y-90021630D01*
X139369493Y-89940916D01*
X139124293Y-89900000D01*
X138875707Y-89900000D01*
X138630506Y-89940916D01*
X138395396Y-90021630D01*
X138395390Y-90021632D01*
X138176761Y-90139949D01*
X138129942Y-90176388D01*
X138129942Y-90176390D01*
X138870590Y-90917037D01*
X138807007Y-90934075D01*
X138692993Y-90999901D01*
X138599901Y-91092993D01*
X138534075Y-91207007D01*
X138517037Y-91270589D01*
X137776564Y-90530116D01*
X137676267Y-90683632D01*
X137576412Y-90911282D01*
X137515387Y-91152261D01*
X137515385Y-91152270D01*
X137494859Y-91399994D01*
X137494859Y-91400005D01*
X128620630Y-91400005D01*
X128692086Y-91373354D01*
X128692093Y-91373350D01*
X128807187Y-91287190D01*
X128807190Y-91287187D01*
X128893350Y-91172093D01*
X128893354Y-91172086D01*
X128943596Y-91037379D01*
X128943598Y-91037372D01*
X128949999Y-90977844D01*
X128950000Y-90977827D01*
X128950000Y-90530000D01*
X128115686Y-90530000D01*
X128120080Y-90525606D01*
X128172741Y-90434394D01*
X128200000Y-90332661D01*
X128200000Y-90227339D01*
X128172741Y-90125606D01*
X128120080Y-90034394D01*
X128115686Y-90030000D01*
X128950000Y-90030000D01*
X128950000Y-89582172D01*
X128949999Y-89582155D01*
X128943598Y-89522627D01*
X128943596Y-89522620D01*
X128893354Y-89387913D01*
X128893350Y-89387906D01*
X128807190Y-89272812D01*
X128807187Y-89272809D01*
X128692093Y-89186649D01*
X128692086Y-89186645D01*
X128557379Y-89136403D01*
X128557372Y-89136401D01*
X128497844Y-89130000D01*
X128050000Y-89130000D01*
X128050000Y-89964314D01*
X128045606Y-89959920D01*
X127954394Y-89907259D01*
X127852661Y-89880000D01*
X127747339Y-89880000D01*
X127645606Y-89907259D01*
X127554394Y-89959920D01*
X127550000Y-89964314D01*
X127550000Y-89130000D01*
X127102155Y-89130000D01*
X127042627Y-89136401D01*
X127042620Y-89136403D01*
X126907913Y-89186645D01*
X126907906Y-89186649D01*
X126792812Y-89272809D01*
X126792809Y-89272812D01*
X126706649Y-89387906D01*
X126706645Y-89387913D01*
X126656403Y-89522620D01*
X126656401Y-89522627D01*
X126650000Y-89582155D01*
X126650000Y-90134764D01*
X126630315Y-90201803D01*
X126577511Y-90247558D01*
X126508353Y-90257502D01*
X126444797Y-90228477D01*
X126407023Y-90169699D01*
X126402529Y-90146205D01*
X126395262Y-90067783D01*
X126395261Y-90067780D01*
X126336941Y-89862803D01*
X126336933Y-89862783D01*
X126241942Y-89672014D01*
X126241937Y-89672006D01*
X126233163Y-89660389D01*
X125660000Y-90233552D01*
X125660000Y-90227339D01*
X125632741Y-90125606D01*
X125580080Y-90034394D01*
X125505606Y-89959920D01*
X125414394Y-89907259D01*
X125312661Y-89880000D01*
X125306448Y-89880000D01*
X125877007Y-89309439D01*
X125774793Y-89246151D01*
X125774789Y-89246149D01*
X125576063Y-89169163D01*
X125576058Y-89169162D01*
X125366561Y-89130000D01*
X125153439Y-89130000D01*
X124943941Y-89169162D01*
X124943936Y-89169163D01*
X124745210Y-89246149D01*
X124745201Y-89246154D01*
X124642992Y-89309438D01*
X124642991Y-89309439D01*
X125213553Y-89880000D01*
X125207339Y-89880000D01*
X125105606Y-89907259D01*
X125014394Y-89959920D01*
X124939920Y-90034394D01*
X124887259Y-90125606D01*
X124860000Y-90227339D01*
X124860000Y-90233552D01*
X124286836Y-89660388D01*
X124278059Y-89672010D01*
X124183066Y-89862783D01*
X124183058Y-89862803D01*
X124124738Y-90067780D01*
X124124737Y-90067783D01*
X124105073Y-90279999D01*
X124105073Y-90280000D01*
X108742436Y-90280000D01*
X108622932Y-48095004D01*
X140539669Y-48095004D01*
X140559549Y-48360290D01*
X140559549Y-48360292D01*
X140618744Y-48619643D01*
X140618750Y-48619662D01*
X140715942Y-48867303D01*
X140848962Y-49097700D01*
X140899729Y-49161361D01*
X140899730Y-49161361D01*
X141565530Y-48495560D01*
X141566386Y-48497626D01*
X141659408Y-48636844D01*
X141777802Y-48755238D01*
X141917020Y-48848260D01*
X141919083Y-48849114D01*
X141252486Y-49515711D01*
X141429657Y-49636504D01*
X141429661Y-49636506D01*
X141669341Y-49751931D01*
X141669345Y-49751932D01*
X141923555Y-49830346D01*
X141923561Y-49830347D01*
X142186622Y-49869999D01*
X142186629Y-49870000D01*
X142452663Y-49870000D01*
X142452669Y-49869999D01*
X142715730Y-49830347D01*
X142715736Y-49830346D01*
X142969945Y-49751933D01*
X143209638Y-49636503D01*
X143386804Y-49515711D01*
X142720208Y-48849114D01*
X142722272Y-48848260D01*
X142861490Y-48755238D01*
X142979884Y-48636844D01*
X143072906Y-48497626D01*
X143073760Y-48495561D01*
X143739560Y-49161361D01*
X143739561Y-49161360D01*
X143790325Y-49097706D01*
X143790332Y-49097695D01*
X143923349Y-48867303D01*
X144020541Y-48619662D01*
X144020547Y-48619643D01*
X144079742Y-48360292D01*
X144079742Y-48360290D01*
X144099623Y-48095004D01*
X144099623Y-48094995D01*
X144079742Y-47829709D01*
X144079742Y-47829707D01*
X144020547Y-47570356D01*
X144020541Y-47570337D01*
X143923349Y-47322696D01*
X143790329Y-47092299D01*
X143739561Y-47028637D01*
X143073760Y-47694437D01*
X143072906Y-47692374D01*
X142979884Y-47553156D01*
X142861490Y-47434762D01*
X142722272Y-47341740D01*
X142720207Y-47340884D01*
X143386804Y-46674287D01*
X143209630Y-46553492D01*
X142969945Y-46438066D01*
X142715736Y-46359653D01*
X142715730Y-46359652D01*
X142452669Y-46320000D01*
X142186622Y-46320000D01*
X141923561Y-46359652D01*
X141923555Y-46359653D01*
X141669345Y-46438067D01*
X141669341Y-46438068D01*
X141429661Y-46553493D01*
X141429657Y-46553495D01*
X141252486Y-46674287D01*
X141919084Y-47340884D01*
X141917020Y-47341740D01*
X141777802Y-47434762D01*
X141659408Y-47553156D01*
X141566386Y-47692374D01*
X141565530Y-47694438D01*
X140899730Y-47028638D01*
X140848960Y-47092302D01*
X140715942Y-47322696D01*
X140618750Y-47570337D01*
X140618744Y-47570356D01*
X140559549Y-47829707D01*
X140559549Y-47829709D01*
X140539669Y-48094995D01*
X140539669Y-48095004D01*
X108622932Y-48095004D01*
X108600352Y-40124350D01*
X108619847Y-40057256D01*
X108672521Y-40011352D01*
X108724352Y-40000000D01*
X139370500Y-40000000D01*
X139437539Y-40019685D01*
G37*
%TD.AperFunction*%
%TD*%
%TA.AperFunction,Conductor*%
%TO.N,/P48V*%
G36*
X149943039Y-40019685D02*
G01*
X149988794Y-40072489D01*
X150000000Y-40124000D01*
X150000000Y-103948638D01*
X149980315Y-104015677D01*
X149963681Y-104036319D01*
X147636319Y-106363681D01*
X147574996Y-106397166D01*
X147548638Y-106400000D01*
X141199247Y-106400000D01*
X141170735Y-106396677D01*
X141167484Y-106395909D01*
X141107882Y-106389501D01*
X141107873Y-106389500D01*
X141107863Y-106389500D01*
X140412129Y-106389500D01*
X140412123Y-106389501D01*
X140352515Y-106395909D01*
X140349270Y-106396676D01*
X140320752Y-106400000D01*
X140247053Y-106400000D01*
X140218539Y-106396677D01*
X140217373Y-106396401D01*
X140157844Y-106390000D01*
X140060000Y-106390000D01*
X140060000Y-106547893D01*
X140040315Y-106614932D01*
X140035267Y-106622204D01*
X140016204Y-106647668D01*
X140016202Y-106647671D01*
X139965908Y-106782517D01*
X139959501Y-106842116D01*
X139959500Y-106842127D01*
X139959500Y-107497738D01*
X139959501Y-107641000D01*
X139939817Y-107708039D01*
X139887013Y-107753794D01*
X139835501Y-107765000D01*
X138060000Y-107765000D01*
X138060000Y-108076000D01*
X138040315Y-108143039D01*
X137987511Y-108188794D01*
X137936000Y-108200000D01*
X137594005Y-108200000D01*
X137526966Y-108180315D01*
X137481211Y-108127511D01*
X137471267Y-108058353D01*
X137488467Y-108010903D01*
X137511542Y-107973492D01*
X137511547Y-107973481D01*
X137564855Y-107812606D01*
X137574999Y-107713322D01*
X137575000Y-107713309D01*
X137575000Y-107690000D01*
X135625001Y-107690000D01*
X135625001Y-107713322D01*
X135635144Y-107812607D01*
X135688452Y-107973481D01*
X135688457Y-107973492D01*
X135711533Y-108010903D01*
X135729974Y-108078295D01*
X135709052Y-108144959D01*
X135655410Y-108189728D01*
X135605995Y-108200000D01*
X135223378Y-108200000D01*
X135156339Y-108180315D01*
X135110584Y-108127511D01*
X135100640Y-108058353D01*
X135117839Y-108010904D01*
X135134354Y-107984128D01*
X135134358Y-107984119D01*
X135189505Y-107817697D01*
X135189506Y-107817690D01*
X135199999Y-107714986D01*
X135200000Y-107714973D01*
X135200000Y-107590000D01*
X132400001Y-107590000D01*
X132400001Y-107714986D01*
X132410494Y-107817697D01*
X132465641Y-107984119D01*
X132465645Y-107984128D01*
X132482161Y-108010904D01*
X132500601Y-108078296D01*
X132479678Y-108144960D01*
X132426036Y-108189729D01*
X132376622Y-108200000D01*
X124124000Y-108200000D01*
X124056961Y-108180315D01*
X124011206Y-108127511D01*
X124000000Y-108076000D01*
X124000000Y-107265000D01*
X138060000Y-107265000D01*
X138610000Y-107265000D01*
X138610000Y-106390000D01*
X139110000Y-106390000D01*
X139110000Y-107265000D01*
X139560000Y-107265000D01*
X139560000Y-106390000D01*
X139462155Y-106390000D01*
X139402627Y-106396401D01*
X139402620Y-106396403D01*
X139378331Y-106405462D01*
X139308639Y-106410445D01*
X139291669Y-106405462D01*
X139267379Y-106396403D01*
X139267372Y-106396401D01*
X139207844Y-106390000D01*
X139110000Y-106390000D01*
X138610000Y-106390000D01*
X138512155Y-106390000D01*
X138452627Y-106396401D01*
X138452620Y-106396403D01*
X138317913Y-106446645D01*
X138317906Y-106446649D01*
X138202812Y-106532809D01*
X138202809Y-106532812D01*
X138116649Y-106647906D01*
X138116645Y-106647913D01*
X138066403Y-106782620D01*
X138066401Y-106782627D01*
X138060000Y-106842155D01*
X138060000Y-107265000D01*
X124000000Y-107265000D01*
X124000000Y-107190000D01*
X135625000Y-107190000D01*
X136350000Y-107190000D01*
X136350000Y-106490000D01*
X136850000Y-106490000D01*
X136850000Y-107190000D01*
X137574999Y-107190000D01*
X137574999Y-107166692D01*
X137574998Y-107166677D01*
X137564855Y-107067392D01*
X137511547Y-106906518D01*
X137511542Y-106906507D01*
X137422575Y-106762271D01*
X137422572Y-106762267D01*
X137302732Y-106642427D01*
X137302728Y-106642424D01*
X137158492Y-106553457D01*
X137158481Y-106553452D01*
X136997606Y-106500144D01*
X136898322Y-106490000D01*
X136850000Y-106490000D01*
X136350000Y-106490000D01*
X136349999Y-106489999D01*
X136301693Y-106490000D01*
X136301675Y-106490001D01*
X136202392Y-106500144D01*
X136041518Y-106553452D01*
X136041507Y-106553457D01*
X135897271Y-106642424D01*
X135897267Y-106642427D01*
X135777427Y-106762267D01*
X135777424Y-106762271D01*
X135688457Y-106906507D01*
X135688452Y-106906518D01*
X135635144Y-107067393D01*
X135625000Y-107166677D01*
X135625000Y-107190000D01*
X124000000Y-107190000D01*
X124000000Y-107090000D01*
X132400000Y-107090000D01*
X133550000Y-107090000D01*
X133550000Y-106265000D01*
X134050000Y-106265000D01*
X134050000Y-107090000D01*
X135199999Y-107090000D01*
X135199999Y-106965028D01*
X135199998Y-106965013D01*
X135189505Y-106862302D01*
X135134358Y-106695880D01*
X135134356Y-106695875D01*
X135042315Y-106546654D01*
X134918345Y-106422684D01*
X134769124Y-106330643D01*
X134769119Y-106330641D01*
X134602697Y-106275494D01*
X134602690Y-106275493D01*
X134499986Y-106265000D01*
X134050000Y-106265000D01*
X133550000Y-106265000D01*
X133100028Y-106265000D01*
X133100012Y-106265001D01*
X132997302Y-106275494D01*
X132830880Y-106330641D01*
X132830875Y-106330643D01*
X132681654Y-106422684D01*
X132557684Y-106546654D01*
X132465643Y-106695875D01*
X132465641Y-106695880D01*
X132410494Y-106862302D01*
X132410493Y-106862309D01*
X132400000Y-106965013D01*
X132400000Y-107090000D01*
X124000000Y-107090000D01*
X124000000Y-106096783D01*
X124019685Y-106029744D01*
X124072489Y-105983989D01*
X124141647Y-105974045D01*
X124205203Y-106003070D01*
X124235000Y-106041512D01*
X124278059Y-106127987D01*
X124278064Y-106127996D01*
X124286836Y-106139610D01*
X124860000Y-105566446D01*
X124860000Y-105572661D01*
X124887259Y-105674394D01*
X124939920Y-105765606D01*
X125014394Y-105840080D01*
X125105606Y-105892741D01*
X125207339Y-105920000D01*
X125213553Y-105920000D01*
X124642991Y-106490559D01*
X124745204Y-106553847D01*
X124745208Y-106553849D01*
X124943936Y-106630836D01*
X124943941Y-106630837D01*
X125153439Y-106670000D01*
X125366561Y-106670000D01*
X125576058Y-106630837D01*
X125576063Y-106630836D01*
X125774791Y-106553849D01*
X125774798Y-106553846D01*
X125877006Y-106490560D01*
X125877006Y-106490559D01*
X125306448Y-105920000D01*
X125312661Y-105920000D01*
X125414394Y-105892741D01*
X125505606Y-105840080D01*
X125580080Y-105765606D01*
X125632741Y-105674394D01*
X125660000Y-105572661D01*
X125660000Y-105566447D01*
X126233162Y-106139609D01*
X126233163Y-106139609D01*
X126241940Y-106127988D01*
X126241942Y-106127985D01*
X126336933Y-105937216D01*
X126336941Y-105937196D01*
X126395261Y-105732219D01*
X126395262Y-105732216D01*
X126406529Y-105610628D01*
X126432315Y-105545690D01*
X126467894Y-105520204D01*
X126591533Y-105520204D01*
X126619503Y-105536248D01*
X126651693Y-105598261D01*
X126653471Y-105610628D01*
X126664737Y-105732216D01*
X126664738Y-105732219D01*
X126723058Y-105937196D01*
X126723064Y-105937211D01*
X126818061Y-106127991D01*
X126818064Y-106127996D01*
X126826836Y-106139610D01*
X127400000Y-105566446D01*
X127400000Y-105572661D01*
X127427259Y-105674394D01*
X127479920Y-105765606D01*
X127554394Y-105840080D01*
X127645606Y-105892741D01*
X127747339Y-105920000D01*
X127753553Y-105920000D01*
X127182991Y-106490559D01*
X127285204Y-106553847D01*
X127285208Y-106553849D01*
X127483936Y-106630836D01*
X127483941Y-106630837D01*
X127693439Y-106670000D01*
X127906561Y-106670000D01*
X128116058Y-106630837D01*
X128116063Y-106630836D01*
X128314791Y-106553849D01*
X128314798Y-106553846D01*
X128417006Y-106490560D01*
X128417006Y-106490559D01*
X127846448Y-105920000D01*
X127852661Y-105920000D01*
X127954394Y-105892741D01*
X128045606Y-105840080D01*
X128120080Y-105765606D01*
X128172741Y-105674394D01*
X128200000Y-105572661D01*
X128200000Y-105566447D01*
X128773162Y-106139609D01*
X128773163Y-106139609D01*
X128781940Y-106127988D01*
X128781942Y-106127985D01*
X128876933Y-105937216D01*
X128876941Y-105937196D01*
X128935261Y-105732219D01*
X128935262Y-105732216D01*
X128954927Y-105520000D01*
X128954927Y-105519999D01*
X128935262Y-105307783D01*
X128935261Y-105307780D01*
X128876941Y-105102803D01*
X128876933Y-105102783D01*
X128781942Y-104912014D01*
X128781937Y-104912006D01*
X128773163Y-104900389D01*
X128200000Y-105473552D01*
X128200000Y-105467339D01*
X128172741Y-105365606D01*
X128120080Y-105274394D01*
X128045606Y-105199920D01*
X127954394Y-105147259D01*
X127852661Y-105120000D01*
X127846448Y-105120000D01*
X128417007Y-104549439D01*
X128314793Y-104486151D01*
X128314789Y-104486149D01*
X128116063Y-104409163D01*
X128116058Y-104409162D01*
X127906561Y-104370000D01*
X127693439Y-104370000D01*
X127483941Y-104409162D01*
X127483936Y-104409163D01*
X127285210Y-104486149D01*
X127285201Y-104486154D01*
X127182992Y-104549438D01*
X127182991Y-104549439D01*
X127753553Y-105120000D01*
X127747339Y-105120000D01*
X127645606Y-105147259D01*
X127554394Y-105199920D01*
X127479920Y-105274394D01*
X127427259Y-105365606D01*
X127400000Y-105467339D01*
X127400000Y-105473552D01*
X126826836Y-104900388D01*
X126818059Y-104912010D01*
X126723066Y-105102783D01*
X126723058Y-105102803D01*
X126664738Y-105307780D01*
X126664737Y-105307783D01*
X126653471Y-105429371D01*
X126627685Y-105494309D01*
X126591533Y-105520204D01*
X126467894Y-105520204D01*
X126468466Y-105519794D01*
X126440497Y-105503751D01*
X126408307Y-105441738D01*
X126406529Y-105429371D01*
X126395262Y-105307783D01*
X126395261Y-105307780D01*
X126336941Y-105102803D01*
X126336933Y-105102783D01*
X126241942Y-104912014D01*
X126241937Y-104912006D01*
X126233163Y-104900389D01*
X125660000Y-105473552D01*
X125660000Y-105467339D01*
X125632741Y-105365606D01*
X125580080Y-105274394D01*
X125505606Y-105199920D01*
X125414394Y-105147259D01*
X125312661Y-105120000D01*
X125306448Y-105120000D01*
X125877007Y-104549439D01*
X125774793Y-104486151D01*
X125774789Y-104486149D01*
X125576063Y-104409163D01*
X125576058Y-104409162D01*
X125366561Y-104370000D01*
X125153439Y-104370000D01*
X124943941Y-104409162D01*
X124943936Y-104409163D01*
X124745210Y-104486149D01*
X124745201Y-104486154D01*
X124642992Y-104549438D01*
X124642991Y-104549439D01*
X125213553Y-105120000D01*
X125207339Y-105120000D01*
X125105606Y-105147259D01*
X125014394Y-105199920D01*
X124939920Y-105274394D01*
X124887259Y-105365606D01*
X124860000Y-105467339D01*
X124860000Y-105473552D01*
X124286836Y-104900388D01*
X124278061Y-104912008D01*
X124235000Y-104998487D01*
X124187497Y-105049724D01*
X124119834Y-105067145D01*
X124053494Y-105045219D01*
X124009539Y-104990908D01*
X124000000Y-104943215D01*
X124000000Y-102975000D01*
X133800001Y-102975000D01*
X133800001Y-103774986D01*
X133810494Y-103877697D01*
X133865641Y-104044119D01*
X133865643Y-104044124D01*
X133957684Y-104193345D01*
X134081654Y-104317315D01*
X134230875Y-104409356D01*
X134230880Y-104409358D01*
X134397302Y-104464505D01*
X134397309Y-104464506D01*
X134500019Y-104474999D01*
X134949999Y-104474999D01*
X134950000Y-104474998D01*
X134950000Y-102975000D01*
X135450000Y-102975000D01*
X135450000Y-104474999D01*
X135899972Y-104474999D01*
X135899986Y-104474998D01*
X136002697Y-104464505D01*
X136169119Y-104409358D01*
X136169124Y-104409356D01*
X136318345Y-104317315D01*
X136442315Y-104193345D01*
X136534356Y-104044124D01*
X136534358Y-104044119D01*
X136589505Y-103877697D01*
X136589506Y-103877690D01*
X136599999Y-103774986D01*
X136600000Y-103774973D01*
X136600000Y-103650000D01*
X138600001Y-103650000D01*
X138600001Y-103774986D01*
X138610494Y-103877697D01*
X138665641Y-104044119D01*
X138665643Y-104044124D01*
X138757684Y-104193345D01*
X138881654Y-104317315D01*
X139030875Y-104409356D01*
X139030880Y-104409358D01*
X139197302Y-104464505D01*
X139197309Y-104464506D01*
X139300019Y-104474999D01*
X139749999Y-104474999D01*
X139750000Y-104474998D01*
X139750000Y-103650000D01*
X140250000Y-103650000D01*
X140250000Y-104474999D01*
X140699972Y-104474999D01*
X140699986Y-104474998D01*
X140802697Y-104464505D01*
X140969119Y-104409358D01*
X140969124Y-104409356D01*
X141118345Y-104317315D01*
X141242315Y-104193345D01*
X141334356Y-104044124D01*
X141334358Y-104044119D01*
X141389505Y-103877697D01*
X141389506Y-103877690D01*
X141399999Y-103774986D01*
X141400000Y-103774973D01*
X141400000Y-103650000D01*
X140250000Y-103650000D01*
X139750000Y-103650000D01*
X138600001Y-103650000D01*
X136600000Y-103650000D01*
X136600000Y-103150000D01*
X138600000Y-103150000D01*
X139750000Y-103150000D01*
X139750000Y-102325000D01*
X140250000Y-102325000D01*
X140250000Y-103150000D01*
X141399999Y-103150000D01*
X141399999Y-103025028D01*
X141399998Y-103025013D01*
X141389505Y-102922302D01*
X141334358Y-102755880D01*
X141334356Y-102755875D01*
X141242315Y-102606654D01*
X141118345Y-102482684D01*
X140969124Y-102390643D01*
X140969119Y-102390641D01*
X140802697Y-102335494D01*
X140802690Y-102335493D01*
X140699986Y-102325000D01*
X140250000Y-102325000D01*
X139750000Y-102325000D01*
X139300028Y-102325000D01*
X139300012Y-102325001D01*
X139197302Y-102335494D01*
X139030880Y-102390641D01*
X139030875Y-102390643D01*
X138881654Y-102482684D01*
X138757684Y-102606654D01*
X138665643Y-102755875D01*
X138665641Y-102755880D01*
X138610494Y-102922302D01*
X138610493Y-102922309D01*
X138600000Y-103025013D01*
X138600000Y-103150000D01*
X136600000Y-103150000D01*
X136600000Y-102975000D01*
X135450000Y-102975000D01*
X134950000Y-102975000D01*
X133800001Y-102975000D01*
X124000000Y-102975000D01*
X124000000Y-101924000D01*
X124019685Y-101856961D01*
X124072489Y-101811206D01*
X124124000Y-101800000D01*
X133676000Y-101800000D01*
X133743039Y-101819685D01*
X133788794Y-101872489D01*
X133800000Y-101924000D01*
X133800000Y-102475000D01*
X136599999Y-102475000D01*
X136599999Y-101924000D01*
X136619684Y-101856961D01*
X136672488Y-101811206D01*
X136723999Y-101800000D01*
X141600000Y-101800000D01*
X141600000Y-92447844D01*
X142500000Y-92447844D01*
X142506401Y-92507372D01*
X142506403Y-92507379D01*
X142556645Y-92642086D01*
X142556649Y-92642093D01*
X142642809Y-92757187D01*
X142642812Y-92757190D01*
X142757906Y-92843350D01*
X142757913Y-92843354D01*
X142892620Y-92893596D01*
X142892627Y-92893598D01*
X142952155Y-92899999D01*
X142952172Y-92900000D01*
X143750000Y-92900000D01*
X143750000Y-91833012D01*
X143807007Y-91865925D01*
X143934174Y-91900000D01*
X144065826Y-91900000D01*
X144192993Y-91865925D01*
X144250000Y-91833012D01*
X144250000Y-92900000D01*
X145047828Y-92900000D01*
X145047844Y-92899999D01*
X145107372Y-92893598D01*
X145107379Y-92893596D01*
X145242086Y-92843354D01*
X145242093Y-92843350D01*
X145357187Y-92757190D01*
X145357190Y-92757187D01*
X145443350Y-92642093D01*
X145443354Y-92642086D01*
X145493596Y-92507379D01*
X145493598Y-92507372D01*
X145499999Y-92447844D01*
X145500000Y-92447827D01*
X145500000Y-91650000D01*
X144433012Y-91650000D01*
X144465925Y-91592993D01*
X144500000Y-91465826D01*
X144500000Y-91334174D01*
X144465925Y-91207007D01*
X144433012Y-91150000D01*
X145500000Y-91150000D01*
X145500000Y-90352172D01*
X145499999Y-90352155D01*
X145493598Y-90292627D01*
X145493596Y-90292620D01*
X145443354Y-90157913D01*
X145443350Y-90157906D01*
X145357190Y-90042812D01*
X145357187Y-90042809D01*
X145242093Y-89956649D01*
X145242086Y-89956645D01*
X145107379Y-89906403D01*
X145107372Y-89906401D01*
X145047844Y-89900000D01*
X144250000Y-89900000D01*
X144250000Y-90966988D01*
X144192993Y-90934075D01*
X144065826Y-90900000D01*
X143934174Y-90900000D01*
X143807007Y-90934075D01*
X143750000Y-90966988D01*
X143750000Y-89900000D01*
X142952155Y-89900000D01*
X142892627Y-89906401D01*
X142892620Y-89906403D01*
X142757913Y-89956645D01*
X142757906Y-89956649D01*
X142642812Y-90042809D01*
X142642809Y-90042812D01*
X142556649Y-90157906D01*
X142556645Y-90157913D01*
X142506403Y-90292620D01*
X142506401Y-90292627D01*
X142500000Y-90352155D01*
X142500000Y-91150000D01*
X143566988Y-91150000D01*
X143534075Y-91207007D01*
X143500000Y-91334174D01*
X143500000Y-91465826D01*
X143534075Y-91592993D01*
X143566988Y-91650000D01*
X142500000Y-91650000D01*
X142500000Y-92447844D01*
X141600000Y-92447844D01*
X141600000Y-88607043D01*
X141600798Y-88592999D01*
X145999999Y-50000011D01*
X146000000Y-49999995D01*
X146000000Y-45000000D01*
X140124000Y-45000000D01*
X140056961Y-44980315D01*
X140011206Y-44927511D01*
X140000000Y-44876000D01*
X140000000Y-42345004D01*
X140539669Y-42345004D01*
X140559549Y-42610290D01*
X140559549Y-42610292D01*
X140618744Y-42869643D01*
X140618750Y-42869662D01*
X140715942Y-43117303D01*
X140848962Y-43347700D01*
X140899729Y-43411361D01*
X140899730Y-43411361D01*
X141565530Y-42745560D01*
X141566386Y-42747626D01*
X141659408Y-42886844D01*
X141777802Y-43005238D01*
X141917020Y-43098260D01*
X141919083Y-43099114D01*
X141252486Y-43765711D01*
X141429657Y-43886504D01*
X141429661Y-43886506D01*
X141669341Y-44001931D01*
X141669345Y-44001932D01*
X141923555Y-44080346D01*
X141923561Y-44080347D01*
X142186622Y-44119999D01*
X142186629Y-44120000D01*
X142452663Y-44120000D01*
X142452669Y-44119999D01*
X142715730Y-44080347D01*
X142715736Y-44080346D01*
X142969945Y-44001933D01*
X143209638Y-43886503D01*
X143386804Y-43765711D01*
X142720208Y-43099114D01*
X142722272Y-43098260D01*
X142861490Y-43005238D01*
X142979884Y-42886844D01*
X143072906Y-42747626D01*
X143073760Y-42745561D01*
X143739560Y-43411361D01*
X143739561Y-43411360D01*
X143790325Y-43347706D01*
X143790332Y-43347695D01*
X143923349Y-43117303D01*
X144020541Y-42869662D01*
X144020547Y-42869643D01*
X144079742Y-42610292D01*
X144079742Y-42610290D01*
X144099623Y-42345004D01*
X144099623Y-42344995D01*
X144079742Y-42079709D01*
X144079742Y-42079707D01*
X144020547Y-41820356D01*
X144020541Y-41820337D01*
X143923349Y-41572696D01*
X143790329Y-41342299D01*
X143739561Y-41278637D01*
X143073760Y-41944437D01*
X143072906Y-41942374D01*
X142979884Y-41803156D01*
X142861490Y-41684762D01*
X142722272Y-41591740D01*
X142720207Y-41590884D01*
X143386804Y-40924287D01*
X143209630Y-40803492D01*
X142969945Y-40688066D01*
X142715736Y-40609653D01*
X142715730Y-40609652D01*
X142452669Y-40570000D01*
X142186622Y-40570000D01*
X141923561Y-40609652D01*
X141923555Y-40609653D01*
X141669345Y-40688067D01*
X141669341Y-40688068D01*
X141429661Y-40803493D01*
X141429657Y-40803495D01*
X141252486Y-40924287D01*
X141919084Y-41590884D01*
X141917020Y-41591740D01*
X141777802Y-41684762D01*
X141659408Y-41803156D01*
X141566386Y-41942374D01*
X141565530Y-41944438D01*
X140899730Y-41278638D01*
X140848960Y-41342302D01*
X140715942Y-41572696D01*
X140618750Y-41820337D01*
X140618744Y-41820356D01*
X140559549Y-42079707D01*
X140559549Y-42079709D01*
X140539669Y-42344995D01*
X140539669Y-42345004D01*
X140000000Y-42345004D01*
X140000000Y-40124000D01*
X140019685Y-40056961D01*
X140072489Y-40011206D01*
X140124000Y-40000000D01*
X149876000Y-40000000D01*
X149943039Y-40019685D01*
G37*
%TD.AperFunction*%
%TD*%
M02*
