M48
; DRILL file {KiCad 8.0.1} date 2025-09-04T11:13:53-0400
; FORMAT={-:-/ absolute / inch / decimal}
; #@! TF.CreationDate,2025-09-04T11:13:53-04:00
; #@! TF.GenerationSoftware,Kicad,Pcbnew,8.0.1
; #@! TF.FileFunction,Plated,1,2,PTH
FMAT,2
INCH
; #@! TA.AperFunction,Plated,PTH,ViaDrill
T1C0.0118
; #@! TA.AperFunction,Plated,PTH,ComponentDrill
T2C0.0315
; #@! TA.AperFunction,Plated,PTH,ComponentDrill
T3C0.0354
; #@! TA.AperFunction,Plated,PTH,ComponentDrill
T4C0.0394
; #@! TA.AperFunction,Plated,PTH,ComponentDrill
T5C0.0437
; #@! TA.AperFunction,Plated,PTH,ComponentDrill
T6C0.0472
; #@! TA.AperFunction,Plated,PTH,ComponentDrill
T7C0.0551
; #@! TA.AperFunction,Plated,PTH,ComponentDrill
T8C0.0669
%
G90
G05
T1
X4.126Y-4.5039
X4.1339Y-4.9134
X4.5669Y-4.5118
X4.6614Y-4.5197
X4.7087Y-4.2126
X4.7087Y-5.0787
X4.7165Y-4.0787
X4.7165Y-4.9449
X4.7717Y-5.0866
X4.8425Y-4.7402
X5.0Y-4.9449
X5.0866Y-4.5039
X5.2835Y-4.4016
X5.3071Y-3.7874
X5.315Y-5.0787
X5.3307Y-3.5906
X5.3858Y-4.3543
X5.4173Y-1.8898
X5.4724Y-4.685
X5.4961Y-3.8819
X5.5433Y-4.8976
X5.5984Y-2.0787
X5.8346Y-4.252
X5.8346Y-4.7638
T2
X3.6299Y-4.0899
X3.6299Y-4.1883
X3.9315Y-3.5543
X3.9315Y-4.1543
X4.0315Y-3.5543
X4.0315Y-4.1543
X4.8315Y-4.1543
X4.9315Y-3.5543
X4.9315Y-4.1543
X5.0315Y-3.5543
X5.0315Y-4.1543
T3
X5.6244Y-4.9167
X5.7244Y-4.9167
X5.8244Y-4.9167
T4
X5.4724Y-3.5984
X5.6693Y-3.5984
T5
X3.7701Y-4.4165
X3.7701Y-5.0165
X3.8701Y-4.4165
X3.8701Y-5.0165
X3.9701Y-4.4165
X3.9701Y-5.0165
X4.0701Y-4.4165
X4.0701Y-5.0165
X4.1701Y-4.4165
X4.1701Y-5.0165
X4.2701Y-4.4165
X4.2701Y-5.0165
X4.3701Y-4.4165
X4.3701Y-5.0165
X4.4701Y-4.4165
X4.4701Y-5.0165
X4.5701Y-4.4165
X4.5701Y-5.0165
X4.6701Y-4.4165
X4.6701Y-5.0165
X4.7701Y-4.4165
X4.7701Y-5.0165
X4.8701Y-4.4165
X4.8701Y-5.0165
T6
X3.0157Y-4.0512
X3.0157Y-4.248
X3.0157Y-4.811
X3.0157Y-5.0079
X3.2126Y-4.1496
X3.2126Y-4.3465
X3.2126Y-4.9094
X3.2126Y-5.1063
T7
X2.9735Y-3.6535
X3.7036Y-3.6535
T8
X3.1819Y-2.8285
X3.1819Y-3.1337
X5.6031Y-1.6671
X5.6031Y-1.8935
M30
